<svg width="1079" height="438" viewBox="0 0 1079 438" fill="none" xmlns="http://www.w3.org/2000/svg">
<rect width="1079" height="438" fill="white"/>
<rect x="344" y="69" width="152" height="138" rx="19" stroke="#F89B32" stroke-width="2"/>
<path d="M379.54 132.32H375.54V130.18H385.78V132.32H381.78V144.5H379.54V132.32ZM390.767 144.82C389.74 144.82 388.82 144.587 388.007 144.12C387.194 143.64 386.56 142.987 386.107 142.16C385.654 141.333 385.427 140.413 385.427 139.4C385.427 138.387 385.654 137.467 386.107 136.64C386.56 135.813 387.194 135.167 388.007 134.7C388.82 134.22 389.74 133.98 390.767 133.98C391.794 133.98 392.714 134.22 393.527 134.7C394.34 135.18 394.974 135.833 395.427 136.66C395.88 137.487 396.107 138.4 396.107 139.4C396.107 140.413 395.88 141.333 395.427 142.16C394.974 142.987 394.34 143.64 393.527 144.12C392.714 144.587 391.794 144.82 390.767 144.82ZM390.767 142.8C391.327 142.8 391.847 142.667 392.327 142.4C392.807 142.12 393.187 141.727 393.467 141.22C393.76 140.7 393.907 140.093 393.907 139.4C393.907 138.707 393.76 138.107 393.467 137.6C393.187 137.093 392.807 136.707 392.327 136.44C391.847 136.16 391.327 136.02 390.767 136.02C390.207 136.02 389.687 136.16 389.207 136.44C388.727 136.707 388.34 137.093 388.047 137.6C387.767 138.107 387.627 138.707 387.627 139.4C387.627 140.093 387.767 140.7 388.047 141.22C388.34 141.727 388.727 142.12 389.207 142.4C389.687 142.667 390.207 142.8 390.767 142.8ZM398.038 130.18H400.238V138.52H400.298L404.478 134.3H407.238V134.42L403.278 138.36L407.358 144.38V144.5H404.738L401.738 139.88L400.238 141.34V144.5H398.038V130.18ZM413.088 144.82C412.088 144.82 411.188 144.587 410.388 144.12C409.602 143.653 408.982 143.013 408.528 142.2C408.088 141.373 407.868 140.447 407.868 139.42C407.868 138.447 408.082 137.547 408.508 136.72C408.948 135.88 409.555 135.213 410.328 134.72C411.102 134.227 411.982 133.98 412.968 133.98C413.995 133.98 414.882 134.207 415.628 134.66C416.388 135.113 416.962 135.733 417.348 136.52C417.748 137.307 417.948 138.193 417.948 139.18C417.948 139.367 417.928 139.6 417.888 139.88H410.068C410.148 140.827 410.482 141.56 411.068 142.08C411.668 142.587 412.362 142.84 413.148 142.84C413.775 142.84 414.315 142.7 414.768 142.42C415.235 142.127 415.608 141.733 415.888 141.24L417.748 142.12C417.268 142.96 416.642 143.62 415.868 144.1C415.095 144.58 414.168 144.82 413.088 144.82ZM415.708 138.2C415.682 137.84 415.568 137.487 415.368 137.14C415.168 136.78 414.862 136.48 414.448 136.24C414.048 136 413.555 135.88 412.968 135.88C412.262 135.88 411.662 136.093 411.168 136.52C410.688 136.933 410.355 137.493 410.168 138.2H415.708ZM419.952 134.3H422.052V135.64H422.152C422.445 135.16 422.879 134.767 423.452 134.46C424.039 134.14 424.659 133.98 425.312 133.98C426.552 133.98 427.492 134.347 428.132 135.08C428.785 135.8 429.112 136.787 429.112 138.04V144.5H426.912V138.34C426.912 137.54 426.712 136.953 426.312 136.58C425.925 136.207 425.385 136.02 424.692 136.02C424.199 136.02 423.759 136.16 423.372 136.44C422.985 136.707 422.685 137.067 422.472 137.52C422.259 137.973 422.152 138.46 422.152 138.98V144.5H419.952V134.3ZM432.853 132.82C432.439 132.82 432.086 132.68 431.793 132.4C431.513 132.107 431.373 131.753 431.373 131.34C431.373 130.927 431.513 130.58 431.793 130.3C432.086 130.007 432.439 129.86 432.853 129.86C433.266 129.86 433.613 130.007 433.893 130.3C434.186 130.58 434.333 130.927 434.333 131.34C434.333 131.753 434.186 132.107 433.893 132.4C433.613 132.68 433.266 132.82 432.853 132.82ZM431.753 134.3H433.953V144.5H431.753V134.3ZM436.17 142.66L441.81 136.24H436.33V134.3H444.51V136.16L438.87 142.58H444.67V144.5H436.17V142.66ZM451.174 144.82C450.174 144.82 449.274 144.587 448.474 144.12C447.688 143.653 447.068 143.013 446.614 142.2C446.174 141.373 445.954 140.447 445.954 139.42C445.954 138.447 446.168 137.547 446.594 136.72C447.034 135.88 447.641 135.213 448.414 134.72C449.188 134.227 450.068 133.98 451.054 133.98C452.081 133.98 452.968 134.207 453.714 134.66C454.474 135.113 455.048 135.733 455.434 136.52C455.834 137.307 456.034 138.193 456.034 139.18C456.034 139.367 456.014 139.6 455.974 139.88H448.154C448.234 140.827 448.568 141.56 449.154 142.08C449.754 142.587 450.448 142.84 451.234 142.84C451.861 142.84 452.401 142.7 452.854 142.42C453.321 142.127 453.694 141.733 453.974 141.24L455.834 142.12C455.354 142.96 454.728 143.62 453.954 144.1C453.181 144.58 452.254 144.82 451.174 144.82ZM453.794 138.2C453.768 137.84 453.654 137.487 453.454 137.14C453.254 136.78 452.948 136.48 452.534 136.24C452.134 136 451.641 135.88 451.054 135.88C450.348 135.88 449.748 136.093 449.254 136.52C448.774 136.933 448.441 137.493 448.254 138.2H453.794ZM458.038 134.3H460.138V135.8H460.238C460.464 135.28 460.858 134.853 461.418 134.52C461.978 134.173 462.571 134 463.198 134C463.691 134 464.104 134.067 464.438 134.2V136.48C463.851 136.267 463.324 136.16 462.858 136.16C462.351 136.16 461.898 136.293 461.498 136.56C461.111 136.827 460.804 137.187 460.578 137.64C460.351 138.08 460.238 138.567 460.238 139.1V144.5H458.038V134.3Z" fill="black"/>
<rect x="83" y="69" width="152" height="138" rx="19" stroke="#E247D3" stroke-width="2"/>
<path d="M136.14 130.18H138.38V144.5H136.14V130.18ZM141.288 134.3H143.388V135.64H143.488C143.781 135.16 144.214 134.767 144.788 134.46C145.374 134.14 145.994 133.98 146.648 133.98C147.888 133.98 148.828 134.347 149.468 135.08C150.121 135.8 150.448 136.787 150.448 138.04V144.5H148.248V138.34C148.248 137.54 148.048 136.953 147.648 136.58C147.261 136.207 146.721 136.02 146.028 136.02C145.534 136.02 145.094 136.16 144.708 136.44C144.321 136.707 144.021 137.067 143.808 137.52C143.594 137.973 143.488 138.46 143.488 138.98V144.5H141.288V134.3ZM152.848 134.3H154.948V135.64H155.048C155.342 135.173 155.775 134.78 156.348 134.46C156.922 134.14 157.568 133.98 158.288 133.98C159.208 133.98 160.042 134.213 160.788 134.68C161.535 135.147 162.122 135.793 162.548 136.62C162.988 137.433 163.208 138.36 163.208 139.4C163.208 140.44 162.988 141.373 162.548 142.2C162.122 143.013 161.535 143.653 160.788 144.12C160.042 144.587 159.208 144.82 158.288 144.82C157.568 144.82 156.922 144.66 156.348 144.34C155.775 144.02 155.342 143.633 155.048 143.18H154.948L155.048 144.6V148.82H152.848V134.3ZM157.968 142.8C158.502 142.8 159.002 142.66 159.468 142.38C159.935 142.1 160.308 141.7 160.588 141.18C160.868 140.66 161.008 140.067 161.008 139.4C161.008 138.733 160.868 138.147 160.588 137.64C160.308 137.12 159.935 136.72 159.468 136.44C159.002 136.16 158.502 136.02 157.968 136.02C157.435 136.02 156.935 136.16 156.468 136.44C156.015 136.72 155.648 137.12 155.368 137.64C155.088 138.147 154.948 138.733 154.948 139.4C154.948 140.067 155.088 140.66 155.368 141.18C155.648 141.7 156.015 142.1 156.468 142.38C156.935 142.66 157.435 142.8 157.968 142.8ZM168.836 144.82C167.596 144.82 166.649 144.453 165.996 143.72C165.356 142.973 165.036 141.94 165.036 140.62V134.3H167.236V140.32C167.236 141.147 167.429 141.767 167.816 142.18C168.216 142.593 168.736 142.8 169.376 142.8C169.896 142.8 170.356 142.667 170.756 142.4C171.156 142.12 171.463 141.753 171.676 141.3C171.889 140.847 171.996 140.36 171.996 139.84V134.3H174.196V144.5H172.116V143.18H171.996C171.716 143.66 171.283 144.053 170.696 144.36C170.109 144.667 169.489 144.82 168.836 144.82ZM181.034 144.66C180.581 144.66 180.154 144.587 179.754 144.44C179.354 144.293 179.028 144.1 178.774 143.86C178.201 143.287 177.914 142.507 177.914 141.52V136.24H176.134V134.3H177.914V131.42H180.114V134.3H182.594V136.24H180.114V141.04C180.114 141.587 180.221 141.973 180.434 142.2C180.634 142.467 180.981 142.6 181.474 142.6C181.701 142.6 181.901 142.573 182.074 142.52C182.248 142.453 182.434 142.353 182.634 142.22V144.36C182.194 144.56 181.661 144.66 181.034 144.66Z" fill="black"/>
<rect x="835" y="68" width="153" height="138" rx="19" stroke="#E247D3" stroke-width="2"/>
<path d="M885.34 143.82C883.953 143.82 882.693 143.493 881.56 142.84C880.427 142.173 879.533 141.267 878.88 140.12C878.24 138.973 877.92 137.713 877.92 136.34C877.92 134.967 878.24 133.713 878.88 132.58C879.533 131.433 880.427 130.527 881.56 129.86C882.693 129.193 883.953 128.86 885.34 128.86C886.727 128.86 887.98 129.193 889.1 129.86C890.233 130.527 891.127 131.433 891.78 132.58C892.433 133.713 892.76 134.967 892.76 136.34C892.76 137.713 892.433 138.973 891.78 140.12C891.14 141.267 890.253 142.173 889.12 142.84C887.987 143.493 886.727 143.82 885.34 143.82ZM885.34 141.68C886.287 141.68 887.153 141.453 887.94 141C888.727 140.547 889.347 139.92 889.8 139.12C890.253 138.307 890.48 137.38 890.48 136.34C890.48 135.3 890.253 134.38 889.8 133.58C889.347 132.767 888.727 132.133 887.94 131.68C887.153 131.227 886.287 131 885.34 131C884.393 131 883.527 131.227 882.74 131.68C881.953 132.133 881.327 132.767 880.86 133.58C880.407 134.38 880.18 135.3 880.18 136.34C880.18 137.38 880.407 138.307 880.86 139.12C881.327 139.92 881.953 140.547 882.74 141C883.527 141.453 884.393 141.68 885.34 141.68ZM898.68 143.82C897.44 143.82 896.493 143.453 895.84 142.72C895.2 141.973 894.88 140.94 894.88 139.62V133.3H897.08V139.32C897.08 140.147 897.273 140.767 897.66 141.18C898.06 141.593 898.58 141.8 899.22 141.8C899.74 141.8 900.2 141.667 900.6 141.4C901 141.12 901.306 140.753 901.52 140.3C901.733 139.847 901.84 139.36 901.84 138.84V133.3H904.04V143.5H901.96V142.18H901.84C901.56 142.66 901.126 143.053 900.54 143.36C899.953 143.667 899.333 143.82 898.68 143.82ZM910.878 143.66C910.425 143.66 909.998 143.587 909.598 143.44C909.198 143.293 908.871 143.1 908.618 142.86C908.045 142.287 907.758 141.507 907.758 140.52V135.24H905.978V133.3H907.758V130.42H909.958V133.3H912.438V135.24H909.958V140.04C909.958 140.587 910.065 140.973 910.278 141.2C910.478 141.467 910.825 141.6 911.318 141.6C911.545 141.6 911.745 141.573 911.918 141.52C912.091 141.453 912.278 141.353 912.478 141.22V143.36C912.038 143.56 911.505 143.66 910.878 143.66ZM914.548 133.3H916.648V134.64H916.748C917.041 134.173 917.474 133.78 918.048 133.46C918.621 133.14 919.268 132.98 919.988 132.98C920.908 132.98 921.741 133.213 922.488 133.68C923.234 134.147 923.821 134.793 924.248 135.62C924.688 136.433 924.908 137.36 924.908 138.4C924.908 139.44 924.688 140.373 924.248 141.2C923.821 142.013 923.234 142.653 922.488 143.12C921.741 143.587 920.908 143.82 919.988 143.82C919.268 143.82 918.621 143.66 918.048 143.34C917.474 143.02 917.041 142.633 916.748 142.18H916.648L916.748 143.6V147.82H914.548V133.3ZM919.668 141.8C920.201 141.8 920.701 141.66 921.168 141.38C921.634 141.1 922.008 140.7 922.288 140.18C922.568 139.66 922.708 139.067 922.708 138.4C922.708 137.733 922.568 137.147 922.288 136.64C922.008 136.12 921.634 135.72 921.168 135.44C920.701 135.16 920.201 135.02 919.668 135.02C919.134 135.02 918.634 135.16 918.168 135.44C917.714 135.72 917.348 136.12 917.068 136.64C916.788 137.147 916.648 137.733 916.648 138.4C916.648 139.067 916.788 139.66 917.068 140.18C917.348 140.7 917.714 141.1 918.168 141.38C918.634 141.66 919.134 141.8 919.668 141.8ZM930.535 143.82C929.295 143.82 928.348 143.453 927.695 142.72C927.055 141.973 926.735 140.94 926.735 139.62V133.3H928.935V139.32C928.935 140.147 929.128 140.767 929.515 141.18C929.915 141.593 930.435 141.8 931.075 141.8C931.595 141.8 932.055 141.667 932.455 141.4C932.855 141.12 933.162 140.753 933.375 140.3C933.588 139.847 933.695 139.36 933.695 138.84V133.3H935.895V143.5H933.815V142.18H933.695C933.415 142.66 932.982 143.053 932.395 143.36C931.808 143.667 931.188 143.82 930.535 143.82ZM942.733 143.66C942.28 143.66 941.853 143.587 941.453 143.44C941.053 143.293 940.727 143.1 940.473 142.86C939.9 142.287 939.613 141.507 939.613 140.52V135.24H937.833V133.3H939.613V130.42H941.813V133.3H944.293V135.24H941.813V140.04C941.813 140.587 941.92 140.973 942.133 141.2C942.333 141.467 942.68 141.6 943.173 141.6C943.4 141.6 943.6 141.573 943.773 141.52C943.947 141.453 944.133 141.353 944.333 141.22V143.36C943.893 143.56 943.36 143.66 942.733 143.66Z" fill="black"/>
<rect x="344" y="260" width="152" height="138" rx="19" stroke="#35C041" stroke-width="2"/>
<path d="M363.14 321.18H371.84V323.32H365.38V327.28H371.2V329.4H365.38V333.36H371.84V335.5H363.14V321.18ZM374.069 325.3H376.169V326.64H376.269C376.576 326.147 377.009 325.747 377.569 325.44C378.129 325.133 378.729 324.98 379.369 324.98C380.102 324.98 380.742 325.153 381.289 325.5C381.836 325.833 382.229 326.28 382.469 326.84C382.816 326.28 383.276 325.833 383.849 325.5C384.436 325.153 385.122 324.98 385.909 324.98C387.082 324.98 387.969 325.34 388.569 326.06C389.182 326.767 389.489 327.733 389.489 328.96V335.5H387.289V329.34C387.289 327.793 386.629 327.02 385.309 327.02C384.602 327.02 384.022 327.307 383.569 327.88C383.116 328.453 382.889 329.16 382.889 330V335.5H380.689V329.34C380.689 327.793 380.009 327.02 378.649 327.02C377.956 327.02 377.382 327.307 376.929 327.88C376.489 328.453 376.269 329.16 376.269 330V335.5H374.069V325.3ZM397.439 335.82C396.719 335.82 396.072 335.66 395.499 335.34C394.925 335.02 394.492 334.633 394.199 334.18H394.099V335.5H391.999V321.18H394.199V325.2L394.099 326.64H394.199C394.492 326.173 394.925 325.78 395.499 325.46C396.072 325.14 396.719 324.98 397.439 324.98C398.359 324.98 399.192 325.213 399.939 325.68C400.685 326.147 401.272 326.793 401.699 327.62C402.139 328.433 402.359 329.36 402.359 330.4C402.359 331.44 402.139 332.373 401.699 333.2C401.272 334.013 400.685 334.653 399.939 335.12C399.192 335.587 398.359 335.82 397.439 335.82ZM397.119 333.8C397.652 333.8 398.152 333.66 398.619 333.38C399.085 333.1 399.459 332.7 399.739 332.18C400.019 331.66 400.159 331.067 400.159 330.4C400.159 329.733 400.019 329.147 399.739 328.64C399.459 328.12 399.085 327.72 398.619 327.44C398.152 327.16 397.652 327.02 397.119 327.02C396.585 327.02 396.085 327.16 395.619 327.44C395.165 327.72 394.799 328.12 394.519 328.64C394.239 329.147 394.099 329.733 394.099 330.4C394.099 331.067 394.239 331.66 394.519 332.18C394.799 332.7 395.165 333.1 395.619 333.38C396.085 333.66 396.585 333.8 397.119 333.8ZM409.022 335.82C408.022 335.82 407.122 335.587 406.322 335.12C405.535 334.653 404.915 334.013 404.462 333.2C404.022 332.373 403.802 331.447 403.802 330.42C403.802 329.447 404.015 328.547 404.442 327.72C404.882 326.88 405.489 326.213 406.262 325.72C407.035 325.227 407.915 324.98 408.902 324.98C409.929 324.98 410.815 325.207 411.562 325.66C412.322 326.113 412.895 326.733 413.282 327.52C413.682 328.307 413.882 329.193 413.882 330.18C413.882 330.367 413.862 330.6 413.822 330.88H406.002C406.082 331.827 406.415 332.56 407.002 333.08C407.602 333.587 408.295 333.84 409.082 333.84C409.709 333.84 410.249 333.7 410.702 333.42C411.169 333.127 411.542 332.733 411.822 332.24L413.682 333.12C413.202 333.96 412.575 334.62 411.802 335.1C411.029 335.58 410.102 335.82 409.022 335.82ZM411.642 329.2C411.615 328.84 411.502 328.487 411.302 328.14C411.102 327.78 410.795 327.48 410.382 327.24C409.982 327 409.489 326.88 408.902 326.88C408.195 326.88 407.595 327.093 407.102 327.52C406.622 327.933 406.289 328.493 406.102 329.2H411.642ZM420.343 335.82C419.423 335.82 418.59 335.587 417.843 335.12C417.096 334.653 416.503 334.013 416.063 333.2C415.636 332.373 415.423 331.44 415.423 330.4C415.423 329.36 415.636 328.433 416.063 327.62C416.503 326.793 417.096 326.147 417.843 325.68C418.59 325.213 419.423 324.98 420.343 324.98C421.063 324.98 421.71 325.14 422.283 325.46C422.856 325.78 423.29 326.173 423.583 326.64H423.683L423.583 325.2V321.18H425.783V335.5H423.683V334.18H423.583C423.29 334.633 422.856 335.02 422.283 335.34C421.71 335.66 421.063 335.82 420.343 335.82ZM420.663 333.8C421.196 333.8 421.69 333.66 422.143 333.38C422.61 333.1 422.983 332.7 423.263 332.18C423.543 331.66 423.683 331.067 423.683 330.4C423.683 329.733 423.543 329.147 423.263 328.64C422.983 328.12 422.61 327.72 422.143 327.44C421.69 327.16 421.196 327.02 420.663 327.02C420.13 327.02 419.63 327.16 419.163 327.44C418.696 327.72 418.323 328.12 418.043 328.64C417.763 329.147 417.623 329.733 417.623 330.4C417.623 331.067 417.763 331.66 418.043 332.18C418.323 332.7 418.696 333.1 419.163 333.38C419.63 333.66 420.13 333.8 420.663 333.8ZM432.609 335.82C431.689 335.82 430.855 335.587 430.109 335.12C429.362 334.653 428.769 334.013 428.329 333.2C427.902 332.373 427.689 331.44 427.689 330.4C427.689 329.36 427.902 328.433 428.329 327.62C428.769 326.793 429.362 326.147 430.109 325.68C430.855 325.213 431.689 324.98 432.609 324.98C433.329 324.98 433.975 325.14 434.549 325.46C435.122 325.78 435.555 326.173 435.849 326.64H435.949L435.849 325.2V321.18H438.049V335.5H435.949V334.18H435.849C435.555 334.633 435.122 335.02 434.549 335.34C433.975 335.66 433.329 335.82 432.609 335.82ZM432.929 333.8C433.462 333.8 433.955 333.66 434.409 333.38C434.875 333.1 435.249 332.7 435.529 332.18C435.809 331.66 435.949 331.067 435.949 330.4C435.949 329.733 435.809 329.147 435.529 328.64C435.249 328.12 434.875 327.72 434.409 327.44C433.955 327.16 433.462 327.02 432.929 327.02C432.395 327.02 431.895 327.16 431.429 327.44C430.962 327.72 430.589 328.12 430.309 328.64C430.029 329.147 429.889 329.733 429.889 330.4C429.889 331.067 430.029 331.66 430.309 332.18C430.589 332.7 430.962 333.1 431.429 333.38C431.895 333.66 432.395 333.8 432.929 333.8ZM441.872 323.82C441.459 323.82 441.105 323.68 440.812 323.4C440.532 323.107 440.392 322.753 440.392 322.34C440.392 321.927 440.532 321.58 440.812 321.3C441.105 321.007 441.459 320.86 441.872 320.86C442.285 320.86 442.632 321.007 442.912 321.3C443.205 321.58 443.352 321.927 443.352 322.34C443.352 322.753 443.205 323.107 442.912 323.4C442.632 323.68 442.285 323.82 441.872 323.82ZM440.772 325.3H442.972V335.5H440.772V325.3ZM445.71 325.3H447.81V326.64H447.91C448.203 326.16 448.636 325.767 449.21 325.46C449.796 325.14 450.416 324.98 451.07 324.98C452.31 324.98 453.25 325.347 453.89 326.08C454.543 326.8 454.87 327.787 454.87 329.04V335.5H452.67V329.34C452.67 328.54 452.47 327.953 452.07 327.58C451.683 327.207 451.143 327.02 450.45 327.02C449.956 327.02 449.516 327.16 449.13 327.44C448.743 327.707 448.443 328.067 448.23 328.52C448.016 328.973 447.91 329.46 447.91 329.98V335.5H445.71V325.3ZM461.853 340.14C460.599 340.14 459.559 339.853 458.733 339.28C457.919 338.707 457.373 338.027 457.093 337.24L459.153 336.38C459.366 336.913 459.706 337.34 460.173 337.66C460.653 337.993 461.213 338.16 461.853 338.16C462.786 338.16 463.513 337.88 464.033 337.32C464.566 336.773 464.833 336 464.833 335V334.06H464.713C464.379 334.54 463.933 334.92 463.373 335.2C462.826 335.467 462.193 335.6 461.473 335.6C460.619 335.6 459.826 335.38 459.093 334.94C458.359 334.5 457.773 333.88 457.333 333.08C456.906 332.267 456.693 331.34 456.693 330.3C456.693 329.26 456.906 328.34 457.333 327.54C457.773 326.727 458.359 326.1 459.093 325.66C459.826 325.207 460.619 324.98 461.473 324.98C462.179 324.98 462.813 325.12 463.373 325.4C463.933 325.68 464.379 326.06 464.713 326.54H464.833V325.3H466.933V334.94C466.933 336.047 466.719 336.987 466.293 337.76C465.866 338.547 465.266 339.14 464.493 339.54C463.733 339.94 462.853 340.14 461.853 340.14ZM461.873 333.6C462.406 333.6 462.899 333.473 463.353 333.22C463.806 332.953 464.166 332.573 464.433 332.08C464.699 331.573 464.833 330.98 464.833 330.3C464.833 329.26 464.546 328.453 463.973 327.88C463.413 327.293 462.713 327 461.873 327C461.326 327 460.826 327.133 460.373 327.4C459.919 327.653 459.559 328.027 459.293 328.52C459.026 329.013 458.893 329.607 458.893 330.3C458.893 330.993 459.026 331.587 459.293 332.08C459.559 332.573 459.919 332.953 460.373 333.22C460.826 333.473 461.326 333.6 461.873 333.6ZM473.141 335.82C471.967 335.82 471.007 335.567 470.261 335.06C469.514 334.54 468.987 333.88 468.681 333.08L470.641 332.22C470.881 332.753 471.214 333.16 471.641 333.44C472.081 333.72 472.581 333.86 473.141 333.86C473.687 333.86 474.147 333.767 474.521 333.58C474.894 333.38 475.081 333.087 475.081 332.7C475.081 332.327 474.921 332.033 474.601 331.82C474.281 331.607 473.787 331.42 473.121 331.26L471.901 330.96C471.087 330.76 470.414 330.407 469.881 329.9C469.347 329.393 469.081 328.753 469.081 327.98C469.081 327.38 469.254 326.853 469.601 326.4C469.961 325.947 470.441 325.6 471.041 325.36C471.641 325.107 472.294 324.98 473.001 324.98C473.947 324.98 474.781 325.173 475.501 325.56C476.221 325.933 476.741 326.48 477.061 327.2L475.141 328.04C474.754 327.253 474.047 326.86 473.021 326.86C472.527 326.86 472.114 326.96 471.781 327.16C471.447 327.36 471.281 327.62 471.281 327.94C471.281 328.247 471.407 328.5 471.661 328.7C471.914 328.887 472.287 329.047 472.781 329.18L474.281 329.56C475.281 329.813 476.034 330.2 476.541 330.72C477.061 331.227 477.321 331.853 477.321 332.6C477.321 333.24 477.134 333.807 476.761 334.3C476.401 334.78 475.901 335.153 475.261 335.42C474.621 335.687 473.914 335.82 473.141 335.82Z" fill="black"/>
<rect x="605" y="63" width="152" height="245" rx="19" stroke="#399FFF" stroke-width="2"/>
<path d="M628.001 146.82H624.001V144.68H634.241V146.82H630.241V159H628.001V146.82ZM634.858 148.8H636.958V150.3H637.058C637.285 149.78 637.678 149.353 638.238 149.02C638.798 148.673 639.391 148.5 640.018 148.5C640.511 148.5 640.925 148.567 641.258 148.7V150.98C640.671 150.767 640.145 150.66 639.678 150.66C639.171 150.66 638.718 150.793 638.318 151.06C637.931 151.327 637.625 151.687 637.398 152.14C637.171 152.58 637.058 153.067 637.058 153.6V159H634.858V148.8ZM645.793 159.32C645.059 159.32 644.406 159.18 643.833 158.9C643.259 158.607 642.813 158.2 642.493 157.68C642.173 157.147 642.013 156.547 642.013 155.88C642.013 154.827 642.406 153.993 643.193 153.38C643.993 152.767 644.999 152.46 646.213 152.46C646.813 152.46 647.353 152.52 647.833 152.64C648.313 152.747 648.693 152.867 648.973 153V152.48C648.973 151.853 648.739 151.347 648.273 150.96C647.806 150.56 647.206 150.36 646.473 150.36C645.953 150.36 645.459 150.473 644.993 150.7C644.539 150.927 644.173 151.24 643.893 151.64L642.353 150.46C642.806 149.833 643.393 149.347 644.113 149C644.833 148.653 645.633 148.48 646.513 148.48C647.993 148.48 649.133 148.847 649.933 149.58C650.733 150.3 651.133 151.32 651.133 152.64V159H648.973V157.78H648.873C648.579 158.22 648.166 158.587 647.633 158.88C647.099 159.173 646.486 159.32 645.793 159.32ZM646.173 157.5C646.706 157.5 647.186 157.373 647.613 157.12C648.039 156.867 648.373 156.527 648.613 156.1C648.853 155.673 648.973 155.213 648.973 154.72C648.666 154.547 648.306 154.407 647.893 154.3C647.493 154.193 647.073 154.14 646.633 154.14C645.806 154.14 645.199 154.307 644.813 154.64C644.426 154.96 644.233 155.38 644.233 155.9C644.233 156.367 644.413 156.753 644.773 157.06C645.133 157.353 645.599 157.5 646.173 157.5ZM653.53 148.8H655.63V150.14H655.73C656.023 149.66 656.457 149.267 657.03 148.96C657.617 148.64 658.237 148.48 658.89 148.48C660.13 148.48 661.07 148.847 661.71 149.58C662.363 150.3 662.69 151.287 662.69 152.54V159H660.49V152.84C660.49 152.04 660.29 151.453 659.89 151.08C659.503 150.707 658.963 150.52 658.27 150.52C657.777 150.52 657.337 150.66 656.95 150.94C656.563 151.207 656.263 151.567 656.05 152.02C655.837 152.473 655.73 152.96 655.73 153.48V159H653.53V148.8ZM668.793 159.32C667.62 159.32 666.66 159.067 665.913 158.56C665.166 158.04 664.64 157.38 664.333 156.58L666.293 155.72C666.533 156.253 666.866 156.66 667.293 156.94C667.733 157.22 668.233 157.36 668.793 157.36C669.34 157.36 669.8 157.267 670.173 157.08C670.546 156.88 670.733 156.587 670.733 156.2C670.733 155.827 670.573 155.533 670.253 155.32C669.933 155.107 669.44 154.92 668.773 154.76L667.553 154.46C666.74 154.26 666.066 153.907 665.533 153.4C665 152.893 664.733 152.253 664.733 151.48C664.733 150.88 664.906 150.353 665.253 149.9C665.613 149.447 666.093 149.1 666.693 148.86C667.293 148.607 667.946 148.48 668.653 148.48C669.6 148.48 670.433 148.673 671.153 149.06C671.873 149.433 672.393 149.98 672.713 150.7L670.793 151.54C670.406 150.753 669.7 150.36 668.673 150.36C668.18 150.36 667.766 150.46 667.433 150.66C667.1 150.86 666.933 151.12 666.933 151.44C666.933 151.747 667.06 152 667.313 152.2C667.566 152.387 667.94 152.547 668.433 152.68L669.933 153.06C670.933 153.313 671.686 153.7 672.193 154.22C672.713 154.727 672.973 155.353 672.973 156.1C672.973 156.74 672.786 157.307 672.413 157.8C672.053 158.28 671.553 158.653 670.913 158.92C670.273 159.187 669.566 159.32 668.793 159.32ZM676.018 150.74H674.158V148.8H676.018V148C676.018 146.933 676.351 146.087 677.018 145.46C677.684 144.833 678.538 144.52 679.578 144.52C680.178 144.52 680.698 144.593 681.138 144.74V146.9C680.898 146.807 680.671 146.733 680.458 146.68C680.258 146.613 680.024 146.58 679.758 146.58C679.318 146.58 678.951 146.72 678.658 147C678.364 147.28 678.218 147.667 678.218 148.16V148.8H680.778V150.74H678.218V159H676.018V150.74ZM687.021 159.32C685.994 159.32 685.074 159.087 684.261 158.62C683.448 158.14 682.814 157.487 682.361 156.66C681.908 155.833 681.681 154.913 681.681 153.9C681.681 152.887 681.908 151.967 682.361 151.14C682.814 150.313 683.448 149.667 684.261 149.2C685.074 148.72 685.994 148.48 687.021 148.48C688.048 148.48 688.968 148.72 689.781 149.2C690.594 149.68 691.228 150.333 691.681 151.16C692.134 151.987 692.361 152.9 692.361 153.9C692.361 154.913 692.134 155.833 691.681 156.66C691.228 157.487 690.594 158.14 689.781 158.62C688.968 159.087 688.048 159.32 687.021 159.32ZM687.021 157.3C687.581 157.3 688.101 157.167 688.581 156.9C689.061 156.62 689.441 156.227 689.721 155.72C690.014 155.2 690.161 154.593 690.161 153.9C690.161 153.207 690.014 152.607 689.721 152.1C689.441 151.593 689.061 151.207 688.581 150.94C688.101 150.66 687.581 150.52 687.021 150.52C686.461 150.52 685.941 150.66 685.461 150.94C684.981 151.207 684.594 151.593 684.301 152.1C684.021 152.607 683.881 153.207 683.881 153.9C683.881 154.593 684.021 155.2 684.301 155.72C684.594 156.227 684.981 156.62 685.461 156.9C685.941 157.167 686.461 157.3 687.021 157.3ZM694.194 148.8H696.294V150.3H696.394C696.621 149.78 697.014 149.353 697.574 149.02C698.134 148.673 698.727 148.5 699.354 148.5C699.847 148.5 700.261 148.567 700.594 148.7V150.98C700.007 150.767 699.481 150.66 699.014 150.66C698.507 150.66 698.054 150.793 697.654 151.06C697.267 151.327 696.961 151.687 696.734 152.14C696.507 152.58 696.394 153.067 696.394 153.6V159H694.194V148.8ZM702.28 148.8H704.38V150.14H704.48C704.787 149.647 705.22 149.247 705.78 148.94C706.34 148.633 706.94 148.48 707.58 148.48C708.313 148.48 708.953 148.653 709.5 149C710.047 149.333 710.44 149.78 710.68 150.34C711.027 149.78 711.487 149.333 712.06 149C712.647 148.653 713.333 148.48 714.12 148.48C715.293 148.48 716.18 148.84 716.78 149.56C717.393 150.267 717.7 151.233 717.7 152.46V159H715.5V152.84C715.5 151.293 714.84 150.52 713.52 150.52C712.813 150.52 712.233 150.807 711.78 151.38C711.327 151.953 711.1 152.66 711.1 153.5V159H708.9V152.84C708.9 151.293 708.22 150.52 706.86 150.52C706.167 150.52 705.593 150.807 705.14 151.38C704.7 151.953 704.48 152.66 704.48 153.5V159H702.28V148.8ZM724.87 159.32C723.87 159.32 722.97 159.087 722.17 158.62C721.383 158.153 720.763 157.513 720.31 156.7C719.87 155.873 719.65 154.947 719.65 153.92C719.65 152.947 719.863 152.047 720.29 151.22C720.73 150.38 721.336 149.713 722.11 149.22C722.883 148.727 723.763 148.48 724.75 148.48C725.776 148.48 726.663 148.707 727.41 149.16C728.17 149.613 728.743 150.233 729.13 151.02C729.53 151.807 729.73 152.693 729.73 153.68C729.73 153.867 729.71 154.1 729.67 154.38H721.85C721.93 155.327 722.263 156.06 722.85 156.58C723.45 157.087 724.143 157.34 724.93 157.34C725.556 157.34 726.096 157.2 726.55 156.92C727.016 156.627 727.39 156.233 727.67 155.74L729.53 156.62C729.05 157.46 728.423 158.12 727.65 158.6C726.876 159.08 725.95 159.32 724.87 159.32ZM727.49 152.7C727.463 152.34 727.35 151.987 727.15 151.64C726.95 151.28 726.643 150.98 726.23 150.74C725.83 150.5 725.336 150.38 724.75 150.38C724.043 150.38 723.443 150.593 722.95 151.02C722.47 151.433 722.136 151.993 721.95 152.7H727.49ZM731.733 148.8H733.833V150.3H733.933C734.16 149.78 734.553 149.353 735.113 149.02C735.673 148.673 736.266 148.5 736.893 148.5C737.386 148.5 737.8 148.567 738.133 148.7V150.98C737.546 150.767 737.02 150.66 736.553 150.66C736.046 150.66 735.593 150.793 735.193 151.06C734.806 151.327 734.5 151.687 734.273 152.14C734.046 152.58 733.933 153.067 733.933 153.6V159H731.733V148.8Z" fill="black"/>
<rect x="618.5" y="173.5" width="125" height="24" stroke="#399FFF"/>
<path d="M652.88 179.26H654.8L658.835 190H656.975L656.015 187.255H651.68L650.705 190H648.845L652.88 179.26ZM655.445 185.695L654.305 182.5L653.885 181.255H653.795L653.375 182.5L652.235 185.695H655.445ZM662.632 190.12C662.292 190.12 661.972 190.065 661.672 189.955C661.372 189.845 661.127 189.7 660.937 189.52C660.507 189.09 660.292 188.505 660.292 187.765V183.805H658.957V182.35H660.292V180.19H661.942V182.35H665.167V180.19H666.817V182.35H668.677V183.805H666.817V187.405C666.817 187.815 666.897 188.105 667.057 188.275C667.207 188.475 667.467 188.575 667.837 188.575C668.007 188.575 668.157 188.555 668.287 188.515C668.417 188.465 668.557 188.39 668.707 188.29V189.895C668.367 190.045 667.967 190.12 667.507 190.12C667.167 190.12 666.847 190.065 666.547 189.955C666.247 189.845 666.002 189.7 665.812 189.52C665.382 189.09 665.167 188.505 665.167 187.765V183.805H661.942V187.405C661.942 187.815 662.022 188.105 662.182 188.275C662.332 188.475 662.587 188.575 662.947 188.575C663.207 188.575 663.472 188.49 663.742 188.32V189.925C663.582 189.995 663.417 190.045 663.247 190.075C663.087 190.105 662.882 190.12 662.632 190.12ZM673.451 190.24C672.701 190.24 672.026 190.065 671.426 189.715C670.836 189.365 670.371 188.885 670.031 188.275C669.701 187.655 669.536 186.96 669.536 186.19C669.536 185.46 669.696 184.785 670.016 184.165C670.346 183.535 670.801 183.035 671.381 182.665C671.961 182.295 672.621 182.11 673.361 182.11C674.131 182.11 674.796 182.28 675.356 182.62C675.926 182.96 676.356 183.425 676.646 184.015C676.946 184.605 677.096 185.27 677.096 186.01C677.096 186.15 677.081 186.325 677.051 186.535H671.186C671.246 187.245 671.496 187.795 671.936 188.185C672.386 188.565 672.906 188.755 673.496 188.755C673.966 188.755 674.371 188.65 674.711 188.44C675.061 188.22 675.341 187.925 675.551 187.555L676.946 188.215C676.586 188.845 676.116 189.34 675.536 189.7C674.956 190.06 674.261 190.24 673.451 190.24ZM675.416 185.275C675.396 185.005 675.311 184.74 675.161 184.48C675.011 184.21 674.781 183.985 674.471 183.805C674.171 183.625 673.801 183.535 673.361 183.535C672.831 183.535 672.381 183.695 672.011 184.015C671.651 184.325 671.401 184.745 671.261 185.275H675.416ZM678.598 182.35H680.173V183.355H680.248C680.468 182.995 680.793 182.7 681.223 182.47C681.663 182.23 682.128 182.11 682.618 182.11C683.548 182.11 684.253 182.385 684.733 182.935C685.223 183.475 685.468 184.215 685.468 185.155V190H683.818V185.38C683.818 184.78 683.668 184.34 683.368 184.06C683.078 183.78 682.673 183.64 682.153 183.64C681.783 183.64 681.453 183.745 681.163 183.955C680.873 184.155 680.648 184.425 680.488 184.765C680.328 185.105 680.248 185.47 680.248 185.86V190H678.598V182.35ZM690.083 190.12C689.743 190.12 689.423 190.065 689.123 189.955C688.823 189.845 688.578 189.7 688.388 189.52C687.958 189.09 687.743 188.505 687.743 187.765V183.805H686.408V182.35H687.743V180.19H689.393V182.35H691.253V183.805H689.393V187.405C689.393 187.815 689.473 188.105 689.633 188.275C689.783 188.475 690.043 188.575 690.413 188.575C690.583 188.575 690.733 188.555 690.863 188.515C690.993 188.465 691.133 188.39 691.283 188.29V189.895C690.953 190.045 690.553 190.12 690.083 190.12ZM693.84 181.24C693.53 181.24 693.265 181.135 693.045 180.925C692.835 180.705 692.73 180.44 692.73 180.13C692.73 179.82 692.835 179.56 693.045 179.35C693.265 179.13 693.53 179.02 693.84 179.02C694.15 179.02 694.41 179.13 694.62 179.35C694.84 179.56 694.95 179.82 694.95 180.13C694.95 180.44 694.84 180.705 694.62 180.925C694.41 181.135 694.15 181.24 693.84 181.24ZM693.015 182.35H694.665V190H693.015V182.35ZM700.23 190.24C699.46 190.24 698.77 190.065 698.16 189.715C697.55 189.355 697.075 188.865 696.735 188.245C696.395 187.625 696.225 186.935 696.225 186.175C696.225 185.415 696.395 184.725 696.735 184.105C697.075 183.485 697.55 183 698.16 182.65C698.77 182.29 699.46 182.11 700.23 182.11C701 182.11 701.69 182.29 702.3 182.65C702.91 183.01 703.385 183.5 703.725 184.12C704.065 184.74 704.235 185.425 704.235 186.175C704.235 186.935 704.065 187.625 703.725 188.245C703.385 188.865 702.91 189.355 702.3 189.715C701.69 190.065 701 190.24 700.23 190.24ZM700.23 188.725C700.65 188.725 701.04 188.625 701.4 188.425C701.76 188.215 702.045 187.92 702.255 187.54C702.475 187.15 702.585 186.695 702.585 186.175C702.585 185.655 702.475 185.205 702.255 184.825C702.045 184.445 701.76 184.155 701.4 183.955C701.04 183.745 700.65 183.64 700.23 183.64C699.81 183.64 699.42 183.745 699.06 183.955C698.7 184.155 698.41 184.445 698.19 184.825C697.98 185.205 697.875 185.655 697.875 186.175C697.875 186.695 697.98 187.15 698.19 187.54C698.41 187.92 698.7 188.215 699.06 188.425C699.42 188.625 699.81 188.725 700.23 188.725ZM705.61 182.35H707.185V183.355H707.26C707.48 182.995 707.805 182.7 708.235 182.47C708.675 182.23 709.14 182.11 709.63 182.11C710.56 182.11 711.265 182.385 711.745 182.935C712.235 183.475 712.48 184.215 712.48 185.155V190H710.83V185.38C710.83 184.78 710.68 184.34 710.38 184.06C710.09 183.78 709.685 183.64 709.165 183.64C708.795 183.64 708.465 183.745 708.175 183.955C707.885 184.155 707.66 184.425 707.5 184.765C707.34 185.105 707.26 185.47 707.26 185.86V190H705.61V182.35Z" fill="black"/>
<rect x="618.5" y="210.5" width="125" height="24" stroke="#399FFF"/>
<path d="M637.054 216.26H643.579V217.865H638.734V220.955H643.099V222.545H638.734V227H637.054V216.26ZM648.131 227.24C647.381 227.24 646.706 227.065 646.106 226.715C645.516 226.365 645.051 225.885 644.711 225.275C644.381 224.655 644.216 223.96 644.216 223.19C644.216 222.46 644.376 221.785 644.696 221.165C645.026 220.535 645.481 220.035 646.061 219.665C646.641 219.295 647.301 219.11 648.041 219.11C648.811 219.11 649.476 219.28 650.036 219.62C650.606 219.96 651.036 220.425 651.326 221.015C651.626 221.605 651.776 222.27 651.776 223.01C651.776 223.15 651.761 223.325 651.731 223.535H645.866C645.926 224.245 646.176 224.795 646.616 225.185C647.066 225.565 647.586 225.755 648.176 225.755C648.646 225.755 649.051 225.65 649.391 225.44C649.741 225.22 650.021 224.925 650.231 224.555L651.626 225.215C651.266 225.845 650.796 226.34 650.216 226.7C649.636 227.06 648.941 227.24 648.131 227.24ZM650.096 222.275C650.076 222.005 649.991 221.74 649.841 221.48C649.691 221.21 649.461 220.985 649.151 220.805C648.851 220.625 648.481 220.535 648.041 220.535C647.511 220.535 647.061 220.695 646.691 221.015C646.331 221.325 646.081 221.745 645.941 222.275H650.096ZM656.847 227.24C656.097 227.24 655.422 227.065 654.822 226.715C654.232 226.365 653.767 225.885 653.427 225.275C653.097 224.655 652.932 223.96 652.932 223.19C652.932 222.46 653.092 221.785 653.412 221.165C653.742 220.535 654.197 220.035 654.777 219.665C655.357 219.295 656.017 219.11 656.757 219.11C657.527 219.11 658.192 219.28 658.752 219.62C659.322 219.96 659.752 220.425 660.042 221.015C660.342 221.605 660.492 222.27 660.492 223.01C660.492 223.15 660.477 223.325 660.447 223.535H654.582C654.642 224.245 654.892 224.795 655.332 225.185C655.782 225.565 656.302 225.755 656.892 225.755C657.362 225.755 657.767 225.65 658.107 225.44C658.457 225.22 658.737 224.925 658.947 224.555L660.342 225.215C659.982 225.845 659.512 226.34 658.932 226.7C658.352 227.06 657.657 227.24 656.847 227.24ZM658.812 222.275C658.792 222.005 658.707 221.74 658.557 221.48C658.407 221.21 658.177 220.985 657.867 220.805C657.567 220.625 657.197 220.535 656.757 220.535C656.227 220.535 655.777 220.695 655.407 221.015C655.047 221.325 654.797 221.745 654.657 222.275H658.812ZM665.337 227.24C664.647 227.24 664.022 227.065 663.462 226.715C662.902 226.365 662.457 225.885 662.127 225.275C661.807 224.655 661.647 223.955 661.647 223.175C661.647 222.395 661.807 221.7 662.127 221.09C662.457 220.47 662.902 219.985 663.462 219.635C664.022 219.285 664.647 219.11 665.337 219.11C665.877 219.11 666.362 219.23 666.792 219.47C667.222 219.71 667.547 220.005 667.767 220.355H667.842L667.767 219.275V216.26H669.417V227H667.842V226.01H667.767C667.547 226.35 667.222 226.64 666.792 226.88C666.362 227.12 665.877 227.24 665.337 227.24ZM665.577 225.725C665.977 225.725 666.347 225.62 666.687 225.41C667.037 225.2 667.317 224.9 667.527 224.51C667.737 224.12 667.842 223.675 667.842 223.175C667.842 222.675 667.737 222.235 667.527 221.855C667.317 221.465 667.037 221.165 666.687 220.955C666.347 220.745 665.977 220.64 665.577 220.64C665.177 220.64 664.802 220.745 664.452 220.955C664.102 221.165 663.822 221.465 663.612 221.855C663.402 222.235 663.297 222.675 663.297 223.175C663.297 223.675 663.402 224.12 663.612 224.51C663.822 224.9 664.102 225.2 664.452 225.41C664.802 225.62 665.177 225.725 665.577 225.725ZM672.268 220.805H670.873V219.35H672.268V218.75C672.268 217.95 672.518 217.315 673.018 216.845C673.518 216.375 674.158 216.14 674.938 216.14C675.388 216.14 675.778 216.195 676.108 216.305V217.925C675.928 217.855 675.758 217.8 675.598 217.76C675.448 217.71 675.273 217.685 675.073 217.685C674.743 217.685 674.468 217.79 674.248 218C674.028 218.21 673.918 218.5 673.918 218.87V219.35H675.838V220.805H673.918V227H672.268V220.805ZM680.521 227.24C679.751 227.24 679.061 227.065 678.451 226.715C677.841 226.355 677.366 225.865 677.026 225.245C676.686 224.625 676.516 223.935 676.516 223.175C676.516 222.415 676.686 221.725 677.026 221.105C677.366 220.485 677.841 220 678.451 219.65C679.061 219.29 679.751 219.11 680.521 219.11C681.291 219.11 681.981 219.29 682.591 219.65C683.201 220.01 683.676 220.5 684.016 221.12C684.356 221.74 684.526 222.425 684.526 223.175C684.526 223.935 684.356 224.625 684.016 225.245C683.676 225.865 683.201 226.355 682.591 226.715C681.981 227.065 681.291 227.24 680.521 227.24ZM680.521 225.725C680.941 225.725 681.331 225.625 681.691 225.425C682.051 225.215 682.336 224.92 682.546 224.54C682.766 224.15 682.876 223.695 682.876 223.175C682.876 222.655 682.766 222.205 682.546 221.825C682.336 221.445 682.051 221.155 681.691 220.955C681.331 220.745 680.941 220.64 680.521 220.64C680.101 220.64 679.711 220.745 679.351 220.955C678.991 221.155 678.701 221.445 678.481 221.825C678.271 222.205 678.166 222.655 678.166 223.175C678.166 223.695 678.271 224.15 678.481 224.54C678.701 224.92 678.991 225.215 679.351 225.425C679.711 225.625 680.101 225.725 680.521 225.725ZM685.9 219.35H687.475V220.475H687.55C687.72 220.085 688.015 219.765 688.435 219.515C688.855 219.255 689.3 219.125 689.77 219.125C690.14 219.125 690.45 219.175 690.7 219.275V220.985C690.26 220.825 689.865 220.745 689.515 220.745C689.135 220.745 688.795 220.845 688.495 221.045C688.205 221.245 687.975 221.515 687.805 221.855C687.635 222.185 687.55 222.55 687.55 222.95V227H685.9V219.35ZM691.256 219.35H693.041L694.586 224.825H694.646L696.371 219.35H698.066L699.776 224.825H699.836L701.381 219.35H703.136L700.691 227H698.951L697.196 221.51H697.151L695.411 227H693.701L691.256 219.35ZM706.45 227.24C705.9 227.24 705.41 227.135 704.98 226.925C704.55 226.705 704.215 226.4 703.975 226.01C703.735 225.61 703.615 225.16 703.615 224.66C703.615 223.87 703.91 223.245 704.5 222.785C705.1 222.325 705.855 222.095 706.765 222.095C707.215 222.095 707.62 222.14 707.98 222.23C708.34 222.31 708.625 222.4 708.835 222.5V222.11C708.835 221.64 708.66 221.26 708.31 220.97C707.96 220.67 707.51 220.52 706.96 220.52C706.57 220.52 706.2 220.605 705.85 220.775C705.51 220.945 705.235 221.18 705.025 221.48L703.87 220.595C704.21 220.125 704.65 219.76 705.19 219.5C705.73 219.24 706.33 219.11 706.99 219.11C708.1 219.11 708.955 219.385 709.555 219.935C710.155 220.475 710.455 221.24 710.455 222.23V227H708.835V226.085H708.76C708.54 226.415 708.23 226.69 707.83 226.91C707.43 227.13 706.97 227.24 706.45 227.24ZM706.735 225.875C707.135 225.875 707.495 225.78 707.815 225.59C708.135 225.4 708.385 225.145 708.565 224.825C708.745 224.505 708.835 224.16 708.835 223.79C708.605 223.66 708.335 223.555 708.025 223.475C707.725 223.395 707.41 223.355 707.08 223.355C706.46 223.355 706.005 223.48 705.715 223.73C705.425 223.97 705.28 224.285 705.28 224.675C705.28 225.025 705.415 225.315 705.685 225.545C705.955 225.765 706.305 225.875 706.735 225.875ZM712.253 219.35H713.828V220.475H713.903C714.073 220.085 714.368 219.765 714.788 219.515C715.208 219.255 715.653 219.125 716.123 219.125C716.493 219.125 716.803 219.175 717.053 219.275V220.985C716.613 220.825 716.218 220.745 715.868 220.745C715.488 220.745 715.148 220.845 714.848 221.045C714.558 221.245 714.328 221.515 714.158 221.855C713.988 222.185 713.903 222.55 713.903 222.95V227H712.253V219.35ZM721.133 227.24C720.443 227.24 719.818 227.065 719.258 226.715C718.698 226.365 718.253 225.885 717.923 225.275C717.603 224.655 717.443 223.955 717.443 223.175C717.443 222.395 717.603 221.7 717.923 221.09C718.253 220.47 718.698 219.985 719.258 219.635C719.818 219.285 720.443 219.11 721.133 219.11C721.673 219.11 722.158 219.23 722.588 219.47C723.018 219.71 723.343 220.005 723.563 220.355H723.638L723.563 219.275V216.26H725.213V227H723.638V226.01H723.563C723.343 226.35 723.018 226.64 722.588 226.88C722.158 227.12 721.673 227.24 721.133 227.24ZM721.373 225.725C721.773 225.725 722.143 225.62 722.483 225.41C722.833 225.2 723.113 224.9 723.323 224.51C723.533 224.12 723.638 223.675 723.638 223.175C723.638 222.675 723.533 222.235 723.323 221.855C723.113 221.465 722.833 221.165 722.483 220.955C722.143 220.745 721.773 220.64 721.373 220.64C720.973 220.64 720.598 220.745 720.248 220.955C719.898 221.165 719.618 221.465 719.408 221.855C719.198 222.235 719.093 222.675 719.093 223.175C719.093 223.675 719.198 224.12 719.408 224.51C719.618 224.9 719.898 225.2 720.248 225.41C720.598 225.62 720.973 225.725 721.373 225.725Z" fill="black"/>
<path d="M420 258L425.774 248H414.226L420 258ZM420 208H419V249H420H421V208H420Z" fill="black"/>
<path d="M834 140L824 134.226V145.774L834 140ZM758 140V141H825V140V139H758V140Z" fill="black"/>
<path d="M343 137L332.946 131.32L333.054 142.867L343 137ZM236 138L236.009 139L334.01 138.084L334 137.084L333.991 136.084L235.991 137L236 138Z" fill="black"/>
<path d="M604 137L592.79 134.231L595.997 145.324L604 137ZM498 333L498.256 333.967C511.875 330.359 522.115 317.535 530.484 300.415C538.874 283.25 545.518 261.481 551.793 239.549C558.078 217.578 563.992 195.449 570.932 177.42C574.401 168.411 578.11 160.467 582.226 154.107C586.345 147.74 590.829 143.025 595.82 140.384L595.352 139.5L594.884 138.617C589.475 141.48 584.763 146.504 580.547 153.02C576.326 159.543 572.559 167.628 569.066 176.701C562.084 194.838 556.137 217.091 549.87 238.999C543.591 260.946 536.989 282.552 528.687 299.536C520.363 316.565 510.464 328.664 497.744 332.033L498 333Z" fill="black"/>
</svg>
