<svg width="1187" height="678" viewBox="0 0 1187 678" fill="none" xmlns="http://www.w3.org/2000/svg">
<rect width="1187" height="678" fill="white"/>
<rect x="375" y="150" width="167" height="128" rx="19" stroke="#F89B32" stroke-width="2"/>
<path d="M418.04 208.32H414.04V206.18H424.28V208.32H420.28V220.5H418.04V208.32ZM429.267 220.82C428.24 220.82 427.32 220.587 426.507 220.12C425.694 219.64 425.06 218.987 424.607 218.16C424.154 217.333 423.927 216.413 423.927 215.4C423.927 214.387 424.154 213.467 424.607 212.64C425.06 211.813 425.694 211.167 426.507 210.7C427.32 210.22 428.24 209.98 429.267 209.98C430.294 209.98 431.214 210.22 432.027 210.7C432.84 211.18 433.474 211.833 433.927 212.66C434.38 213.487 434.607 214.4 434.607 215.4C434.607 216.413 434.38 217.333 433.927 218.16C433.474 218.987 432.84 219.64 432.027 220.12C431.214 220.587 430.294 220.82 429.267 220.82ZM429.267 218.8C429.827 218.8 430.347 218.667 430.827 218.4C431.307 218.12 431.687 217.727 431.967 217.22C432.26 216.7 432.407 216.093 432.407 215.4C432.407 214.707 432.26 214.107 431.967 213.6C431.687 213.093 431.307 212.707 430.827 212.44C430.347 212.16 429.827 212.02 429.267 212.02C428.707 212.02 428.187 212.16 427.707 212.44C427.227 212.707 426.84 213.093 426.547 213.6C426.267 214.107 426.127 214.707 426.127 215.4C426.127 216.093 426.267 216.7 426.547 217.22C426.84 217.727 427.227 218.12 427.707 218.4C428.187 218.667 428.707 218.8 429.267 218.8ZM436.538 206.18H438.738V214.52H438.798L442.978 210.3H445.738V210.42L441.778 214.36L445.858 220.38V220.5H443.238L440.238 215.88L438.738 217.34V220.5H436.538V206.18ZM451.588 220.82C450.588 220.82 449.688 220.587 448.888 220.12C448.102 219.653 447.482 219.013 447.028 218.2C446.588 217.373 446.368 216.447 446.368 215.42C446.368 214.447 446.582 213.547 447.008 212.72C447.448 211.88 448.055 211.213 448.828 210.72C449.602 210.227 450.482 209.98 451.468 209.98C452.495 209.98 453.382 210.207 454.128 210.66C454.888 211.113 455.462 211.733 455.848 212.52C456.248 213.307 456.448 214.193 456.448 215.18C456.448 215.367 456.428 215.6 456.388 215.88H448.568C448.648 216.827 448.982 217.56 449.568 218.08C450.168 218.587 450.862 218.84 451.648 218.84C452.275 218.84 452.815 218.7 453.268 218.42C453.735 218.127 454.108 217.733 454.388 217.24L456.248 218.12C455.768 218.96 455.142 219.62 454.368 220.1C453.595 220.58 452.668 220.82 451.588 220.82ZM454.208 214.2C454.182 213.84 454.068 213.487 453.868 213.14C453.668 212.78 453.362 212.48 452.948 212.24C452.548 212 452.055 211.88 451.468 211.88C450.762 211.88 450.162 212.093 449.668 212.52C449.188 212.933 448.855 213.493 448.668 214.2H454.208ZM458.452 210.3H460.552V211.64H460.652C460.945 211.16 461.379 210.767 461.952 210.46C462.539 210.14 463.159 209.98 463.812 209.98C465.052 209.98 465.992 210.347 466.632 211.08C467.285 211.8 467.612 212.787 467.612 214.04V220.5H465.412V214.34C465.412 213.54 465.212 212.953 464.812 212.58C464.425 212.207 463.885 212.02 463.192 212.02C462.699 212.02 462.259 212.16 461.872 212.44C461.485 212.707 461.185 213.067 460.972 213.52C460.759 213.973 460.652 214.46 460.652 214.98V220.5H458.452V210.3ZM471.353 208.82C470.939 208.82 470.586 208.68 470.293 208.4C470.013 208.107 469.873 207.753 469.873 207.34C469.873 206.927 470.013 206.58 470.293 206.3C470.586 206.007 470.939 205.86 471.353 205.86C471.766 205.86 472.113 206.007 472.393 206.3C472.686 206.58 472.833 206.927 472.833 207.34C472.833 207.753 472.686 208.107 472.393 208.4C472.113 208.68 471.766 208.82 471.353 208.82ZM470.253 210.3H472.453V220.5H470.253V210.3ZM474.67 218.66L480.31 212.24H474.83V210.3H483.01V212.16L477.37 218.58H483.17V220.5H474.67V218.66ZM489.674 220.82C488.674 220.82 487.774 220.587 486.974 220.12C486.188 219.653 485.568 219.013 485.114 218.2C484.674 217.373 484.454 216.447 484.454 215.42C484.454 214.447 484.668 213.547 485.094 212.72C485.534 211.88 486.141 211.213 486.914 210.72C487.688 210.227 488.568 209.98 489.554 209.98C490.581 209.98 491.468 210.207 492.214 210.66C492.974 211.113 493.548 211.733 493.934 212.52C494.334 213.307 494.534 214.193 494.534 215.18C494.534 215.367 494.514 215.6 494.474 215.88H486.654C486.734 216.827 487.068 217.56 487.654 218.08C488.254 218.587 488.948 218.84 489.734 218.84C490.361 218.84 490.901 218.7 491.354 218.42C491.821 218.127 492.194 217.733 492.474 217.24L494.334 218.12C493.854 218.96 493.228 219.62 492.454 220.1C491.681 220.58 490.754 220.82 489.674 220.82ZM492.294 214.2C492.268 213.84 492.154 213.487 491.954 213.14C491.754 212.78 491.448 212.48 491.034 212.24C490.634 212 490.141 211.88 489.554 211.88C488.848 211.88 488.248 212.093 487.754 212.52C487.274 212.933 486.941 213.493 486.754 214.2H492.294ZM496.538 210.3H498.638V211.8H498.738C498.964 211.28 499.358 210.853 499.918 210.52C500.478 210.173 501.071 210 501.698 210C502.191 210 502.604 210.067 502.938 210.2V212.48C502.351 212.267 501.824 212.16 501.358 212.16C500.851 212.16 500.398 212.293 499.998 212.56C499.611 212.827 499.304 213.187 499.078 213.64C498.851 214.08 498.738 214.567 498.738 215.1V220.5H496.538V210.3Z" fill="black"/>
<rect x="646" y="342" width="158" height="136" rx="19" stroke="#E247D3" stroke-width="2"/>
<path d="M698.84 416.82C697.453 416.82 696.193 416.493 695.06 415.84C693.927 415.173 693.033 414.267 692.38 413.12C691.74 411.973 691.42 410.713 691.42 409.34C691.42 407.967 691.74 406.713 692.38 405.58C693.033 404.433 693.927 403.527 695.06 402.86C696.193 402.193 697.453 401.86 698.84 401.86C700.227 401.86 701.48 402.193 702.6 402.86C703.733 403.527 704.627 404.433 705.28 405.58C705.933 406.713 706.26 407.967 706.26 409.34C706.26 410.713 705.933 411.973 705.28 413.12C704.64 414.267 703.753 415.173 702.62 415.84C701.487 416.493 700.227 416.82 698.84 416.82ZM698.84 414.68C699.787 414.68 700.653 414.453 701.44 414C702.227 413.547 702.847 412.92 703.3 412.12C703.753 411.307 703.98 410.38 703.98 409.34C703.98 408.3 703.753 407.38 703.3 406.58C702.847 405.767 702.227 405.133 701.44 404.68C700.653 404.227 699.787 404 698.84 404C697.893 404 697.027 404.227 696.24 404.68C695.453 405.133 694.827 405.767 694.36 406.58C693.907 407.38 693.68 408.3 693.68 409.34C693.68 410.38 693.907 411.307 694.36 412.12C694.827 412.92 695.453 413.547 696.24 414C697.027 414.453 697.893 414.68 698.84 414.68ZM712.18 416.82C710.94 416.82 709.993 416.453 709.34 415.72C708.7 414.973 708.38 413.94 708.38 412.62V406.3H710.58V412.32C710.58 413.147 710.773 413.767 711.16 414.18C711.56 414.593 712.08 414.8 712.72 414.8C713.24 414.8 713.7 414.667 714.1 414.4C714.5 414.12 714.806 413.753 715.02 413.3C715.233 412.847 715.34 412.36 715.34 411.84V406.3H717.54V416.5H715.46V415.18H715.34C715.06 415.66 714.626 416.053 714.04 416.36C713.453 416.667 712.833 416.82 712.18 416.82ZM724.378 416.66C723.925 416.66 723.498 416.587 723.098 416.44C722.698 416.293 722.371 416.1 722.118 415.86C721.545 415.287 721.258 414.507 721.258 413.52V408.24H719.478V406.3H721.258V403.42H723.458V406.3H725.938V408.24H723.458V413.04C723.458 413.587 723.565 413.973 723.778 414.2C723.978 414.467 724.325 414.6 724.818 414.6C725.045 414.6 725.245 414.573 725.418 414.52C725.591 414.453 725.778 414.353 725.978 414.22V416.36C725.538 416.56 725.005 416.66 724.378 416.66ZM728.048 406.3H730.148V407.64H730.248C730.541 407.173 730.974 406.78 731.548 406.46C732.121 406.14 732.768 405.98 733.488 405.98C734.408 405.98 735.241 406.213 735.988 406.68C736.734 407.147 737.321 407.793 737.748 408.62C738.188 409.433 738.408 410.36 738.408 411.4C738.408 412.44 738.188 413.373 737.748 414.2C737.321 415.013 736.734 415.653 735.988 416.12C735.241 416.587 734.408 416.82 733.488 416.82C732.768 416.82 732.121 416.66 731.548 416.34C730.974 416.02 730.541 415.633 730.248 415.18H730.148L730.248 416.6V420.82H728.048V406.3ZM733.168 414.8C733.701 414.8 734.201 414.66 734.668 414.38C735.134 414.1 735.508 413.7 735.788 413.18C736.068 412.66 736.208 412.067 736.208 411.4C736.208 410.733 736.068 410.147 735.788 409.64C735.508 409.12 735.134 408.72 734.668 408.44C734.201 408.16 733.701 408.02 733.168 408.02C732.634 408.02 732.134 408.16 731.668 408.44C731.214 408.72 730.848 409.12 730.568 409.64C730.288 410.147 730.148 410.733 730.148 411.4C730.148 412.067 730.288 412.66 730.568 413.18C730.848 413.7 731.214 414.1 731.668 414.38C732.134 414.66 732.634 414.8 733.168 414.8ZM744.035 416.82C742.795 416.82 741.848 416.453 741.195 415.72C740.555 414.973 740.235 413.94 740.235 412.62V406.3H742.435V412.32C742.435 413.147 742.628 413.767 743.015 414.18C743.415 414.593 743.935 414.8 744.575 414.8C745.095 414.8 745.555 414.667 745.955 414.4C746.355 414.12 746.662 413.753 746.875 413.3C747.088 412.847 747.195 412.36 747.195 411.84V406.3H749.395V416.5H747.315V415.18H747.195C746.915 415.66 746.482 416.053 745.895 416.36C745.308 416.667 744.688 416.82 744.035 416.82ZM756.233 416.66C755.78 416.66 755.353 416.587 754.953 416.44C754.553 416.293 754.227 416.1 753.973 415.86C753.4 415.287 753.113 414.507 753.113 413.52V408.24H751.333V406.3H753.113V403.42H755.313V406.3H757.793V408.24H755.313V413.04C755.313 413.587 755.42 413.973 755.633 414.2C755.833 414.467 756.18 414.6 756.673 414.6C756.9 414.6 757.1 414.573 757.273 414.52C757.447 414.453 757.633 414.353 757.833 414.22V416.36C757.393 416.56 756.86 416.66 756.233 416.66Z" fill="black"/>
<rect x="374" y="342" width="168" height="138" rx="19" stroke="#35C041" stroke-width="2"/>
<path d="M401.14 403.18H409.84V405.32H403.38V409.28H409.2V411.4H403.38V415.36H409.84V417.5H401.14V403.18ZM412.069 407.3H414.169V408.64H414.269C414.576 408.147 415.009 407.747 415.569 407.44C416.129 407.133 416.729 406.98 417.369 406.98C418.102 406.98 418.742 407.153 419.289 407.5C419.836 407.833 420.229 408.28 420.469 408.84C420.816 408.28 421.276 407.833 421.849 407.5C422.436 407.153 423.122 406.98 423.909 406.98C425.082 406.98 425.969 407.34 426.569 408.06C427.182 408.767 427.489 409.733 427.489 410.96V417.5H425.289V411.34C425.289 409.793 424.629 409.02 423.309 409.02C422.602 409.02 422.022 409.307 421.569 409.88C421.116 410.453 420.889 411.16 420.889 412V417.5H418.689V411.34C418.689 409.793 418.009 409.02 416.649 409.02C415.956 409.02 415.382 409.307 414.929 409.88C414.489 410.453 414.269 411.16 414.269 412V417.5H412.069V407.3ZM435.439 417.82C434.719 417.82 434.072 417.66 433.499 417.34C432.925 417.02 432.492 416.633 432.199 416.18H432.099V417.5H429.999V403.18H432.199V407.2L432.099 408.64H432.199C432.492 408.173 432.925 407.78 433.499 407.46C434.072 407.14 434.719 406.98 435.439 406.98C436.359 406.98 437.192 407.213 437.939 407.68C438.685 408.147 439.272 408.793 439.699 409.62C440.139 410.433 440.359 411.36 440.359 412.4C440.359 413.44 440.139 414.373 439.699 415.2C439.272 416.013 438.685 416.653 437.939 417.12C437.192 417.587 436.359 417.82 435.439 417.82ZM435.119 415.8C435.652 415.8 436.152 415.66 436.619 415.38C437.085 415.1 437.459 414.7 437.739 414.18C438.019 413.66 438.159 413.067 438.159 412.4C438.159 411.733 438.019 411.147 437.739 410.64C437.459 410.12 437.085 409.72 436.619 409.44C436.152 409.16 435.652 409.02 435.119 409.02C434.585 409.02 434.085 409.16 433.619 409.44C433.165 409.72 432.799 410.12 432.519 410.64C432.239 411.147 432.099 411.733 432.099 412.4C432.099 413.067 432.239 413.66 432.519 414.18C432.799 414.7 433.165 415.1 433.619 415.38C434.085 415.66 434.585 415.8 435.119 415.8ZM447.022 417.82C446.022 417.82 445.122 417.587 444.322 417.12C443.535 416.653 442.915 416.013 442.462 415.2C442.022 414.373 441.802 413.447 441.802 412.42C441.802 411.447 442.015 410.547 442.442 409.72C442.882 408.88 443.489 408.213 444.262 407.72C445.035 407.227 445.915 406.98 446.902 406.98C447.929 406.98 448.815 407.207 449.562 407.66C450.322 408.113 450.895 408.733 451.282 409.52C451.682 410.307 451.882 411.193 451.882 412.18C451.882 412.367 451.862 412.6 451.822 412.88H444.002C444.082 413.827 444.415 414.56 445.002 415.08C445.602 415.587 446.295 415.84 447.082 415.84C447.709 415.84 448.249 415.7 448.702 415.42C449.169 415.127 449.542 414.733 449.822 414.24L451.682 415.12C451.202 415.96 450.575 416.62 449.802 417.1C449.029 417.58 448.102 417.82 447.022 417.82ZM449.642 411.2C449.615 410.84 449.502 410.487 449.302 410.14C449.102 409.78 448.795 409.48 448.382 409.24C447.982 409 447.489 408.88 446.902 408.88C446.195 408.88 445.595 409.093 445.102 409.52C444.622 409.933 444.289 410.493 444.102 411.2H449.642ZM458.343 417.82C457.423 417.82 456.59 417.587 455.843 417.12C455.096 416.653 454.503 416.013 454.063 415.2C453.636 414.373 453.423 413.44 453.423 412.4C453.423 411.36 453.636 410.433 454.063 409.62C454.503 408.793 455.096 408.147 455.843 407.68C456.59 407.213 457.423 406.98 458.343 406.98C459.063 406.98 459.71 407.14 460.283 407.46C460.856 407.78 461.29 408.173 461.583 408.64H461.683L461.583 407.2V403.18H463.783V417.5H461.683V416.18H461.583C461.29 416.633 460.856 417.02 460.283 417.34C459.71 417.66 459.063 417.82 458.343 417.82ZM458.663 415.8C459.196 415.8 459.69 415.66 460.143 415.38C460.61 415.1 460.983 414.7 461.263 414.18C461.543 413.66 461.683 413.067 461.683 412.4C461.683 411.733 461.543 411.147 461.263 410.64C460.983 410.12 460.61 409.72 460.143 409.44C459.69 409.16 459.196 409.02 458.663 409.02C458.13 409.02 457.63 409.16 457.163 409.44C456.696 409.72 456.323 410.12 456.043 410.64C455.763 411.147 455.623 411.733 455.623 412.4C455.623 413.067 455.763 413.66 456.043 414.18C456.323 414.7 456.696 415.1 457.163 415.38C457.63 415.66 458.13 415.8 458.663 415.8ZM470.609 417.82C469.689 417.82 468.855 417.587 468.109 417.12C467.362 416.653 466.769 416.013 466.329 415.2C465.902 414.373 465.689 413.44 465.689 412.4C465.689 411.36 465.902 410.433 466.329 409.62C466.769 408.793 467.362 408.147 468.109 407.68C468.855 407.213 469.689 406.98 470.609 406.98C471.329 406.98 471.975 407.14 472.549 407.46C473.122 407.78 473.555 408.173 473.849 408.64H473.949L473.849 407.2V403.18H476.049V417.5H473.949V416.18H473.849C473.555 416.633 473.122 417.02 472.549 417.34C471.975 417.66 471.329 417.82 470.609 417.82ZM470.929 415.8C471.462 415.8 471.955 415.66 472.409 415.38C472.875 415.1 473.249 414.7 473.529 414.18C473.809 413.66 473.949 413.067 473.949 412.4C473.949 411.733 473.809 411.147 473.529 410.64C473.249 410.12 472.875 409.72 472.409 409.44C471.955 409.16 471.462 409.02 470.929 409.02C470.395 409.02 469.895 409.16 469.429 409.44C468.962 409.72 468.589 410.12 468.309 410.64C468.029 411.147 467.889 411.733 467.889 412.4C467.889 413.067 468.029 413.66 468.309 414.18C468.589 414.7 468.962 415.1 469.429 415.38C469.895 415.66 470.395 415.8 470.929 415.8ZM479.872 405.82C479.459 405.82 479.105 405.68 478.812 405.4C478.532 405.107 478.392 404.753 478.392 404.34C478.392 403.927 478.532 403.58 478.812 403.3C479.105 403.007 479.459 402.86 479.872 402.86C480.285 402.86 480.632 403.007 480.912 403.3C481.205 403.58 481.352 403.927 481.352 404.34C481.352 404.753 481.205 405.107 480.912 405.4C480.632 405.68 480.285 405.82 479.872 405.82ZM478.772 407.3H480.972V417.5H478.772V407.3ZM483.71 407.3H485.81V408.64H485.91C486.203 408.16 486.636 407.767 487.21 407.46C487.796 407.14 488.416 406.98 489.07 406.98C490.31 406.98 491.25 407.347 491.89 408.08C492.543 408.8 492.87 409.787 492.87 411.04V417.5H490.67V411.34C490.67 410.54 490.47 409.953 490.07 409.58C489.683 409.207 489.143 409.02 488.45 409.02C487.956 409.02 487.516 409.16 487.13 409.44C486.743 409.707 486.443 410.067 486.23 410.52C486.016 410.973 485.91 411.46 485.91 411.98V417.5H483.71V407.3ZM499.853 422.14C498.599 422.14 497.559 421.853 496.733 421.28C495.919 420.707 495.373 420.027 495.093 419.24L497.153 418.38C497.366 418.913 497.706 419.34 498.173 419.66C498.653 419.993 499.213 420.16 499.853 420.16C500.786 420.16 501.513 419.88 502.033 419.32C502.566 418.773 502.833 418 502.833 417V416.06H502.713C502.379 416.54 501.933 416.92 501.373 417.2C500.826 417.467 500.193 417.6 499.473 417.6C498.619 417.6 497.826 417.38 497.093 416.94C496.359 416.5 495.773 415.88 495.333 415.08C494.906 414.267 494.693 413.34 494.693 412.3C494.693 411.26 494.906 410.34 495.333 409.54C495.773 408.727 496.359 408.1 497.093 407.66C497.826 407.207 498.619 406.98 499.473 406.98C500.179 406.98 500.813 407.12 501.373 407.4C501.933 407.68 502.379 408.06 502.713 408.54H502.833V407.3H504.933V416.94C504.933 418.047 504.719 418.987 504.293 419.76C503.866 420.547 503.266 421.14 502.493 421.54C501.733 421.94 500.853 422.14 499.853 422.14ZM499.873 415.6C500.406 415.6 500.899 415.473 501.353 415.22C501.806 414.953 502.166 414.573 502.433 414.08C502.699 413.573 502.833 412.98 502.833 412.3C502.833 411.26 502.546 410.453 501.973 409.88C501.413 409.293 500.713 409 499.873 409C499.326 409 498.826 409.133 498.373 409.4C497.919 409.653 497.559 410.027 497.293 410.52C497.026 411.013 496.893 411.607 496.893 412.3C496.893 412.993 497.026 413.587 497.293 414.08C497.559 414.573 497.919 414.953 498.373 415.22C498.826 415.473 499.326 415.6 499.873 415.6ZM511.141 417.82C509.967 417.82 509.007 417.567 508.261 417.06C507.514 416.54 506.987 415.88 506.681 415.08L508.641 414.22C508.881 414.753 509.214 415.16 509.641 415.44C510.081 415.72 510.581 415.86 511.141 415.86C511.687 415.86 512.147 415.767 512.521 415.58C512.894 415.38 513.081 415.087 513.081 414.7C513.081 414.327 512.921 414.033 512.601 413.82C512.281 413.607 511.787 413.42 511.121 413.26L509.901 412.96C509.087 412.76 508.414 412.407 507.881 411.9C507.347 411.393 507.081 410.753 507.081 409.98C507.081 409.38 507.254 408.853 507.601 408.4C507.961 407.947 508.441 407.6 509.041 407.36C509.641 407.107 510.294 406.98 511.001 406.98C511.947 406.98 512.781 407.173 513.501 407.56C514.221 407.933 514.741 408.48 515.061 409.2L513.141 410.04C512.754 409.253 512.047 408.86 511.021 408.86C510.527 408.86 510.114 408.96 509.781 409.16C509.447 409.36 509.281 409.62 509.281 409.94C509.281 410.247 509.407 410.5 509.661 410.7C509.914 410.887 510.287 411.047 510.781 411.18L512.281 411.56C513.281 411.813 514.034 412.2 514.541 412.72C515.061 413.227 515.321 413.853 515.321 414.6C515.321 415.24 515.134 415.807 514.761 416.3C514.401 416.78 513.901 417.153 513.261 417.42C512.621 417.687 511.914 417.82 511.141 417.82Z" fill="black"/>
<rect x="649" y="144" width="162" height="138" rx="19" stroke="#399FFF" stroke-width="2"/>
<path d="M677.001 172.82H673.001V170.68H683.241V172.82H679.241V185H677.001V172.82ZM683.858 174.8H685.958V176.3H686.058C686.285 175.78 686.678 175.353 687.238 175.02C687.798 174.673 688.391 174.5 689.018 174.5C689.511 174.5 689.925 174.567 690.258 174.7V176.98C689.671 176.767 689.145 176.66 688.678 176.66C688.171 176.66 687.718 176.793 687.318 177.06C686.931 177.327 686.625 177.687 686.398 178.14C686.171 178.58 686.058 179.067 686.058 179.6V185H683.858V174.8ZM694.793 185.32C694.059 185.32 693.406 185.18 692.833 184.9C692.259 184.607 691.813 184.2 691.493 183.68C691.173 183.147 691.013 182.547 691.013 181.88C691.013 180.827 691.406 179.993 692.193 179.38C692.993 178.767 693.999 178.46 695.213 178.46C695.813 178.46 696.353 178.52 696.833 178.64C697.313 178.747 697.693 178.867 697.973 179V178.48C697.973 177.853 697.739 177.347 697.273 176.96C696.806 176.56 696.206 176.36 695.473 176.36C694.953 176.36 694.459 176.473 693.993 176.7C693.539 176.927 693.173 177.24 692.893 177.64L691.353 176.46C691.806 175.833 692.393 175.347 693.113 175C693.833 174.653 694.633 174.48 695.513 174.48C696.993 174.48 698.133 174.847 698.933 175.58C699.733 176.3 700.133 177.32 700.133 178.64V185H697.973V183.78H697.873C697.579 184.22 697.166 184.587 696.633 184.88C696.099 185.173 695.486 185.32 694.793 185.32ZM695.173 183.5C695.706 183.5 696.186 183.373 696.613 183.12C697.039 182.867 697.373 182.527 697.613 182.1C697.853 181.673 697.973 181.213 697.973 180.72C697.666 180.547 697.306 180.407 696.893 180.3C696.493 180.193 696.073 180.14 695.633 180.14C694.806 180.14 694.199 180.307 693.813 180.64C693.426 180.96 693.233 181.38 693.233 181.9C693.233 182.367 693.413 182.753 693.773 183.06C694.133 183.353 694.599 183.5 695.173 183.5ZM702.53 174.8H704.63V176.14H704.73C705.023 175.66 705.457 175.267 706.03 174.96C706.617 174.64 707.237 174.48 707.89 174.48C709.13 174.48 710.07 174.847 710.71 175.58C711.363 176.3 711.69 177.287 711.69 178.54V185H709.49V178.84C709.49 178.04 709.29 177.453 708.89 177.08C708.503 176.707 707.963 176.52 707.27 176.52C706.777 176.52 706.337 176.66 705.95 176.94C705.563 177.207 705.263 177.567 705.05 178.02C704.837 178.473 704.73 178.96 704.73 179.48V185H702.53V174.8ZM717.793 185.32C716.62 185.32 715.66 185.067 714.913 184.56C714.166 184.04 713.64 183.38 713.333 182.58L715.293 181.72C715.533 182.253 715.866 182.66 716.293 182.94C716.733 183.22 717.233 183.36 717.793 183.36C718.34 183.36 718.8 183.267 719.173 183.08C719.546 182.88 719.733 182.587 719.733 182.2C719.733 181.827 719.573 181.533 719.253 181.32C718.933 181.107 718.44 180.92 717.773 180.76L716.553 180.46C715.74 180.26 715.066 179.907 714.533 179.4C714 178.893 713.733 178.253 713.733 177.48C713.733 176.88 713.906 176.353 714.253 175.9C714.613 175.447 715.093 175.1 715.693 174.86C716.293 174.607 716.946 174.48 717.653 174.48C718.6 174.48 719.433 174.673 720.153 175.06C720.873 175.433 721.393 175.98 721.713 176.7L719.793 177.54C719.406 176.753 718.7 176.36 717.673 176.36C717.18 176.36 716.766 176.46 716.433 176.66C716.1 176.86 715.933 177.12 715.933 177.44C715.933 177.747 716.06 178 716.313 178.2C716.566 178.387 716.94 178.547 717.433 178.68L718.933 179.06C719.933 179.313 720.686 179.7 721.193 180.22C721.713 180.727 721.973 181.353 721.973 182.1C721.973 182.74 721.786 183.307 721.413 183.8C721.053 184.28 720.553 184.653 719.913 184.92C719.273 185.187 718.566 185.32 717.793 185.32ZM725.018 176.74H723.158V174.8H725.018V174C725.018 172.933 725.351 172.087 726.018 171.46C726.684 170.833 727.538 170.52 728.578 170.52C729.178 170.52 729.698 170.593 730.138 170.74V172.9C729.898 172.807 729.671 172.733 729.458 172.68C729.258 172.613 729.024 172.58 728.758 172.58C728.318 172.58 727.951 172.72 727.658 173C727.364 173.28 727.218 173.667 727.218 174.16V174.8H729.778V176.74H727.218V185H725.018V176.74ZM736.021 185.32C734.994 185.32 734.074 185.087 733.261 184.62C732.448 184.14 731.814 183.487 731.361 182.66C730.908 181.833 730.681 180.913 730.681 179.9C730.681 178.887 730.908 177.967 731.361 177.14C731.814 176.313 732.448 175.667 733.261 175.2C734.074 174.72 734.994 174.48 736.021 174.48C737.048 174.48 737.968 174.72 738.781 175.2C739.594 175.68 740.228 176.333 740.681 177.16C741.134 177.987 741.361 178.9 741.361 179.9C741.361 180.913 741.134 181.833 740.681 182.66C740.228 183.487 739.594 184.14 738.781 184.62C737.968 185.087 737.048 185.32 736.021 185.32ZM736.021 183.3C736.581 183.3 737.101 183.167 737.581 182.9C738.061 182.62 738.441 182.227 738.721 181.72C739.014 181.2 739.161 180.593 739.161 179.9C739.161 179.207 739.014 178.607 738.721 178.1C738.441 177.593 738.061 177.207 737.581 176.94C737.101 176.66 736.581 176.52 736.021 176.52C735.461 176.52 734.941 176.66 734.461 176.94C733.981 177.207 733.594 177.593 733.301 178.1C733.021 178.607 732.881 179.207 732.881 179.9C732.881 180.593 733.021 181.2 733.301 181.72C733.594 182.227 733.981 182.62 734.461 182.9C734.941 183.167 735.461 183.3 736.021 183.3ZM743.194 174.8H745.294V176.3H745.394C745.621 175.78 746.014 175.353 746.574 175.02C747.134 174.673 747.727 174.5 748.354 174.5C748.847 174.5 749.261 174.567 749.594 174.7V176.98C749.007 176.767 748.481 176.66 748.014 176.66C747.507 176.66 747.054 176.793 746.654 177.06C746.267 177.327 745.961 177.687 745.734 178.14C745.507 178.58 745.394 179.067 745.394 179.6V185H743.194V174.8ZM751.28 174.8H753.38V176.14H753.48C753.787 175.647 754.22 175.247 754.78 174.94C755.34 174.633 755.94 174.48 756.58 174.48C757.313 174.48 757.953 174.653 758.5 175C759.047 175.333 759.44 175.78 759.68 176.34C760.027 175.78 760.487 175.333 761.06 175C761.647 174.653 762.333 174.48 763.12 174.48C764.293 174.48 765.18 174.84 765.78 175.56C766.393 176.267 766.7 177.233 766.7 178.46V185H764.5V178.84C764.5 177.293 763.84 176.52 762.52 176.52C761.813 176.52 761.233 176.807 760.78 177.38C760.327 177.953 760.1 178.66 760.1 179.5V185H757.9V178.84C757.9 177.293 757.22 176.52 755.86 176.52C755.167 176.52 754.593 176.807 754.14 177.38C753.7 177.953 753.48 178.66 753.48 179.5V185H751.28V174.8ZM773.87 185.32C772.87 185.32 771.97 185.087 771.17 184.62C770.383 184.153 769.763 183.513 769.31 182.7C768.87 181.873 768.65 180.947 768.65 179.92C768.65 178.947 768.863 178.047 769.29 177.22C769.73 176.38 770.336 175.713 771.11 175.22C771.883 174.727 772.763 174.48 773.75 174.48C774.776 174.48 775.663 174.707 776.41 175.16C777.17 175.613 777.743 176.233 778.13 177.02C778.53 177.807 778.73 178.693 778.73 179.68C778.73 179.867 778.71 180.1 778.67 180.38H770.85C770.93 181.327 771.263 182.06 771.85 182.58C772.45 183.087 773.143 183.34 773.93 183.34C774.556 183.34 775.096 183.2 775.55 182.92C776.016 182.627 776.39 182.233 776.67 181.74L778.53 182.62C778.05 183.46 777.423 184.12 776.65 184.6C775.876 185.08 774.95 185.32 773.87 185.32ZM776.49 178.7C776.463 178.34 776.35 177.987 776.15 177.64C775.95 177.28 775.643 176.98 775.23 176.74C774.83 176.5 774.336 176.38 773.75 176.38C773.043 176.38 772.443 176.593 771.95 177.02C771.47 177.433 771.136 177.993 770.95 178.7H776.49ZM780.733 174.8H782.833V176.3H782.933C783.16 175.78 783.553 175.353 784.113 175.02C784.673 174.673 785.266 174.5 785.893 174.5C786.386 174.5 786.8 174.567 787.133 174.7V176.98C786.546 176.767 786.02 176.66 785.553 176.66C785.046 176.66 784.593 176.793 784.193 177.06C783.806 177.327 783.5 177.687 783.273 178.14C783.046 178.58 782.933 179.067 782.933 179.6V185H780.733V174.8Z" fill="black"/>
<rect x="667.5" y="199.5" width="125" height="24" stroke="#399FFF"/>
<path d="M701.88 205.26H703.8L707.835 216H705.975L705.015 213.255H700.68L699.705 216H697.845L701.88 205.26ZM704.445 211.695L703.305 208.5L702.885 207.255H702.795L702.375 208.5L701.235 211.695H704.445ZM711.632 216.12C711.292 216.12 710.972 216.065 710.672 215.955C710.372 215.845 710.127 215.7 709.937 215.52C709.507 215.09 709.292 214.505 709.292 213.765V209.805H707.957V208.35H709.292V206.19H710.942V208.35H714.167V206.19H715.817V208.35H717.677V209.805H715.817V213.405C715.817 213.815 715.897 214.105 716.057 214.275C716.207 214.475 716.467 214.575 716.837 214.575C717.007 214.575 717.157 214.555 717.287 214.515C717.417 214.465 717.557 214.39 717.707 214.29V215.895C717.367 216.045 716.967 216.12 716.507 216.12C716.167 216.12 715.847 216.065 715.547 215.955C715.247 215.845 715.002 215.7 714.812 215.52C714.382 215.09 714.167 214.505 714.167 213.765V209.805H710.942V213.405C710.942 213.815 711.022 214.105 711.182 214.275C711.332 214.475 711.587 214.575 711.947 214.575C712.207 214.575 712.472 214.49 712.742 214.32V215.925C712.582 215.995 712.417 216.045 712.247 216.075C712.087 216.105 711.882 216.12 711.632 216.12ZM722.451 216.24C721.701 216.24 721.026 216.065 720.426 215.715C719.836 215.365 719.371 214.885 719.031 214.275C718.701 213.655 718.536 212.96 718.536 212.19C718.536 211.46 718.696 210.785 719.016 210.165C719.346 209.535 719.801 209.035 720.381 208.665C720.961 208.295 721.621 208.11 722.361 208.11C723.131 208.11 723.796 208.28 724.356 208.62C724.926 208.96 725.356 209.425 725.646 210.015C725.946 210.605 726.096 211.27 726.096 212.01C726.096 212.15 726.081 212.325 726.051 212.535H720.186C720.246 213.245 720.496 213.795 720.936 214.185C721.386 214.565 721.906 214.755 722.496 214.755C722.966 214.755 723.371 214.65 723.711 214.44C724.061 214.22 724.341 213.925 724.551 213.555L725.946 214.215C725.586 214.845 725.116 215.34 724.536 215.7C723.956 216.06 723.261 216.24 722.451 216.24ZM724.416 211.275C724.396 211.005 724.311 210.74 724.161 210.48C724.011 210.21 723.781 209.985 723.471 209.805C723.171 209.625 722.801 209.535 722.361 209.535C721.831 209.535 721.381 209.695 721.011 210.015C720.651 210.325 720.401 210.745 720.261 211.275H724.416ZM727.598 208.35H729.173V209.355H729.248C729.468 208.995 729.793 208.7 730.223 208.47C730.663 208.23 731.128 208.11 731.618 208.11C732.548 208.11 733.253 208.385 733.733 208.935C734.223 209.475 734.468 210.215 734.468 211.155V216H732.818V211.38C732.818 210.78 732.668 210.34 732.368 210.06C732.078 209.78 731.673 209.64 731.153 209.64C730.783 209.64 730.453 209.745 730.163 209.955C729.873 210.155 729.648 210.425 729.488 210.765C729.328 211.105 729.248 211.47 729.248 211.86V216H727.598V208.35ZM739.083 216.12C738.743 216.12 738.423 216.065 738.123 215.955C737.823 215.845 737.578 215.7 737.388 215.52C736.958 215.09 736.743 214.505 736.743 213.765V209.805H735.408V208.35H736.743V206.19H738.393V208.35H740.253V209.805H738.393V213.405C738.393 213.815 738.473 214.105 738.633 214.275C738.783 214.475 739.043 214.575 739.413 214.575C739.583 214.575 739.733 214.555 739.863 214.515C739.993 214.465 740.133 214.39 740.283 214.29V215.895C739.953 216.045 739.553 216.12 739.083 216.12ZM742.84 207.24C742.53 207.24 742.265 207.135 742.045 206.925C741.835 206.705 741.73 206.44 741.73 206.13C741.73 205.82 741.835 205.56 742.045 205.35C742.265 205.13 742.53 205.02 742.84 205.02C743.15 205.02 743.41 205.13 743.62 205.35C743.84 205.56 743.95 205.82 743.95 206.13C743.95 206.44 743.84 206.705 743.62 206.925C743.41 207.135 743.15 207.24 742.84 207.24ZM742.015 208.35H743.665V216H742.015V208.35ZM749.23 216.24C748.46 216.24 747.77 216.065 747.16 215.715C746.55 215.355 746.075 214.865 745.735 214.245C745.395 213.625 745.225 212.935 745.225 212.175C745.225 211.415 745.395 210.725 745.735 210.105C746.075 209.485 746.55 209 747.16 208.65C747.77 208.29 748.46 208.11 749.23 208.11C750 208.11 750.69 208.29 751.3 208.65C751.91 209.01 752.385 209.5 752.725 210.12C753.065 210.74 753.235 211.425 753.235 212.175C753.235 212.935 753.065 213.625 752.725 214.245C752.385 214.865 751.91 215.355 751.3 215.715C750.69 216.065 750 216.24 749.23 216.24ZM749.23 214.725C749.65 214.725 750.04 214.625 750.4 214.425C750.76 214.215 751.045 213.92 751.255 213.54C751.475 213.15 751.585 212.695 751.585 212.175C751.585 211.655 751.475 211.205 751.255 210.825C751.045 210.445 750.76 210.155 750.4 209.955C750.04 209.745 749.65 209.64 749.23 209.64C748.81 209.64 748.42 209.745 748.06 209.955C747.7 210.155 747.41 210.445 747.19 210.825C746.98 211.205 746.875 211.655 746.875 212.175C746.875 212.695 746.98 213.15 747.19 213.54C747.41 213.92 747.7 214.215 748.06 214.425C748.42 214.625 748.81 214.725 749.23 214.725ZM754.61 208.35H756.185V209.355H756.26C756.48 208.995 756.805 208.7 757.235 208.47C757.675 208.23 758.14 208.11 758.63 208.11C759.56 208.11 760.265 208.385 760.745 208.935C761.235 209.475 761.48 210.215 761.48 211.155V216H759.83V211.38C759.83 210.78 759.68 210.34 759.38 210.06C759.09 209.78 758.685 209.64 758.165 209.64C757.795 209.64 757.465 209.745 757.175 209.955C756.885 210.155 756.66 210.425 756.5 210.765C756.34 211.105 756.26 211.47 756.26 211.86V216H754.61V208.35Z" fill="black"/>
<rect x="667.5" y="236.5" width="125" height="24" stroke="#399FFF"/>
<path d="M686.054 242.26H692.579V243.865H687.734V246.955H692.099V248.545H687.734V253H686.054V242.26ZM697.131 253.24C696.381 253.24 695.706 253.065 695.106 252.715C694.516 252.365 694.051 251.885 693.711 251.275C693.381 250.655 693.216 249.96 693.216 249.19C693.216 248.46 693.376 247.785 693.696 247.165C694.026 246.535 694.481 246.035 695.061 245.665C695.641 245.295 696.301 245.11 697.041 245.11C697.811 245.11 698.476 245.28 699.036 245.62C699.606 245.96 700.036 246.425 700.326 247.015C700.626 247.605 700.776 248.27 700.776 249.01C700.776 249.15 700.761 249.325 700.731 249.535H694.866C694.926 250.245 695.176 250.795 695.616 251.185C696.066 251.565 696.586 251.755 697.176 251.755C697.646 251.755 698.051 251.65 698.391 251.44C698.741 251.22 699.021 250.925 699.231 250.555L700.626 251.215C700.266 251.845 699.796 252.34 699.216 252.7C698.636 253.06 697.941 253.24 697.131 253.24ZM699.096 248.275C699.076 248.005 698.991 247.74 698.841 247.48C698.691 247.21 698.461 246.985 698.151 246.805C697.851 246.625 697.481 246.535 697.041 246.535C696.511 246.535 696.061 246.695 695.691 247.015C695.331 247.325 695.081 247.745 694.941 248.275H699.096ZM705.847 253.24C705.097 253.24 704.422 253.065 703.822 252.715C703.232 252.365 702.767 251.885 702.427 251.275C702.097 250.655 701.932 249.96 701.932 249.19C701.932 248.46 702.092 247.785 702.412 247.165C702.742 246.535 703.197 246.035 703.777 245.665C704.357 245.295 705.017 245.11 705.757 245.11C706.527 245.11 707.192 245.28 707.752 245.62C708.322 245.96 708.752 246.425 709.042 247.015C709.342 247.605 709.492 248.27 709.492 249.01C709.492 249.15 709.477 249.325 709.447 249.535H703.582C703.642 250.245 703.892 250.795 704.332 251.185C704.782 251.565 705.302 251.755 705.892 251.755C706.362 251.755 706.767 251.65 707.107 251.44C707.457 251.22 707.737 250.925 707.947 250.555L709.342 251.215C708.982 251.845 708.512 252.34 707.932 252.7C707.352 253.06 706.657 253.24 705.847 253.24ZM707.812 248.275C707.792 248.005 707.707 247.74 707.557 247.48C707.407 247.21 707.177 246.985 706.867 246.805C706.567 246.625 706.197 246.535 705.757 246.535C705.227 246.535 704.777 246.695 704.407 247.015C704.047 247.325 703.797 247.745 703.657 248.275H707.812ZM714.337 253.24C713.647 253.24 713.022 253.065 712.462 252.715C711.902 252.365 711.457 251.885 711.127 251.275C710.807 250.655 710.647 249.955 710.647 249.175C710.647 248.395 710.807 247.7 711.127 247.09C711.457 246.47 711.902 245.985 712.462 245.635C713.022 245.285 713.647 245.11 714.337 245.11C714.877 245.11 715.362 245.23 715.792 245.47C716.222 245.71 716.547 246.005 716.767 246.355H716.842L716.767 245.275V242.26H718.417V253H716.842V252.01H716.767C716.547 252.35 716.222 252.64 715.792 252.88C715.362 253.12 714.877 253.24 714.337 253.24ZM714.577 251.725C714.977 251.725 715.347 251.62 715.687 251.41C716.037 251.2 716.317 250.9 716.527 250.51C716.737 250.12 716.842 249.675 716.842 249.175C716.842 248.675 716.737 248.235 716.527 247.855C716.317 247.465 716.037 247.165 715.687 246.955C715.347 246.745 714.977 246.64 714.577 246.64C714.177 246.64 713.802 246.745 713.452 246.955C713.102 247.165 712.822 247.465 712.612 247.855C712.402 248.235 712.297 248.675 712.297 249.175C712.297 249.675 712.402 250.12 712.612 250.51C712.822 250.9 713.102 251.2 713.452 251.41C713.802 251.62 714.177 251.725 714.577 251.725ZM721.268 246.805H719.873V245.35H721.268V244.75C721.268 243.95 721.518 243.315 722.018 242.845C722.518 242.375 723.158 242.14 723.938 242.14C724.388 242.14 724.778 242.195 725.108 242.305V243.925C724.928 243.855 724.758 243.8 724.598 243.76C724.448 243.71 724.273 243.685 724.073 243.685C723.743 243.685 723.468 243.79 723.248 244C723.028 244.21 722.918 244.5 722.918 244.87V245.35H724.838V246.805H722.918V253H721.268V246.805ZM729.521 253.24C728.751 253.24 728.061 253.065 727.451 252.715C726.841 252.355 726.366 251.865 726.026 251.245C725.686 250.625 725.516 249.935 725.516 249.175C725.516 248.415 725.686 247.725 726.026 247.105C726.366 246.485 726.841 246 727.451 245.65C728.061 245.29 728.751 245.11 729.521 245.11C730.291 245.11 730.981 245.29 731.591 245.65C732.201 246.01 732.676 246.5 733.016 247.12C733.356 247.74 733.526 248.425 733.526 249.175C733.526 249.935 733.356 250.625 733.016 251.245C732.676 251.865 732.201 252.355 731.591 252.715C730.981 253.065 730.291 253.24 729.521 253.24ZM729.521 251.725C729.941 251.725 730.331 251.625 730.691 251.425C731.051 251.215 731.336 250.92 731.546 250.54C731.766 250.15 731.876 249.695 731.876 249.175C731.876 248.655 731.766 248.205 731.546 247.825C731.336 247.445 731.051 247.155 730.691 246.955C730.331 246.745 729.941 246.64 729.521 246.64C729.101 246.64 728.711 246.745 728.351 246.955C727.991 247.155 727.701 247.445 727.481 247.825C727.271 248.205 727.166 248.655 727.166 249.175C727.166 249.695 727.271 250.15 727.481 250.54C727.701 250.92 727.991 251.215 728.351 251.425C728.711 251.625 729.101 251.725 729.521 251.725ZM734.9 245.35H736.475V246.475H736.55C736.72 246.085 737.015 245.765 737.435 245.515C737.855 245.255 738.3 245.125 738.77 245.125C739.14 245.125 739.45 245.175 739.7 245.275V246.985C739.26 246.825 738.865 246.745 738.515 246.745C738.135 246.745 737.795 246.845 737.495 247.045C737.205 247.245 736.975 247.515 736.805 247.855C736.635 248.185 736.55 248.55 736.55 248.95V253H734.9V245.35ZM740.256 245.35H742.041L743.586 250.825H743.646L745.371 245.35H747.066L748.776 250.825H748.836L750.381 245.35H752.136L749.691 253H747.951L746.196 247.51H746.151L744.411 253H742.701L740.256 245.35ZM755.45 253.24C754.9 253.24 754.41 253.135 753.98 252.925C753.55 252.705 753.215 252.4 752.975 252.01C752.735 251.61 752.615 251.16 752.615 250.66C752.615 249.87 752.91 249.245 753.5 248.785C754.1 248.325 754.855 248.095 755.765 248.095C756.215 248.095 756.62 248.14 756.98 248.23C757.34 248.31 757.625 248.4 757.835 248.5V248.11C757.835 247.64 757.66 247.26 757.31 246.97C756.96 246.67 756.51 246.52 755.96 246.52C755.57 246.52 755.2 246.605 754.85 246.775C754.51 246.945 754.235 247.18 754.025 247.48L752.87 246.595C753.21 246.125 753.65 245.76 754.19 245.5C754.73 245.24 755.33 245.11 755.99 245.11C757.1 245.11 757.955 245.385 758.555 245.935C759.155 246.475 759.455 247.24 759.455 248.23V253H757.835V252.085H757.76C757.54 252.415 757.23 252.69 756.83 252.91C756.43 253.13 755.97 253.24 755.45 253.24ZM755.735 251.875C756.135 251.875 756.495 251.78 756.815 251.59C757.135 251.4 757.385 251.145 757.565 250.825C757.745 250.505 757.835 250.16 757.835 249.79C757.605 249.66 757.335 249.555 757.025 249.475C756.725 249.395 756.41 249.355 756.08 249.355C755.46 249.355 755.005 249.48 754.715 249.73C754.425 249.97 754.28 250.285 754.28 250.675C754.28 251.025 754.415 251.315 754.685 251.545C754.955 251.765 755.305 251.875 755.735 251.875ZM761.253 245.35H762.828V246.475H762.903C763.073 246.085 763.368 245.765 763.788 245.515C764.208 245.255 764.653 245.125 765.123 245.125C765.493 245.125 765.803 245.175 766.053 245.275V246.985C765.613 246.825 765.218 246.745 764.868 246.745C764.488 246.745 764.148 246.845 763.848 247.045C763.558 247.245 763.328 247.515 763.158 247.855C762.988 248.185 762.903 248.55 762.903 248.95V253H761.253V245.35ZM770.133 253.24C769.443 253.24 768.818 253.065 768.258 252.715C767.698 252.365 767.253 251.885 766.923 251.275C766.603 250.655 766.443 249.955 766.443 249.175C766.443 248.395 766.603 247.7 766.923 247.09C767.253 246.47 767.698 245.985 768.258 245.635C768.818 245.285 769.443 245.11 770.133 245.11C770.673 245.11 771.158 245.23 771.588 245.47C772.018 245.71 772.343 246.005 772.563 246.355H772.638L772.563 245.275V242.26H774.213V253H772.638V252.01H772.563C772.343 252.35 772.018 252.64 771.588 252.88C771.158 253.12 770.673 253.24 770.133 253.24ZM770.373 251.725C770.773 251.725 771.143 251.62 771.483 251.41C771.833 251.2 772.113 250.9 772.323 250.51C772.533 250.12 772.638 249.675 772.638 249.175C772.638 248.675 772.533 248.235 772.323 247.855C772.113 247.465 771.833 247.165 771.483 246.955C771.143 246.745 770.773 246.64 770.373 246.64C769.973 246.64 769.598 246.745 769.248 246.955C768.898 247.165 768.618 247.465 768.408 247.855C768.198 248.235 768.093 248.675 768.093 249.175C768.093 249.675 768.198 250.12 768.408 250.51C768.618 250.9 768.898 251.2 769.248 251.41C769.598 251.62 769.973 251.725 770.373 251.725Z" fill="black"/>
<path d="M458 342L463.774 332H452.226L458 342ZM458 279H457V333H458H459V279H458Z" fill="black"/>
<path d="M730 346L735.774 336H724.226L730 346ZM730 283H729V337H730H731V283H730Z" fill="black"/>
<path d="M644.438 207.43L634.223 202.391L636.037 214.494L644.438 207.43ZM546.907 418.142L547.075 419.189C562.842 417.261 573.232 403.758 580.736 384.829C588.246 365.884 592.982 341.212 597.293 316.42C601.614 291.573 605.507 266.611 611.321 246.889C614.226 237.034 617.595 228.549 621.7 222.071C625.803 215.597 630.607 211.182 636.374 209.356L636.058 208.342L635.742 207.327C629.477 209.31 624.381 214.073 620.133 220.775C615.888 227.473 612.455 236.162 609.524 246.106C603.665 265.981 599.745 291.115 595.439 315.879C591.123 340.698 586.418 365.153 579 383.866C571.575 402.597 561.549 415.284 546.739 417.095L546.907 418.142Z" fill="black"/>
</svg>
