<svg width="909" height="218" viewBox="0 0 909 218" fill="none" xmlns="http://www.w3.org/2000/svg">
<g clip-path="url(#clip0_1_2)">
<rect width="909" height="218" fill="none"/>
<rect x="38" y="45" width="167" height="128" rx="19" stroke="#F89B32" stroke-width="2"/>
<path d="M81.04 103.32H77.04V101.18H87.28V103.32H83.28V115.5H81.04V103.32ZM92.267 115.82C91.2404 115.82 90.3204 115.587 89.507 115.12C88.6937 114.64 88.0604 113.987 87.607 113.16C87.1537 112.333 86.927 111.413 86.927 110.4C86.927 109.387 87.1537 108.467 87.607 107.64C88.0604 106.813 88.6937 106.167 89.507 105.7C90.3204 105.22 91.2404 104.98 92.267 104.98C93.2937 104.98 94.2137 105.22 95.027 105.7C95.8404 106.18 96.4737 106.833 96.927 107.66C97.3804 108.487 97.607 109.4 97.607 110.4C97.607 111.413 97.3804 112.333 96.927 113.16C96.4737 113.987 95.8404 114.64 95.027 115.12C94.2137 115.587 93.2937 115.82 92.267 115.82ZM92.267 113.8C92.827 113.8 93.347 113.667 93.827 113.4C94.307 113.12 94.687 112.727 94.967 112.22C95.2604 111.7 95.407 111.093 95.407 110.4C95.407 109.707 95.2604 109.107 94.967 108.6C94.687 108.093 94.307 107.707 93.827 107.44C93.347 107.16 92.827 107.02 92.267 107.02C91.707 107.02 91.187 107.16 90.707 107.44C90.227 107.707 89.8404 108.093 89.547 108.6C89.267 109.107 89.127 109.707 89.127 110.4C89.127 111.093 89.267 111.7 89.547 112.22C89.8404 112.727 90.227 113.12 90.707 113.4C91.187 113.667 91.707 113.8 92.267 113.8ZM99.5378 101.18H101.738V109.52H101.798L105.978 105.3H108.738V105.42L104.778 109.36L108.858 115.38V115.5H106.238L103.238 110.88L101.738 112.34V115.5H99.5378V101.18ZM114.588 115.82C113.588 115.82 112.688 115.587 111.888 115.12C111.102 114.653 110.482 114.013 110.028 113.2C109.588 112.373 109.368 111.447 109.368 110.42C109.368 109.447 109.582 108.547 110.008 107.72C110.448 106.88 111.055 106.213 111.828 105.72C112.602 105.227 113.482 104.98 114.468 104.98C115.495 104.98 116.382 105.207 117.128 105.66C117.888 106.113 118.462 106.733 118.848 107.52C119.248 108.307 119.448 109.193 119.448 110.18C119.448 110.367 119.428 110.6 119.388 110.88H111.568C111.648 111.827 111.982 112.56 112.568 113.08C113.168 113.587 113.862 113.84 114.648 113.84C115.275 113.84 115.815 113.7 116.268 113.42C116.735 113.127 117.108 112.733 117.388 112.24L119.248 113.12C118.768 113.96 118.142 114.62 117.368 115.1C116.595 115.58 115.668 115.82 114.588 115.82ZM117.208 109.2C117.182 108.84 117.068 108.487 116.868 108.14C116.668 107.78 116.362 107.48 115.948 107.24C115.548 107 115.055 106.88 114.468 106.88C113.762 106.88 113.162 107.093 112.668 107.52C112.188 107.933 111.855 108.493 111.668 109.2H117.208ZM121.452 105.3H123.552V106.64H123.652C123.945 106.16 124.379 105.767 124.952 105.46C125.539 105.14 126.159 104.98 126.812 104.98C128.052 104.98 128.992 105.347 129.632 106.08C130.285 106.8 130.612 107.787 130.612 109.04V115.5H128.412V109.34C128.412 108.54 128.212 107.953 127.812 107.58C127.425 107.207 126.885 107.02 126.192 107.02C125.699 107.02 125.259 107.16 124.872 107.44C124.485 107.707 124.185 108.067 123.972 108.52C123.759 108.973 123.652 109.46 123.652 109.98V115.5H121.452V105.3ZM134.353 103.82C133.939 103.82 133.586 103.68 133.293 103.4C133.013 103.107 132.873 102.753 132.873 102.34C132.873 101.927 133.013 101.58 133.293 101.3C133.586 101.007 133.939 100.86 134.353 100.86C134.766 100.86 135.113 101.007 135.393 101.3C135.686 101.58 135.833 101.927 135.833 102.34C135.833 102.753 135.686 103.107 135.393 103.4C135.113 103.68 134.766 103.82 134.353 103.82ZM133.253 105.3H135.453V115.5H133.253V105.3ZM137.67 113.66L143.31 107.24H137.83V105.3H146.01V107.16L140.37 113.58H146.17V115.5H137.67V113.66ZM152.674 115.82C151.674 115.82 150.774 115.587 149.974 115.12C149.188 114.653 148.568 114.013 148.114 113.2C147.674 112.373 147.454 111.447 147.454 110.42C147.454 109.447 147.668 108.547 148.094 107.72C148.534 106.88 149.141 106.213 149.914 105.72C150.688 105.227 151.568 104.98 152.554 104.98C153.581 104.98 154.468 105.207 155.214 105.66C155.974 106.113 156.548 106.733 156.934 107.52C157.334 108.307 157.534 109.193 157.534 110.18C157.534 110.367 157.514 110.6 157.474 110.88H149.654C149.734 111.827 150.068 112.56 150.654 113.08C151.254 113.587 151.948 113.84 152.734 113.84C153.361 113.84 153.901 113.7 154.354 113.42C154.821 113.127 155.194 112.733 155.474 112.24L157.334 113.12C156.854 113.96 156.228 114.62 155.454 115.1C154.681 115.58 153.754 115.82 152.674 115.82ZM155.294 109.2C155.268 108.84 155.154 108.487 154.954 108.14C154.754 107.78 154.448 107.48 154.034 107.24C153.634 107 153.141 106.88 152.554 106.88C151.848 106.88 151.248 107.093 150.754 107.52C150.274 107.933 149.941 108.493 149.754 109.2H155.294ZM159.538 105.3H161.638V106.8H161.738C161.964 106.28 162.358 105.853 162.918 105.52C163.478 105.173 164.071 105 164.698 105C165.191 105 165.604 105.067 165.938 105.2V107.48C165.351 107.267 164.824 107.16 164.358 107.16C163.851 107.16 163.398 107.293 162.998 107.56C162.611 107.827 162.304 108.187 162.078 108.64C161.851 109.08 161.738 109.567 161.738 110.1V115.5H159.538V105.3Z" fill="#d7dbe3"/>
<rect x="717" y="43" width="158" height="136" rx="19" stroke="#E247D3" stroke-width="2"/>
<path d="M769.84 117.82C768.453 117.82 767.193 117.493 766.06 116.84C764.927 116.173 764.033 115.267 763.38 114.12C762.74 112.973 762.42 111.713 762.42 110.34C762.42 108.967 762.74 107.713 763.38 106.58C764.033 105.433 764.927 104.527 766.06 103.86C767.193 103.193 768.453 102.86 769.84 102.86C771.227 102.86 772.48 103.193 773.6 103.86C774.733 104.527 775.627 105.433 776.28 106.58C776.933 107.713 777.26 108.967 777.26 110.34C777.26 111.713 776.933 112.973 776.28 114.12C775.64 115.267 774.753 116.173 773.62 116.84C772.487 117.493 771.227 117.82 769.84 117.82ZM769.84 115.68C770.787 115.68 771.653 115.453 772.44 115C773.227 114.547 773.847 113.92 774.3 113.12C774.753 112.307 774.98 111.38 774.98 110.34C774.98 109.3 774.753 108.38 774.3 107.58C773.847 106.767 773.227 106.133 772.44 105.68C771.653 105.227 770.787 105 769.84 105C768.893 105 768.027 105.227 767.24 105.68C766.453 106.133 765.827 106.767 765.36 107.58C764.907 108.38 764.68 109.3 764.68 110.34C764.68 111.38 764.907 112.307 765.36 113.12C765.827 113.92 766.453 114.547 767.24 115C768.027 115.453 768.893 115.68 769.84 115.68ZM783.18 117.82C781.94 117.82 780.993 117.453 780.34 116.72C779.7 115.973 779.38 114.94 779.38 113.62V107.3H781.58V113.32C781.58 114.147 781.773 114.767 782.16 115.18C782.56 115.593 783.08 115.8 783.72 115.8C784.24 115.8 784.7 115.667 785.1 115.4C785.5 115.12 785.806 114.753 786.02 114.3C786.233 113.847 786.34 113.36 786.34 112.84V107.3H788.54V117.5H786.46V116.18H786.34C786.06 116.66 785.626 117.053 785.04 117.36C784.453 117.667 783.833 117.82 783.18 117.82ZM795.378 117.66C794.925 117.66 794.498 117.587 794.098 117.44C793.698 117.293 793.371 117.1 793.118 116.86C792.545 116.287 792.258 115.507 792.258 114.52V109.24H790.478V107.3H792.258V104.42H794.458V107.3H796.938V109.24H794.458V114.04C794.458 114.587 794.565 114.973 794.778 115.2C794.978 115.467 795.325 115.6 795.818 115.6C796.045 115.6 796.245 115.573 796.418 115.52C796.591 115.453 796.778 115.353 796.978 115.22V117.36C796.538 117.56 796.005 117.66 795.378 117.66ZM799.048 107.3H801.148V108.64H801.248C801.541 108.173 801.974 107.78 802.548 107.46C803.121 107.14 803.768 106.98 804.488 106.98C805.408 106.98 806.241 107.213 806.988 107.68C807.734 108.147 808.321 108.793 808.748 109.62C809.188 110.433 809.408 111.36 809.408 112.4C809.408 113.44 809.188 114.373 808.748 115.2C808.321 116.013 807.734 116.653 806.988 117.12C806.241 117.587 805.408 117.82 804.488 117.82C803.768 117.82 803.121 117.66 802.548 117.34C801.974 117.02 801.541 116.633 801.248 116.18H801.148L801.248 117.6V121.82H799.048V107.3ZM804.168 115.8C804.701 115.8 805.201 115.66 805.668 115.38C806.134 115.1 806.508 114.7 806.788 114.18C807.068 113.66 807.208 113.067 807.208 112.4C807.208 111.733 807.068 111.147 806.788 110.64C806.508 110.12 806.134 109.72 805.668 109.44C805.201 109.16 804.701 109.02 804.168 109.02C803.634 109.02 803.134 109.16 802.668 109.44C802.214 109.72 801.848 110.12 801.568 110.64C801.288 111.147 801.148 111.733 801.148 112.4C801.148 113.067 801.288 113.66 801.568 114.18C801.848 114.7 802.214 115.1 802.668 115.38C803.134 115.66 803.634 115.8 804.168 115.8ZM815.035 117.82C813.795 117.82 812.848 117.453 812.195 116.72C811.555 115.973 811.235 114.94 811.235 113.62V107.3H813.435V113.32C813.435 114.147 813.628 114.767 814.015 115.18C814.415 115.593 814.935 115.8 815.575 115.8C816.095 115.8 816.555 115.667 816.955 115.4C817.355 115.12 817.662 114.753 817.875 114.3C818.088 113.847 818.195 113.36 818.195 112.84V107.3H820.395V117.5H818.315V116.18H818.195C817.915 116.66 817.482 117.053 816.895 117.36C816.308 117.667 815.688 117.82 815.035 117.82ZM827.233 117.66C826.78 117.66 826.353 117.587 825.953 117.44C825.553 117.293 825.227 117.1 824.973 116.86C824.4 116.287 824.113 115.507 824.113 114.52V109.24H822.333V107.3H824.113V104.42H826.313V107.3H828.793V109.24H826.313V114.04C826.313 114.587 826.42 114.973 826.633 115.2C826.833 115.467 827.18 115.6 827.673 115.6C827.9 115.6 828.1 115.573 828.273 115.52C828.447 115.453 828.633 115.353 828.833 115.22V117.36C828.393 117.56 827.86 117.66 827.233 117.66Z" fill="#d7dbe3"/>
<path d="M717 111L707 105.226V116.774L717 111ZM658 111V112H708V111V110H658V111Z" fill="#d7dbe3"/>
<rect x="266" y="43" width="168" height="138" rx="19" stroke="#35C041" stroke-width="2"/>
<path d="M293.14 104.18H301.84V106.32H295.38V110.28H301.2V112.4H295.38V116.36H301.84V118.5H293.14V104.18ZM304.069 108.3H306.169V109.64H306.269C306.576 109.147 307.009 108.747 307.569 108.44C308.129 108.133 308.729 107.98 309.369 107.98C310.102 107.98 310.742 108.153 311.289 108.5C311.836 108.833 312.229 109.28 312.469 109.84C312.816 109.28 313.276 108.833 313.849 108.5C314.436 108.153 315.122 107.98 315.909 107.98C317.082 107.98 317.969 108.34 318.569 109.06C319.182 109.767 319.489 110.733 319.489 111.96V118.5H317.289V112.34C317.289 110.793 316.629 110.02 315.309 110.02C314.602 110.02 314.022 110.307 313.569 110.88C313.116 111.453 312.889 112.16 312.889 113V118.5H310.689V112.34C310.689 110.793 310.009 110.02 308.649 110.02C307.956 110.02 307.382 110.307 306.929 110.88C306.489 111.453 306.269 112.16 306.269 113V118.5H304.069V108.3ZM327.439 118.82C326.719 118.82 326.072 118.66 325.499 118.34C324.925 118.02 324.492 117.633 324.199 117.18H324.099V118.5H321.999V104.18H324.199V108.2L324.099 109.64H324.199C324.492 109.173 324.925 108.78 325.499 108.46C326.072 108.14 326.719 107.98 327.439 107.98C328.359 107.98 329.192 108.213 329.939 108.68C330.685 109.147 331.272 109.793 331.699 110.62C332.139 111.433 332.359 112.36 332.359 113.4C332.359 114.44 332.139 115.373 331.699 116.2C331.272 117.013 330.685 117.653 329.939 118.12C329.192 118.587 328.359 118.82 327.439 118.82ZM327.119 116.8C327.652 116.8 328.152 116.66 328.619 116.38C329.085 116.1 329.459 115.7 329.739 115.18C330.019 114.66 330.159 114.067 330.159 113.4C330.159 112.733 330.019 112.147 329.739 111.64C329.459 111.12 329.085 110.72 328.619 110.44C328.152 110.16 327.652 110.02 327.119 110.02C326.585 110.02 326.085 110.16 325.619 110.44C325.165 110.72 324.799 111.12 324.519 111.64C324.239 112.147 324.099 112.733 324.099 113.4C324.099 114.067 324.239 114.66 324.519 115.18C324.799 115.7 325.165 116.1 325.619 116.38C326.085 116.66 326.585 116.8 327.119 116.8ZM339.022 118.82C338.022 118.82 337.122 118.587 336.322 118.12C335.535 117.653 334.915 117.013 334.462 116.2C334.022 115.373 333.802 114.447 333.802 113.42C333.802 112.447 334.015 111.547 334.442 110.72C334.882 109.88 335.489 109.213 336.262 108.72C337.035 108.227 337.915 107.98 338.902 107.98C339.929 107.98 340.815 108.207 341.562 108.66C342.322 109.113 342.895 109.733 343.282 110.52C343.682 111.307 343.882 112.193 343.882 113.18C343.882 113.367 343.862 113.6 343.822 113.88H336.002C336.082 114.827 336.415 115.56 337.002 116.08C337.602 116.587 338.295 116.84 339.082 116.84C339.709 116.84 340.249 116.7 340.702 116.42C341.169 116.127 341.542 115.733 341.822 115.24L343.682 116.12C343.202 116.96 342.575 117.62 341.802 118.1C341.029 118.58 340.102 118.82 339.022 118.82ZM341.642 112.2C341.615 111.84 341.502 111.487 341.302 111.14C341.102 110.78 340.795 110.48 340.382 110.24C339.982 110 339.489 109.88 338.902 109.88C338.195 109.88 337.595 110.093 337.102 110.52C336.622 110.933 336.289 111.493 336.102 112.2H341.642ZM350.343 118.82C349.423 118.82 348.59 118.587 347.843 118.12C347.096 117.653 346.503 117.013 346.063 116.2C345.636 115.373 345.423 114.44 345.423 113.4C345.423 112.36 345.636 111.433 346.063 110.62C346.503 109.793 347.096 109.147 347.843 108.68C348.59 108.213 349.423 107.98 350.343 107.98C351.063 107.98 351.71 108.14 352.283 108.46C352.856 108.78 353.29 109.173 353.583 109.64H353.683L353.583 108.2V104.18H355.783V118.5H353.683V117.18H353.583C353.29 117.633 352.856 118.02 352.283 118.34C351.71 118.66 351.063 118.82 350.343 118.82ZM350.663 116.8C351.196 116.8 351.69 116.66 352.143 116.38C352.61 116.1 352.983 115.7 353.263 115.18C353.543 114.66 353.683 114.067 353.683 113.4C353.683 112.733 353.543 112.147 353.263 111.64C352.983 111.12 352.61 110.72 352.143 110.44C351.69 110.16 351.196 110.02 350.663 110.02C350.13 110.02 349.63 110.16 349.163 110.44C348.696 110.72 348.323 111.12 348.043 111.64C347.763 112.147 347.623 112.733 347.623 113.4C347.623 114.067 347.763 114.66 348.043 115.18C348.323 115.7 348.696 116.1 349.163 116.38C349.63 116.66 350.13 116.8 350.663 116.8ZM362.609 118.82C361.689 118.82 360.855 118.587 360.109 118.12C359.362 117.653 358.769 117.013 358.329 116.2C357.902 115.373 357.689 114.44 357.689 113.4C357.689 112.36 357.902 111.433 358.329 110.62C358.769 109.793 359.362 109.147 360.109 108.68C360.855 108.213 361.689 107.98 362.609 107.98C363.329 107.98 363.975 108.14 364.549 108.46C365.122 108.78 365.555 109.173 365.849 109.64H365.949L365.849 108.2V104.18H368.049V118.5H365.949V117.18H365.849C365.555 117.633 365.122 118.02 364.549 118.34C363.975 118.66 363.329 118.82 362.609 118.82ZM362.929 116.8C363.462 116.8 363.955 116.66 364.409 116.38C364.875 116.1 365.249 115.7 365.529 115.18C365.809 114.66 365.949 114.067 365.949 113.4C365.949 112.733 365.809 112.147 365.529 111.64C365.249 111.12 364.875 110.72 364.409 110.44C363.955 110.16 363.462 110.02 362.929 110.02C362.395 110.02 361.895 110.16 361.429 110.44C360.962 110.72 360.589 111.12 360.309 111.64C360.029 112.147 359.889 112.733 359.889 113.4C359.889 114.067 360.029 114.66 360.309 115.18C360.589 115.7 360.962 116.1 361.429 116.38C361.895 116.66 362.395 116.8 362.929 116.8ZM371.872 106.82C371.459 106.82 371.105 106.68 370.812 106.4C370.532 106.107 370.392 105.753 370.392 105.34C370.392 104.927 370.532 104.58 370.812 104.3C371.105 104.007 371.459 103.86 371.872 103.86C372.285 103.86 372.632 104.007 372.912 104.3C373.205 104.58 373.352 104.927 373.352 105.34C373.352 105.753 373.205 106.107 372.912 106.4C372.632 106.68 372.285 106.82 371.872 106.82ZM370.772 108.3H372.972V118.5H370.772V108.3ZM375.71 108.3H377.81V109.64H377.91C378.203 109.16 378.636 108.767 379.21 108.46C379.796 108.14 380.416 107.98 381.07 107.98C382.31 107.98 383.25 108.347 383.89 109.08C384.543 109.8 384.87 110.787 384.87 112.04V118.5H382.67V112.34C382.67 111.54 382.47 110.953 382.07 110.58C381.683 110.207 381.143 110.02 380.45 110.02C379.956 110.02 379.516 110.16 379.13 110.44C378.743 110.707 378.443 111.067 378.23 111.52C378.016 111.973 377.91 112.46 377.91 112.98V118.5H375.71V108.3ZM391.853 123.14C390.599 123.14 389.559 122.853 388.733 122.28C387.919 121.707 387.373 121.027 387.093 120.24L389.153 119.38C389.366 119.913 389.706 120.34 390.173 120.66C390.653 120.993 391.213 121.16 391.853 121.16C392.786 121.16 393.513 120.88 394.033 120.32C394.566 119.773 394.833 119 394.833 118V117.06H394.713C394.379 117.54 393.933 117.92 393.373 118.2C392.826 118.467 392.193 118.6 391.473 118.6C390.619 118.6 389.826 118.38 389.093 117.94C388.359 117.5 387.773 116.88 387.333 116.08C386.906 115.267 386.693 114.34 386.693 113.3C386.693 112.26 386.906 111.34 387.333 110.54C387.773 109.727 388.359 109.1 389.093 108.66C389.826 108.207 390.619 107.98 391.473 107.98C392.179 107.98 392.813 108.12 393.373 108.4C393.933 108.68 394.379 109.06 394.713 109.54H394.833V108.3H396.933V117.94C396.933 119.047 396.719 119.987 396.293 120.76C395.866 121.547 395.266 122.14 394.493 122.54C393.733 122.94 392.853 123.14 391.853 123.14ZM391.873 116.6C392.406 116.6 392.899 116.473 393.353 116.22C393.806 115.953 394.166 115.573 394.433 115.08C394.699 114.573 394.833 113.98 394.833 113.3C394.833 112.26 394.546 111.453 393.973 110.88C393.413 110.293 392.713 110 391.873 110C391.326 110 390.826 110.133 390.373 110.4C389.919 110.653 389.559 111.027 389.293 111.52C389.026 112.013 388.893 112.607 388.893 113.3C388.893 113.993 389.026 114.587 389.293 115.08C389.559 115.573 389.919 115.953 390.373 116.22C390.826 116.473 391.326 116.6 391.873 116.6ZM403.141 118.82C401.967 118.82 401.007 118.567 400.261 118.06C399.514 117.54 398.987 116.88 398.681 116.08L400.641 115.22C400.881 115.753 401.214 116.16 401.641 116.44C402.081 116.72 402.581 116.86 403.141 116.86C403.687 116.86 404.147 116.767 404.521 116.58C404.894 116.38 405.081 116.087 405.081 115.7C405.081 115.327 404.921 115.033 404.601 114.82C404.281 114.607 403.787 114.42 403.121 114.26L401.901 113.96C401.087 113.76 400.414 113.407 399.881 112.9C399.347 112.393 399.081 111.753 399.081 110.98C399.081 110.38 399.254 109.853 399.601 109.4C399.961 108.947 400.441 108.6 401.041 108.36C401.641 108.107 402.294 107.98 403.001 107.98C403.947 107.98 404.781 108.173 405.501 108.56C406.221 108.933 406.741 109.48 407.061 110.2L405.141 111.04C404.754 110.253 404.047 109.86 403.021 109.86C402.527 109.86 402.114 109.96 401.781 110.16C401.447 110.36 401.281 110.62 401.281 110.94C401.281 111.247 401.407 111.5 401.661 111.7C401.914 111.887 402.287 112.047 402.781 112.18L404.281 112.56C405.281 112.813 406.034 113.2 406.541 113.72C407.061 114.227 407.321 114.853 407.321 115.6C407.321 116.24 407.134 116.807 406.761 117.3C406.401 117.78 405.901 118.153 405.261 118.42C404.621 118.687 403.914 118.82 403.141 118.82Z" fill="#d7dbe3"/>
<rect x="495" y="45" width="162" height="138" rx="19" stroke="#399FFF" stroke-width="2"/>
<path d="M520.001 73.82H516.001V71.68H526.241V73.82H522.241V86H520.001V73.82ZM526.858 75.8H528.958V77.3H529.058C529.285 76.78 529.678 76.3533 530.238 76.02C530.798 75.6733 531.391 75.5 532.018 75.5C532.511 75.5 532.925 75.5667 533.258 75.7V77.98C532.671 77.7667 532.145 77.66 531.678 77.66C531.171 77.66 530.718 77.7933 530.318 78.06C529.931 78.3267 529.625 78.6867 529.398 79.14C529.171 79.58 529.058 80.0667 529.058 80.6V86H526.858V75.8ZM537.793 86.32C537.059 86.32 536.406 86.18 535.833 85.9C535.259 85.6067 534.813 85.2 534.493 84.68C534.173 84.1467 534.013 83.5467 534.013 82.88C534.013 81.8267 534.406 80.9933 535.193 80.38C535.993 79.7667 536.999 79.46 538.213 79.46C538.813 79.46 539.353 79.52 539.833 79.64C540.313 79.7467 540.693 79.8667 540.973 80V79.48C540.973 78.8533 540.739 78.3467 540.273 77.96C539.806 77.56 539.206 77.36 538.473 77.36C537.953 77.36 537.459 77.4733 536.993 77.7C536.539 77.9267 536.173 78.24 535.893 78.64L534.353 77.46C534.806 76.8333 535.393 76.3467 536.113 76C536.833 75.6533 537.633 75.48 538.513 75.48C539.993 75.48 541.133 75.8467 541.933 76.58C542.733 77.3 543.133 78.32 543.133 79.64V86H540.973V84.78H540.873C540.579 85.22 540.166 85.5867 539.633 85.88C539.099 86.1733 538.486 86.32 537.793 86.32ZM538.173 84.5C538.706 84.5 539.186 84.3733 539.613 84.12C540.039 83.8667 540.373 83.5267 540.613 83.1C540.853 82.6733 540.973 82.2133 540.973 81.72C540.666 81.5467 540.306 81.4067 539.893 81.3C539.493 81.1933 539.073 81.14 538.633 81.14C537.806 81.14 537.199 81.3067 536.813 81.64C536.426 81.96 536.233 82.38 536.233 82.9C536.233 83.3667 536.413 83.7533 536.773 84.06C537.133 84.3533 537.599 84.5 538.173 84.5ZM545.53 75.8H547.63V77.14H547.73C548.023 76.66 548.457 76.2667 549.03 75.96C549.617 75.64 550.237 75.48 550.89 75.48C552.13 75.48 553.07 75.8467 553.71 76.58C554.363 77.3 554.69 78.2867 554.69 79.54V86H552.49V79.84C552.49 79.04 552.29 78.4533 551.89 78.08C551.503 77.7067 550.963 77.52 550.27 77.52C549.777 77.52 549.337 77.66 548.95 77.94C548.563 78.2067 548.263 78.5667 548.05 79.02C547.837 79.4733 547.73 79.96 547.73 80.48V86H545.53V75.8ZM560.793 86.32C559.62 86.32 558.66 86.0667 557.913 85.56C557.166 85.04 556.64 84.38 556.333 83.58L558.293 82.72C558.533 83.2533 558.866 83.66 559.293 83.94C559.733 84.22 560.233 84.36 560.793 84.36C561.34 84.36 561.8 84.2667 562.173 84.08C562.546 83.88 562.733 83.5867 562.733 83.2C562.733 82.8267 562.573 82.5333 562.253 82.32C561.933 82.1067 561.44 81.92 560.773 81.76L559.553 81.46C558.74 81.26 558.066 80.9067 557.533 80.4C557 79.8933 556.733 79.2533 556.733 78.48C556.733 77.88 556.906 77.3533 557.253 76.9C557.613 76.4467 558.093 76.1 558.693 75.86C559.293 75.6067 559.946 75.48 560.653 75.48C561.6 75.48 562.433 75.6733 563.153 76.06C563.873 76.4333 564.393 76.98 564.713 77.7L562.793 78.54C562.406 77.7533 561.7 77.36 560.673 77.36C560.18 77.36 559.766 77.46 559.433 77.66C559.1 77.86 558.933 78.12 558.933 78.44C558.933 78.7467 559.06 79 559.313 79.2C559.566 79.3867 559.94 79.5467 560.433 79.68L561.933 80.06C562.933 80.3133 563.686 80.7 564.193 81.22C564.713 81.7267 564.973 82.3533 564.973 83.1C564.973 83.74 564.786 84.3067 564.413 84.8C564.053 85.28 563.553 85.6533 562.913 85.92C562.273 86.1867 561.566 86.32 560.793 86.32ZM568.018 77.74H566.158V75.8H568.018V75C568.018 73.9333 568.351 73.0867 569.018 72.46C569.684 71.8333 570.538 71.52 571.578 71.52C572.178 71.52 572.698 71.5933 573.138 71.74V73.9C572.898 73.8067 572.671 73.7333 572.458 73.68C572.258 73.6133 572.024 73.58 571.758 73.58C571.318 73.58 570.951 73.72 570.658 74C570.364 74.28 570.218 74.6667 570.218 75.16V75.8H572.778V77.74H570.218V86H568.018V77.74ZM579.021 86.32C577.994 86.32 577.074 86.0867 576.261 85.62C575.448 85.14 574.814 84.4867 574.361 83.66C573.908 82.8333 573.681 81.9133 573.681 80.9C573.681 79.8867 573.908 78.9667 574.361 78.14C574.814 77.3133 575.448 76.6667 576.261 76.2C577.074 75.72 577.994 75.48 579.021 75.48C580.048 75.48 580.968 75.72 581.781 76.2C582.594 76.68 583.228 77.3333 583.681 78.16C584.134 78.9867 584.361 79.9 584.361 80.9C584.361 81.9133 584.134 82.8333 583.681 83.66C583.228 84.4867 582.594 85.14 581.781 85.62C580.968 86.0867 580.048 86.32 579.021 86.32ZM579.021 84.3C579.581 84.3 580.101 84.1667 580.581 83.9C581.061 83.62 581.441 83.2267 581.721 82.72C582.014 82.2 582.161 81.5933 582.161 80.9C582.161 80.2067 582.014 79.6067 581.721 79.1C581.441 78.5933 581.061 78.2067 580.581 77.94C580.101 77.66 579.581 77.52 579.021 77.52C578.461 77.52 577.941 77.66 577.461 77.94C576.981 78.2067 576.594 78.5933 576.301 79.1C576.021 79.6067 575.881 80.2067 575.881 80.9C575.881 81.5933 576.021 82.2 576.301 82.72C576.594 83.2267 576.981 83.62 577.461 83.9C577.941 84.1667 578.461 84.3 579.021 84.3ZM586.194 75.8H588.294V77.3H588.394C588.621 76.78 589.014 76.3533 589.574 76.02C590.134 75.6733 590.727 75.5 591.354 75.5C591.847 75.5 592.261 75.5667 592.594 75.7V77.98C592.007 77.7667 591.481 77.66 591.014 77.66C590.507 77.66 590.054 77.7933 589.654 78.06C589.267 78.3267 588.961 78.6867 588.734 79.14C588.507 79.58 588.394 80.0667 588.394 80.6V86H586.194V75.8ZM594.28 75.8H596.38V77.14H596.48C596.787 76.6467 597.22 76.2467 597.78 75.94C598.34 75.6333 598.94 75.48 599.58 75.48C600.313 75.48 600.953 75.6533 601.5 76C602.047 76.3333 602.44 76.78 602.68 77.34C603.027 76.78 603.487 76.3333 604.06 76C604.647 75.6533 605.333 75.48 606.12 75.48C607.293 75.48 608.18 75.84 608.78 76.56C609.393 77.2667 609.7 78.2333 609.7 79.46V86H607.5V79.84C607.5 78.2933 606.84 77.52 605.52 77.52C604.813 77.52 604.233 77.8067 603.78 78.38C603.327 78.9533 603.1 79.66 603.1 80.5V86H600.9V79.84C600.9 78.2933 600.22 77.52 598.86 77.52C598.167 77.52 597.593 77.8067 597.14 78.38C596.7 78.9533 596.48 79.66 596.48 80.5V86H594.28V75.8ZM616.87 86.32C615.87 86.32 614.97 86.0867 614.17 85.62C613.383 85.1533 612.763 84.5133 612.31 83.7C611.87 82.8733 611.65 81.9467 611.65 80.92C611.65 79.9467 611.863 79.0467 612.29 78.22C612.73 77.38 613.336 76.7133 614.11 76.22C614.883 75.7267 615.763 75.48 616.75 75.48C617.776 75.48 618.663 75.7067 619.41 76.16C620.17 76.6133 620.743 77.2333 621.13 78.02C621.53 78.8067 621.73 79.6933 621.73 80.68C621.73 80.8667 621.71 81.1 621.67 81.38H613.85C613.93 82.3267 614.263 83.06 614.85 83.58C615.45 84.0867 616.143 84.34 616.93 84.34C617.556 84.34 618.096 84.2 618.55 83.92C619.016 83.6267 619.39 83.2333 619.67 82.74L621.53 83.62C621.05 84.46 620.423 85.12 619.65 85.6C618.876 86.08 617.95 86.32 616.87 86.32ZM619.49 79.7C619.463 79.34 619.35 78.9867 619.15 78.64C618.95 78.28 618.643 77.98 618.23 77.74C617.83 77.5 617.336 77.38 616.75 77.38C616.043 77.38 615.443 77.5933 614.95 78.02C614.47 78.4333 614.136 78.9933 613.95 79.7H619.49ZM623.733 75.8H625.833V77.3H625.933C626.16 76.78 626.553 76.3533 627.113 76.02C627.673 75.6733 628.266 75.5 628.893 75.5C629.386 75.5 629.8 75.5667 630.133 75.7V77.98C629.546 77.7667 629.02 77.66 628.553 77.66C628.046 77.66 627.593 77.7933 627.193 78.06C626.806 78.3267 626.5 78.6867 626.273 79.14C626.046 79.58 625.933 80.0667 625.933 80.6V86H623.733V75.8Z" fill="#d7dbe3"/>
<rect x="510.5" y="100.5" width="125" height="22" stroke="#399FFF"/>
<path d="M544.88 106.26H546.8L550.835 117H548.975L548.015 114.255H543.68L542.705 117H540.845L544.88 106.26ZM547.445 112.695L546.305 109.5L545.885 108.255H545.795L545.375 109.5L544.235 112.695H547.445ZM554.632 117.12C554.292 117.12 553.972 117.065 553.672 116.955C553.372 116.845 553.127 116.7 552.937 116.52C552.507 116.09 552.292 115.505 552.292 114.765V110.805H550.957V109.35H552.292V107.19H553.942V109.35H557.167V107.19H558.817V109.35H560.677V110.805H558.817V114.405C558.817 114.815 558.897 115.105 559.057 115.275C559.207 115.475 559.467 115.575 559.837 115.575C560.007 115.575 560.157 115.555 560.287 115.515C560.417 115.465 560.557 115.39 560.707 115.29V116.895C560.367 117.045 559.967 117.12 559.507 117.12C559.167 117.12 558.847 117.065 558.547 116.955C558.247 116.845 558.002 116.7 557.812 116.52C557.382 116.09 557.167 115.505 557.167 114.765V110.805H553.942V114.405C553.942 114.815 554.022 115.105 554.182 115.275C554.332 115.475 554.587 115.575 554.947 115.575C555.207 115.575 555.472 115.49 555.742 115.32V116.925C555.582 116.995 555.417 117.045 555.247 117.075C555.087 117.105 554.882 117.12 554.632 117.12ZM565.451 117.24C564.701 117.24 564.026 117.065 563.426 116.715C562.836 116.365 562.371 115.885 562.031 115.275C561.701 114.655 561.536 113.96 561.536 113.19C561.536 112.46 561.696 111.785 562.016 111.165C562.346 110.535 562.801 110.035 563.381 109.665C563.961 109.295 564.621 109.11 565.361 109.11C566.131 109.11 566.796 109.28 567.356 109.62C567.926 109.96 568.356 110.425 568.646 111.015C568.946 111.605 569.096 112.27 569.096 113.01C569.096 113.15 569.081 113.325 569.051 113.535H563.186C563.246 114.245 563.496 114.795 563.936 115.185C564.386 115.565 564.906 115.755 565.496 115.755C565.966 115.755 566.371 115.65 566.711 115.44C567.061 115.22 567.341 114.925 567.551 114.555L568.946 115.215C568.586 115.845 568.116 116.34 567.536 116.7C566.956 117.06 566.261 117.24 565.451 117.24ZM567.416 112.275C567.396 112.005 567.311 111.74 567.161 111.48C567.011 111.21 566.781 110.985 566.471 110.805C566.171 110.625 565.801 110.535 565.361 110.535C564.831 110.535 564.381 110.695 564.011 111.015C563.651 111.325 563.401 111.745 563.261 112.275H567.416ZM570.598 109.35H572.173V110.355H572.248C572.468 109.995 572.793 109.7 573.223 109.47C573.663 109.23 574.128 109.11 574.618 109.11C575.548 109.11 576.253 109.385 576.733 109.935C577.223 110.475 577.468 111.215 577.468 112.155V117H575.818V112.38C575.818 111.78 575.668 111.34 575.368 111.06C575.078 110.78 574.673 110.64 574.153 110.64C573.783 110.64 573.453 110.745 573.163 110.955C572.873 111.155 572.648 111.425 572.488 111.765C572.328 112.105 572.248 112.47 572.248 112.86V117H570.598V109.35ZM582.083 117.12C581.743 117.12 581.423 117.065 581.123 116.955C580.823 116.845 580.578 116.7 580.388 116.52C579.958 116.09 579.743 115.505 579.743 114.765V110.805H578.408V109.35H579.743V107.19H581.393V109.35H583.253V110.805H581.393V114.405C581.393 114.815 581.473 115.105 581.633 115.275C581.783 115.475 582.043 115.575 582.413 115.575C582.583 115.575 582.733 115.555 582.863 115.515C582.993 115.465 583.133 115.39 583.283 115.29V116.895C582.953 117.045 582.553 117.12 582.083 117.12ZM585.84 108.24C585.53 108.24 585.265 108.135 585.045 107.925C584.835 107.705 584.73 107.44 584.73 107.13C584.73 106.82 584.835 106.56 585.045 106.35C585.265 106.13 585.53 106.02 585.84 106.02C586.15 106.02 586.41 106.13 586.62 106.35C586.84 106.56 586.95 106.82 586.95 107.13C586.95 107.44 586.84 107.705 586.62 107.925C586.41 108.135 586.15 108.24 585.84 108.24ZM585.015 109.35H586.665V117H585.015V109.35ZM592.23 117.24C591.46 117.24 590.77 117.065 590.16 116.715C589.55 116.355 589.075 115.865 588.735 115.245C588.395 114.625 588.225 113.935 588.225 113.175C588.225 112.415 588.395 111.725 588.735 111.105C589.075 110.485 589.55 110 590.16 109.65C590.77 109.29 591.46 109.11 592.23 109.11C593 109.11 593.69 109.29 594.3 109.65C594.91 110.01 595.385 110.5 595.725 111.12C596.065 111.74 596.235 112.425 596.235 113.175C596.235 113.935 596.065 114.625 595.725 115.245C595.385 115.865 594.91 116.355 594.3 116.715C593.69 117.065 593 117.24 592.23 117.24ZM592.23 115.725C592.65 115.725 593.04 115.625 593.4 115.425C593.76 115.215 594.045 114.92 594.255 114.54C594.475 114.15 594.585 113.695 594.585 113.175C594.585 112.655 594.475 112.205 594.255 111.825C594.045 111.445 593.76 111.155 593.4 110.955C593.04 110.745 592.65 110.64 592.23 110.64C591.81 110.64 591.42 110.745 591.06 110.955C590.7 111.155 590.41 111.445 590.19 111.825C589.98 112.205 589.875 112.655 589.875 113.175C589.875 113.695 589.98 114.15 590.19 114.54C590.41 114.92 590.7 115.215 591.06 115.425C591.42 115.625 591.81 115.725 592.23 115.725ZM597.61 109.35H599.185V110.355H599.26C599.48 109.995 599.805 109.7 600.235 109.47C600.675 109.23 601.14 109.11 601.63 109.11C602.56 109.11 603.265 109.385 603.745 109.935C604.235 110.475 604.48 111.215 604.48 112.155V117H602.83V112.38C602.83 111.78 602.68 111.34 602.38 111.06C602.09 110.78 601.685 110.64 601.165 110.64C600.795 110.64 600.465 110.745 600.175 110.955C599.885 111.155 599.66 111.425 599.5 111.765C599.34 112.105 599.26 112.47 599.26 112.86V117H597.61V109.35Z" fill="#d7dbe3"/>
<rect x="510.5" y="135.5" width="125" height="24" stroke="#399FFF"/>
<path d="M529.054 141.26H535.579V142.865H530.734V145.955H535.099V147.545H530.734V152H529.054V141.26ZM540.131 152.24C539.381 152.24 538.706 152.065 538.106 151.715C537.516 151.365 537.051 150.885 536.711 150.275C536.381 149.655 536.216 148.96 536.216 148.19C536.216 147.46 536.376 146.785 536.696 146.165C537.026 145.535 537.481 145.035 538.061 144.665C538.641 144.295 539.301 144.11 540.041 144.11C540.811 144.11 541.476 144.28 542.036 144.62C542.606 144.96 543.036 145.425 543.326 146.015C543.626 146.605 543.776 147.27 543.776 148.01C543.776 148.15 543.761 148.325 543.731 148.535H537.866C537.926 149.245 538.176 149.795 538.616 150.185C539.066 150.565 539.586 150.755 540.176 150.755C540.646 150.755 541.051 150.65 541.391 150.44C541.741 150.22 542.021 149.925 542.231 149.555L543.626 150.215C543.266 150.845 542.796 151.34 542.216 151.7C541.636 152.06 540.941 152.24 540.131 152.24ZM542.096 147.275C542.076 147.005 541.991 146.74 541.841 146.48C541.691 146.21 541.461 145.985 541.151 145.805C540.851 145.625 540.481 145.535 540.041 145.535C539.511 145.535 539.061 145.695 538.691 146.015C538.331 146.325 538.081 146.745 537.941 147.275H542.096ZM548.847 152.24C548.097 152.24 547.422 152.065 546.822 151.715C546.232 151.365 545.767 150.885 545.427 150.275C545.097 149.655 544.932 148.96 544.932 148.19C544.932 147.46 545.092 146.785 545.412 146.165C545.742 145.535 546.197 145.035 546.777 144.665C547.357 144.295 548.017 144.11 548.757 144.11C549.527 144.11 550.192 144.28 550.752 144.62C551.322 144.96 551.752 145.425 552.042 146.015C552.342 146.605 552.492 147.27 552.492 148.01C552.492 148.15 552.477 148.325 552.447 148.535H546.582C546.642 149.245 546.892 149.795 547.332 150.185C547.782 150.565 548.302 150.755 548.892 150.755C549.362 150.755 549.767 150.65 550.107 150.44C550.457 150.22 550.737 149.925 550.947 149.555L552.342 150.215C551.982 150.845 551.512 151.34 550.932 151.7C550.352 152.06 549.657 152.24 548.847 152.24ZM550.812 147.275C550.792 147.005 550.707 146.74 550.557 146.48C550.407 146.21 550.177 145.985 549.867 145.805C549.567 145.625 549.197 145.535 548.757 145.535C548.227 145.535 547.777 145.695 547.407 146.015C547.047 146.325 546.797 146.745 546.657 147.275H550.812ZM557.337 152.24C556.647 152.24 556.022 152.065 555.462 151.715C554.902 151.365 554.457 150.885 554.127 150.275C553.807 149.655 553.647 148.955 553.647 148.175C553.647 147.395 553.807 146.7 554.127 146.09C554.457 145.47 554.902 144.985 555.462 144.635C556.022 144.285 556.647 144.11 557.337 144.11C557.877 144.11 558.362 144.23 558.792 144.47C559.222 144.71 559.547 145.005 559.767 145.355H559.842L559.767 144.275V141.26H561.417V152H559.842V151.01H559.767C559.547 151.35 559.222 151.64 558.792 151.88C558.362 152.12 557.877 152.24 557.337 152.24ZM557.577 150.725C557.977 150.725 558.347 150.62 558.687 150.41C559.037 150.2 559.317 149.9 559.527 149.51C559.737 149.12 559.842 148.675 559.842 148.175C559.842 147.675 559.737 147.235 559.527 146.855C559.317 146.465 559.037 146.165 558.687 145.955C558.347 145.745 557.977 145.64 557.577 145.64C557.177 145.64 556.802 145.745 556.452 145.955C556.102 146.165 555.822 146.465 555.612 146.855C555.402 147.235 555.297 147.675 555.297 148.175C555.297 148.675 555.402 149.12 555.612 149.51C555.822 149.9 556.102 150.2 556.452 150.41C556.802 150.62 557.177 150.725 557.577 150.725ZM564.268 145.805H562.873V144.35H564.268V143.75C564.268 142.95 564.518 142.315 565.018 141.845C565.518 141.375 566.158 141.14 566.938 141.14C567.388 141.14 567.778 141.195 568.108 141.305V142.925C567.928 142.855 567.758 142.8 567.598 142.76C567.448 142.71 567.273 142.685 567.073 142.685C566.743 142.685 566.468 142.79 566.248 143C566.028 143.21 565.918 143.5 565.918 143.87V144.35H567.838V145.805H565.918V152H564.268V145.805ZM572.521 152.24C571.751 152.24 571.061 152.065 570.451 151.715C569.841 151.355 569.366 150.865 569.026 150.245C568.686 149.625 568.516 148.935 568.516 148.175C568.516 147.415 568.686 146.725 569.026 146.105C569.366 145.485 569.841 145 570.451 144.65C571.061 144.29 571.751 144.11 572.521 144.11C573.291 144.11 573.981 144.29 574.591 144.65C575.201 145.01 575.676 145.5 576.016 146.12C576.356 146.74 576.526 147.425 576.526 148.175C576.526 148.935 576.356 149.625 576.016 150.245C575.676 150.865 575.201 151.355 574.591 151.715C573.981 152.065 573.291 152.24 572.521 152.24ZM572.521 150.725C572.941 150.725 573.331 150.625 573.691 150.425C574.051 150.215 574.336 149.92 574.546 149.54C574.766 149.15 574.876 148.695 574.876 148.175C574.876 147.655 574.766 147.205 574.546 146.825C574.336 146.445 574.051 146.155 573.691 145.955C573.331 145.745 572.941 145.64 572.521 145.64C572.101 145.64 571.711 145.745 571.351 145.955C570.991 146.155 570.701 146.445 570.481 146.825C570.271 147.205 570.166 147.655 570.166 148.175C570.166 148.695 570.271 149.15 570.481 149.54C570.701 149.92 570.991 150.215 571.351 150.425C571.711 150.625 572.101 150.725 572.521 150.725ZM577.9 144.35H579.475V145.475H579.55C579.72 145.085 580.015 144.765 580.435 144.515C580.855 144.255 581.3 144.125 581.77 144.125C582.14 144.125 582.45 144.175 582.7 144.275V145.985C582.26 145.825 581.865 145.745 581.515 145.745C581.135 145.745 580.795 145.845 580.495 146.045C580.205 146.245 579.975 146.515 579.805 146.855C579.635 147.185 579.55 147.55 579.55 147.95V152H577.9V144.35ZM583.256 144.35H585.041L586.586 149.825H586.646L588.371 144.35H590.066L591.776 149.825H591.836L593.381 144.35H595.136L592.691 152H590.951L589.196 146.51H589.151L587.411 152H585.701L583.256 144.35ZM598.45 152.24C597.9 152.24 597.41 152.135 596.98 151.925C596.55 151.705 596.215 151.4 595.975 151.01C595.735 150.61 595.615 150.16 595.615 149.66C595.615 148.87 595.91 148.245 596.5 147.785C597.1 147.325 597.855 147.095 598.765 147.095C599.215 147.095 599.62 147.14 599.98 147.23C600.34 147.31 600.625 147.4 600.835 147.5V147.11C600.835 146.64 600.66 146.26 600.31 145.97C599.96 145.67 599.51 145.52 598.96 145.52C598.57 145.52 598.2 145.605 597.85 145.775C597.51 145.945 597.235 146.18 597.025 146.48L595.87 145.595C596.21 145.125 596.65 144.76 597.19 144.5C597.73 144.24 598.33 144.11 598.99 144.11C600.1 144.11 600.955 144.385 601.555 144.935C602.155 145.475 602.455 146.24 602.455 147.23V152H600.835V151.085H600.76C600.54 151.415 600.23 151.69 599.83 151.91C599.43 152.13 598.97 152.24 598.45 152.24ZM598.735 150.875C599.135 150.875 599.495 150.78 599.815 150.59C600.135 150.4 600.385 150.145 600.565 149.825C600.745 149.505 600.835 149.16 600.835 148.79C600.605 148.66 600.335 148.555 600.025 148.475C599.725 148.395 599.41 148.355 599.08 148.355C598.46 148.355 598.005 148.48 597.715 148.73C597.425 148.97 597.28 149.285 597.28 149.675C597.28 150.025 597.415 150.315 597.685 150.545C597.955 150.765 598.305 150.875 598.735 150.875ZM604.253 144.35H605.828V145.475H605.903C606.073 145.085 606.368 144.765 606.788 144.515C607.208 144.255 607.653 144.125 608.123 144.125C608.493 144.125 608.803 144.175 609.053 144.275V145.985C608.613 145.825 608.218 145.745 607.868 145.745C607.488 145.745 607.148 145.845 606.848 146.045C606.558 146.245 606.328 146.515 606.158 146.855C605.988 147.185 605.903 147.55 605.903 147.95V152H604.253V144.35ZM613.133 152.24C612.443 152.24 611.818 152.065 611.258 151.715C610.698 151.365 610.253 150.885 609.923 150.275C609.603 149.655 609.443 148.955 609.443 148.175C609.443 147.395 609.603 146.7 609.923 146.09C610.253 145.47 610.698 144.985 611.258 144.635C611.818 144.285 612.443 144.11 613.133 144.11C613.673 144.11 614.158 144.23 614.588 144.47C615.018 144.71 615.343 145.005 615.563 145.355H615.638L615.563 144.275V141.26H617.213V152H615.638V151.01H615.563C615.343 151.35 615.018 151.64 614.588 151.88C614.158 152.12 613.673 152.24 613.133 152.24ZM613.373 150.725C613.773 150.725 614.143 150.62 614.483 150.41C614.833 150.2 615.113 149.9 615.323 149.51C615.533 149.12 615.638 148.675 615.638 148.175C615.638 147.675 615.533 147.235 615.323 146.855C615.113 146.465 614.833 146.165 614.483 145.955C614.143 145.745 613.773 145.64 613.373 145.64C612.973 145.64 612.598 145.745 612.248 145.955C611.898 146.165 611.618 146.465 611.408 146.855C611.198 147.235 611.093 147.675 611.093 148.175C611.093 148.675 611.198 149.12 611.408 149.51C611.618 149.9 611.898 150.2 612.248 150.41C612.598 150.62 612.973 150.725 613.373 150.725Z" fill="#d7dbe3"/>
<path d="M265 116L255 110.226V121.774L265 116ZM206 116V117H256V116V115H206V116Z" fill="#d7dbe3"/>
<path d="M493 114L483 108.226V119.774L493 114ZM434 114V115H484V114V113H434V114Z" fill="#d7dbe3"/>
</g>
<defs>
<clipPath id="clip0_1_2">
<rect width="909" height="218" fill="none"/>
</clipPath>
</defs>
</svg>
