<svg width="514" height="416" viewBox="0 0 514 416" fill="none" xmlns="http://www.w3.org/2000/svg">
<g clip-path="url(#clip0_1_2)">
<rect width="514" height="416" fill="white"/>
<rect x="38" y="45" width="167" height="128" rx="19" stroke="#F89B32" stroke-width="2"/>
<path d="M81.04 103.32H77.04V101.18H87.28V103.32H83.28V115.5H81.04V103.32ZM92.267 115.82C91.2404 115.82 90.3204 115.587 89.507 115.12C88.6937 114.64 88.0604 113.987 87.607 113.16C87.1537 112.333 86.927 111.413 86.927 110.4C86.927 109.387 87.1537 108.467 87.607 107.64C88.0604 106.813 88.6937 106.167 89.507 105.7C90.3204 105.22 91.2404 104.98 92.267 104.98C93.2937 104.98 94.2137 105.22 95.027 105.7C95.8404 106.18 96.4737 106.833 96.927 107.66C97.3804 108.487 97.607 109.4 97.607 110.4C97.607 111.413 97.3804 112.333 96.927 113.16C96.4737 113.987 95.8404 114.64 95.027 115.12C94.2137 115.587 93.2937 115.82 92.267 115.82ZM92.267 113.8C92.827 113.8 93.347 113.667 93.827 113.4C94.307 113.12 94.687 112.727 94.967 112.22C95.2604 111.7 95.407 111.093 95.407 110.4C95.407 109.707 95.2604 109.107 94.967 108.6C94.687 108.093 94.307 107.707 93.827 107.44C93.347 107.16 92.827 107.02 92.267 107.02C91.707 107.02 91.187 107.16 90.707 107.44C90.227 107.707 89.8404 108.093 89.547 108.6C89.267 109.107 89.127 109.707 89.127 110.4C89.127 111.093 89.267 111.7 89.547 112.22C89.8404 112.727 90.227 113.12 90.707 113.4C91.187 113.667 91.707 113.8 92.267 113.8ZM99.5378 101.18H101.738V109.52H101.798L105.978 105.3H108.738V105.42L104.778 109.36L108.858 115.38V115.5H106.238L103.238 110.88L101.738 112.34V115.5H99.5378V101.18ZM114.588 115.82C113.588 115.82 112.688 115.587 111.888 115.12C111.102 114.653 110.482 114.013 110.028 113.2C109.588 112.373 109.368 111.447 109.368 110.42C109.368 109.447 109.582 108.547 110.008 107.72C110.448 106.88 111.055 106.213 111.828 105.72C112.602 105.227 113.482 104.98 114.468 104.98C115.495 104.98 116.382 105.207 117.128 105.66C117.888 106.113 118.462 106.733 118.848 107.52C119.248 108.307 119.448 109.193 119.448 110.18C119.448 110.367 119.428 110.6 119.388 110.88H111.568C111.648 111.827 111.982 112.56 112.568 113.08C113.168 113.587 113.862 113.84 114.648 113.84C115.275 113.84 115.815 113.7 116.268 113.42C116.735 113.127 117.108 112.733 117.388 112.24L119.248 113.12C118.768 113.96 118.142 114.62 117.368 115.1C116.595 115.58 115.668 115.82 114.588 115.82ZM117.208 109.2C117.182 108.84 117.068 108.487 116.868 108.14C116.668 107.78 116.362 107.48 115.948 107.24C115.548 107 115.055 106.88 114.468 106.88C113.762 106.88 113.162 107.093 112.668 107.52C112.188 107.933 111.855 108.493 111.668 109.2H117.208ZM121.452 105.3H123.552V106.64H123.652C123.945 106.16 124.379 105.767 124.952 105.46C125.539 105.14 126.159 104.98 126.812 104.98C128.052 104.98 128.992 105.347 129.632 106.08C130.285 106.8 130.612 107.787 130.612 109.04V115.5H128.412V109.34C128.412 108.54 128.212 107.953 127.812 107.58C127.425 107.207 126.885 107.02 126.192 107.02C125.699 107.02 125.259 107.16 124.872 107.44C124.485 107.707 124.185 108.067 123.972 108.52C123.759 108.973 123.652 109.46 123.652 109.98V115.5H121.452V105.3ZM134.353 103.82C133.939 103.82 133.586 103.68 133.293 103.4C133.013 103.107 132.873 102.753 132.873 102.34C132.873 101.927 133.013 101.58 133.293 101.3C133.586 101.007 133.939 100.86 134.353 100.86C134.766 100.86 135.113 101.007 135.393 101.3C135.686 101.58 135.833 101.927 135.833 102.34C135.833 102.753 135.686 103.107 135.393 103.4C135.113 103.68 134.766 103.82 134.353 103.82ZM133.253 105.3H135.453V115.5H133.253V105.3ZM137.67 113.66L143.31 107.24H137.83V105.3H146.01V107.16L140.37 113.58H146.17V115.5H137.67V113.66ZM152.674 115.82C151.674 115.82 150.774 115.587 149.974 115.12C149.188 114.653 148.568 114.013 148.114 113.2C147.674 112.373 147.454 111.447 147.454 110.42C147.454 109.447 147.668 108.547 148.094 107.72C148.534 106.88 149.141 106.213 149.914 105.72C150.688 105.227 151.568 104.98 152.554 104.98C153.581 104.98 154.468 105.207 155.214 105.66C155.974 106.113 156.548 106.733 156.934 107.52C157.334 108.307 157.534 109.193 157.534 110.18C157.534 110.367 157.514 110.6 157.474 110.88H149.654C149.734 111.827 150.068 112.56 150.654 113.08C151.254 113.587 151.948 113.84 152.734 113.84C153.361 113.84 153.901 113.7 154.354 113.42C154.821 113.127 155.194 112.733 155.474 112.24L157.334 113.12C156.854 113.96 156.228 114.62 155.454 115.1C154.681 115.58 153.754 115.82 152.674 115.82ZM155.294 109.2C155.268 108.84 155.154 108.487 154.954 108.14C154.754 107.78 154.448 107.48 154.034 107.24C153.634 107 153.141 106.88 152.554 106.88C151.848 106.88 151.248 107.093 150.754 107.52C150.274 107.933 149.941 108.493 149.754 109.2H155.294ZM159.538 105.3H161.638V106.8H161.738C161.964 106.28 162.358 105.853 162.918 105.52C163.478 105.173 164.071 105 164.698 105C165.191 105 165.604 105.067 165.938 105.2V107.48C165.351 107.267 164.824 107.16 164.358 107.16C163.851 107.16 163.398 107.293 162.998 107.56C162.611 107.827 162.304 108.187 162.078 108.64C161.851 109.08 161.738 109.567 161.738 110.1V115.5H159.538V105.3Z" fill="black"/>
<rect x="309" y="237" width="158" height="136" rx="19" stroke="#E247D3" stroke-width="2"/>
<path d="M361.84 311.82C360.453 311.82 359.193 311.493 358.06 310.84C356.927 310.173 356.033 309.267 355.38 308.12C354.74 306.973 354.42 305.713 354.42 304.34C354.42 302.967 354.74 301.713 355.38 300.58C356.033 299.433 356.927 298.527 358.06 297.86C359.193 297.193 360.453 296.86 361.84 296.86C363.227 296.86 364.48 297.193 365.6 297.86C366.733 298.527 367.627 299.433 368.28 300.58C368.933 301.713 369.26 302.967 369.26 304.34C369.26 305.713 368.933 306.973 368.28 308.12C367.64 309.267 366.753 310.173 365.62 310.84C364.487 311.493 363.227 311.82 361.84 311.82ZM361.84 309.68C362.787 309.68 363.653 309.453 364.44 309C365.227 308.547 365.847 307.92 366.3 307.12C366.753 306.307 366.98 305.38 366.98 304.34C366.98 303.3 366.753 302.38 366.3 301.58C365.847 300.767 365.227 300.133 364.44 299.68C363.653 299.227 362.787 299 361.84 299C360.893 299 360.027 299.227 359.24 299.68C358.453 300.133 357.827 300.767 357.36 301.58C356.907 302.38 356.68 303.3 356.68 304.34C356.68 305.38 356.907 306.307 357.36 307.12C357.827 307.92 358.453 308.547 359.24 309C360.027 309.453 360.893 309.68 361.84 309.68ZM375.18 311.82C373.94 311.82 372.993 311.453 372.34 310.72C371.7 309.973 371.38 308.94 371.38 307.62V301.3H373.58V307.32C373.58 308.147 373.773 308.767 374.16 309.18C374.56 309.593 375.08 309.8 375.72 309.8C376.24 309.8 376.7 309.667 377.1 309.4C377.5 309.12 377.806 308.753 378.02 308.3C378.233 307.847 378.34 307.36 378.34 306.84V301.3H380.54V311.5H378.46V310.18H378.34C378.06 310.66 377.626 311.053 377.04 311.36C376.453 311.667 375.833 311.82 375.18 311.82ZM387.378 311.66C386.925 311.66 386.498 311.587 386.098 311.44C385.698 311.293 385.371 311.1 385.118 310.86C384.545 310.287 384.258 309.507 384.258 308.52V303.24H382.478V301.3H384.258V298.42H386.458V301.3H388.938V303.24H386.458V308.04C386.458 308.587 386.565 308.973 386.778 309.2C386.978 309.467 387.325 309.6 387.818 309.6C388.045 309.6 388.245 309.573 388.418 309.52C388.591 309.453 388.778 309.353 388.978 309.22V311.36C388.538 311.56 388.005 311.66 387.378 311.66ZM391.048 301.3H393.148V302.64H393.248C393.541 302.173 393.974 301.78 394.548 301.46C395.121 301.14 395.768 300.98 396.488 300.98C397.408 300.98 398.241 301.213 398.988 301.68C399.734 302.147 400.321 302.793 400.748 303.62C401.188 304.433 401.408 305.36 401.408 306.4C401.408 307.44 401.188 308.373 400.748 309.2C400.321 310.013 399.734 310.653 398.988 311.12C398.241 311.587 397.408 311.82 396.488 311.82C395.768 311.82 395.121 311.66 394.548 311.34C393.974 311.02 393.541 310.633 393.248 310.18H393.148L393.248 311.6V315.82H391.048V301.3ZM396.168 309.8C396.701 309.8 397.201 309.66 397.668 309.38C398.134 309.1 398.508 308.7 398.788 308.18C399.068 307.66 399.208 307.067 399.208 306.4C399.208 305.733 399.068 305.147 398.788 304.64C398.508 304.12 398.134 303.72 397.668 303.44C397.201 303.16 396.701 303.02 396.168 303.02C395.634 303.02 395.134 303.16 394.668 303.44C394.214 303.72 393.848 304.12 393.568 304.64C393.288 305.147 393.148 305.733 393.148 306.4C393.148 307.067 393.288 307.66 393.568 308.18C393.848 308.7 394.214 309.1 394.668 309.38C395.134 309.66 395.634 309.8 396.168 309.8ZM407.035 311.82C405.795 311.82 404.848 311.453 404.195 310.72C403.555 309.973 403.235 308.94 403.235 307.62V301.3H405.435V307.32C405.435 308.147 405.628 308.767 406.015 309.18C406.415 309.593 406.935 309.8 407.575 309.8C408.095 309.8 408.555 309.667 408.955 309.4C409.355 309.12 409.662 308.753 409.875 308.3C410.088 307.847 410.195 307.36 410.195 306.84V301.3H412.395V311.5H410.315V310.18H410.195C409.915 310.66 409.482 311.053 408.895 311.36C408.308 311.667 407.688 311.82 407.035 311.82ZM419.233 311.66C418.78 311.66 418.353 311.587 417.953 311.44C417.553 311.293 417.227 311.1 416.973 310.86C416.4 310.287 416.113 309.507 416.113 308.52V303.24H414.333V301.3H416.113V298.42H418.313V301.3H420.793V303.24H418.313V308.04C418.313 308.587 418.42 308.973 418.633 309.2C418.833 309.467 419.18 309.6 419.673 309.6C419.9 309.6 420.1 309.573 420.273 309.52C420.447 309.453 420.633 309.353 420.833 309.22V311.36C420.393 311.56 419.86 311.66 419.233 311.66Z" fill="black"/>
<rect x="37" y="237" width="168" height="138" rx="19" stroke="#35C041" stroke-width="2"/>
<path d="M64.14 298.18H72.84V300.32H66.38V304.28H72.2V306.4H66.38V310.36H72.84V312.5H64.14V298.18ZM75.0691 302.3H77.1691V303.64H77.2691C77.5757 303.147 78.0091 302.747 78.5691 302.44C79.1291 302.133 79.7291 301.98 80.3691 301.98C81.1024 301.98 81.7424 302.153 82.2891 302.5C82.8357 302.833 83.2291 303.28 83.4691 303.84C83.8157 303.28 84.2757 302.833 84.8491 302.5C85.4357 302.153 86.1224 301.98 86.9091 301.98C88.0824 301.98 88.9691 302.34 89.5691 303.06C90.1824 303.767 90.4891 304.733 90.4891 305.96V312.5H88.2891V306.34C88.2891 304.793 87.6291 304.02 86.3091 304.02C85.6024 304.02 85.0224 304.307 84.5691 304.88C84.1157 305.453 83.8891 306.16 83.8891 307V312.5H81.6891V306.34C81.6891 304.793 81.0091 304.02 79.6491 304.02C78.9557 304.02 78.3824 304.307 77.9291 304.88C77.4891 305.453 77.2691 306.16 77.2691 307V312.5H75.0691V302.3ZM98.4388 312.82C97.7188 312.82 97.0721 312.66 96.4988 312.34C95.9254 312.02 95.4921 311.633 95.1988 311.18H95.0988V312.5H92.9988V298.18H95.1988V302.2L95.0988 303.64H95.1988C95.4921 303.173 95.9254 302.78 96.4988 302.46C97.0721 302.14 97.7188 301.98 98.4388 301.98C99.3588 301.98 100.192 302.213 100.939 302.68C101.685 303.147 102.272 303.793 102.699 304.62C103.139 305.433 103.359 306.36 103.359 307.4C103.359 308.44 103.139 309.373 102.699 310.2C102.272 311.013 101.685 311.653 100.939 312.12C100.192 312.587 99.3588 312.82 98.4388 312.82ZM98.1188 310.8C98.6521 310.8 99.1521 310.66 99.6188 310.38C100.085 310.1 100.459 309.7 100.739 309.18C101.019 308.66 101.159 308.067 101.159 307.4C101.159 306.733 101.019 306.147 100.739 305.64C100.459 305.12 100.085 304.72 99.6188 304.44C99.1521 304.16 98.6521 304.02 98.1188 304.02C97.5854 304.02 97.0854 304.16 96.6188 304.44C96.1654 304.72 95.7988 305.12 95.5188 305.64C95.2388 306.147 95.0988 306.733 95.0988 307.4C95.0988 308.067 95.2388 308.66 95.5188 309.18C95.7988 309.7 96.1654 310.1 96.6188 310.38C97.0854 310.66 97.5854 310.8 98.1188 310.8ZM110.022 312.82C109.022 312.82 108.122 312.587 107.322 312.12C106.535 311.653 105.915 311.013 105.462 310.2C105.022 309.373 104.802 308.447 104.802 307.42C104.802 306.447 105.015 305.547 105.442 304.72C105.882 303.88 106.489 303.213 107.262 302.72C108.035 302.227 108.915 301.98 109.902 301.98C110.929 301.98 111.815 302.207 112.562 302.66C113.322 303.113 113.895 303.733 114.282 304.52C114.682 305.307 114.882 306.193 114.882 307.18C114.882 307.367 114.862 307.6 114.822 307.88H107.002C107.082 308.827 107.415 309.56 108.002 310.08C108.602 310.587 109.295 310.84 110.082 310.84C110.709 310.84 111.249 310.7 111.702 310.42C112.169 310.127 112.542 309.733 112.822 309.24L114.682 310.12C114.202 310.96 113.575 311.62 112.802 312.1C112.029 312.58 111.102 312.82 110.022 312.82ZM112.642 306.2C112.615 305.84 112.502 305.487 112.302 305.14C112.102 304.78 111.795 304.48 111.382 304.24C110.982 304 110.489 303.88 109.902 303.88C109.195 303.88 108.595 304.093 108.102 304.52C107.622 304.933 107.289 305.493 107.102 306.2H112.642ZM121.343 312.82C120.423 312.82 119.59 312.587 118.843 312.12C118.096 311.653 117.503 311.013 117.063 310.2C116.636 309.373 116.423 308.44 116.423 307.4C116.423 306.36 116.636 305.433 117.063 304.62C117.503 303.793 118.096 303.147 118.843 302.68C119.59 302.213 120.423 301.98 121.343 301.98C122.063 301.98 122.71 302.14 123.283 302.46C123.856 302.78 124.29 303.173 124.583 303.64H124.683L124.583 302.2V298.18H126.783V312.5H124.683V311.18H124.583C124.29 311.633 123.856 312.02 123.283 312.34C122.71 312.66 122.063 312.82 121.343 312.82ZM121.663 310.8C122.196 310.8 122.69 310.66 123.143 310.38C123.61 310.1 123.983 309.7 124.263 309.18C124.543 308.66 124.683 308.067 124.683 307.4C124.683 306.733 124.543 306.147 124.263 305.64C123.983 305.12 123.61 304.72 123.143 304.44C122.69 304.16 122.196 304.02 121.663 304.02C121.13 304.02 120.63 304.16 120.163 304.44C119.696 304.72 119.323 305.12 119.043 305.64C118.763 306.147 118.623 306.733 118.623 307.4C118.623 308.067 118.763 308.66 119.043 309.18C119.323 309.7 119.696 310.1 120.163 310.38C120.63 310.66 121.13 310.8 121.663 310.8ZM133.609 312.82C132.689 312.82 131.855 312.587 131.109 312.12C130.362 311.653 129.769 311.013 129.329 310.2C128.902 309.373 128.689 308.44 128.689 307.4C128.689 306.36 128.902 305.433 129.329 304.62C129.769 303.793 130.362 303.147 131.109 302.68C131.855 302.213 132.689 301.98 133.609 301.98C134.329 301.98 134.975 302.14 135.549 302.46C136.122 302.78 136.555 303.173 136.849 303.64H136.949L136.849 302.2V298.18H139.049V312.5H136.949V311.18H136.849C136.555 311.633 136.122 312.02 135.549 312.34C134.975 312.66 134.329 312.82 133.609 312.82ZM133.929 310.8C134.462 310.8 134.955 310.66 135.409 310.38C135.875 310.1 136.249 309.7 136.529 309.18C136.809 308.66 136.949 308.067 136.949 307.4C136.949 306.733 136.809 306.147 136.529 305.64C136.249 305.12 135.875 304.72 135.409 304.44C134.955 304.16 134.462 304.02 133.929 304.02C133.395 304.02 132.895 304.16 132.429 304.44C131.962 304.72 131.589 305.12 131.309 305.64C131.029 306.147 130.889 306.733 130.889 307.4C130.889 308.067 131.029 308.66 131.309 309.18C131.589 309.7 131.962 310.1 132.429 310.38C132.895 310.66 133.395 310.8 133.929 310.8ZM142.872 300.82C142.459 300.82 142.105 300.68 141.812 300.4C141.532 300.107 141.392 299.753 141.392 299.34C141.392 298.927 141.532 298.58 141.812 298.3C142.105 298.007 142.459 297.86 142.872 297.86C143.285 297.86 143.632 298.007 143.912 298.3C144.205 298.58 144.352 298.927 144.352 299.34C144.352 299.753 144.205 300.107 143.912 300.4C143.632 300.68 143.285 300.82 142.872 300.82ZM141.772 302.3H143.972V312.5H141.772V302.3ZM146.71 302.3H148.81V303.64H148.91C149.203 303.16 149.636 302.767 150.21 302.46C150.796 302.14 151.416 301.98 152.07 301.98C153.31 301.98 154.25 302.347 154.89 303.08C155.543 303.8 155.87 304.787 155.87 306.04V312.5H153.67V306.34C153.67 305.54 153.47 304.953 153.07 304.58C152.683 304.207 152.143 304.02 151.45 304.02C150.956 304.02 150.516 304.16 150.13 304.44C149.743 304.707 149.443 305.067 149.23 305.52C149.016 305.973 148.91 306.46 148.91 306.98V312.5H146.71V302.3ZM162.853 317.14C161.599 317.14 160.559 316.853 159.733 316.28C158.919 315.707 158.373 315.027 158.093 314.24L160.153 313.38C160.366 313.913 160.706 314.34 161.173 314.66C161.653 314.993 162.213 315.16 162.853 315.16C163.786 315.16 164.513 314.88 165.033 314.32C165.566 313.773 165.833 313 165.833 312V311.06H165.713C165.379 311.54 164.933 311.92 164.373 312.2C163.826 312.467 163.193 312.6 162.473 312.6C161.619 312.6 160.826 312.38 160.093 311.94C159.359 311.5 158.773 310.88 158.333 310.08C157.906 309.267 157.693 308.34 157.693 307.3C157.693 306.26 157.906 305.34 158.333 304.54C158.773 303.727 159.359 303.1 160.093 302.66C160.826 302.207 161.619 301.98 162.473 301.98C163.179 301.98 163.813 302.12 164.373 302.4C164.933 302.68 165.379 303.06 165.713 303.54H165.833V302.3H167.933V311.94C167.933 313.047 167.719 313.987 167.293 314.76C166.866 315.547 166.266 316.14 165.493 316.54C164.733 316.94 163.853 317.14 162.853 317.14ZM162.873 310.6C163.406 310.6 163.899 310.473 164.353 310.22C164.806 309.953 165.166 309.573 165.433 309.08C165.699 308.573 165.833 307.98 165.833 307.3C165.833 306.26 165.546 305.453 164.973 304.88C164.413 304.293 163.713 304 162.873 304C162.326 304 161.826 304.133 161.373 304.4C160.919 304.653 160.559 305.027 160.293 305.52C160.026 306.013 159.893 306.607 159.893 307.3C159.893 307.993 160.026 308.587 160.293 309.08C160.559 309.573 160.919 309.953 161.373 310.22C161.826 310.473 162.326 310.6 162.873 310.6ZM174.141 312.82C172.967 312.82 172.007 312.567 171.261 312.06C170.514 311.54 169.987 310.88 169.681 310.08L171.641 309.22C171.881 309.753 172.214 310.16 172.641 310.44C173.081 310.72 173.581 310.86 174.141 310.86C174.687 310.86 175.147 310.767 175.521 310.58C175.894 310.38 176.081 310.087 176.081 309.7C176.081 309.327 175.921 309.033 175.601 308.82C175.281 308.607 174.787 308.42 174.121 308.26L172.901 307.96C172.087 307.76 171.414 307.407 170.881 306.9C170.347 306.393 170.081 305.753 170.081 304.98C170.081 304.38 170.254 303.853 170.601 303.4C170.961 302.947 171.441 302.6 172.041 302.36C172.641 302.107 173.294 301.98 174.001 301.98C174.947 301.98 175.781 302.173 176.501 302.56C177.221 302.933 177.741 303.48 178.061 304.2L176.141 305.04C175.754 304.253 175.047 303.86 174.021 303.86C173.527 303.86 173.114 303.96 172.781 304.16C172.447 304.36 172.281 304.62 172.281 304.94C172.281 305.247 172.407 305.5 172.661 305.7C172.914 305.887 173.287 306.047 173.781 306.18L175.281 306.56C176.281 306.813 177.034 307.2 177.541 307.72C178.061 308.227 178.321 308.853 178.321 309.6C178.321 310.24 178.134 310.807 177.761 311.3C177.401 311.78 176.901 312.153 176.261 312.42C175.621 312.687 174.914 312.82 174.141 312.82Z" fill="black"/>
<rect x="312" y="39" width="162" height="138" rx="19" stroke="#399FFF" stroke-width="2"/>
<path d="M340.001 67.82H336.001V65.68H346.241V67.82H342.241V80H340.001V67.82ZM346.858 69.8H348.958V71.3H349.058C349.285 70.78 349.678 70.3533 350.238 70.02C350.798 69.6733 351.391 69.5 352.018 69.5C352.511 69.5 352.925 69.5667 353.258 69.7V71.98C352.671 71.7667 352.145 71.66 351.678 71.66C351.171 71.66 350.718 71.7933 350.318 72.06C349.931 72.3267 349.625 72.6867 349.398 73.14C349.171 73.58 349.058 74.0667 349.058 74.6V80H346.858V69.8ZM357.793 80.32C357.059 80.32 356.406 80.18 355.833 79.9C355.259 79.6067 354.813 79.2 354.493 78.68C354.173 78.1467 354.013 77.5467 354.013 76.88C354.013 75.8267 354.406 74.9933 355.193 74.38C355.993 73.7667 356.999 73.46 358.213 73.46C358.813 73.46 359.353 73.52 359.833 73.64C360.313 73.7467 360.693 73.8667 360.973 74V73.48C360.973 72.8533 360.739 72.3467 360.273 71.96C359.806 71.56 359.206 71.36 358.473 71.36C357.953 71.36 357.459 71.4733 356.993 71.7C356.539 71.9267 356.173 72.24 355.893 72.64L354.353 71.46C354.806 70.8333 355.393 70.3467 356.113 70C356.833 69.6533 357.633 69.48 358.513 69.48C359.993 69.48 361.133 69.8467 361.933 70.58C362.733 71.3 363.133 72.32 363.133 73.64V80H360.973V78.78H360.873C360.579 79.22 360.166 79.5867 359.633 79.88C359.099 80.1733 358.486 80.32 357.793 80.32ZM358.173 78.5C358.706 78.5 359.186 78.3733 359.613 78.12C360.039 77.8667 360.373 77.5267 360.613 77.1C360.853 76.6733 360.973 76.2133 360.973 75.72C360.666 75.5467 360.306 75.4067 359.893 75.3C359.493 75.1933 359.073 75.14 358.633 75.14C357.806 75.14 357.199 75.3067 356.813 75.64C356.426 75.96 356.233 76.38 356.233 76.9C356.233 77.3667 356.413 77.7533 356.773 78.06C357.133 78.3533 357.599 78.5 358.173 78.5ZM365.53 69.8H367.63V71.14H367.73C368.023 70.66 368.457 70.2667 369.03 69.96C369.617 69.64 370.237 69.48 370.89 69.48C372.13 69.48 373.07 69.8467 373.71 70.58C374.363 71.3 374.69 72.2867 374.69 73.54V80H372.49V73.84C372.49 73.04 372.29 72.4533 371.89 72.08C371.503 71.7067 370.963 71.52 370.27 71.52C369.777 71.52 369.337 71.66 368.95 71.94C368.563 72.2067 368.263 72.5667 368.05 73.02C367.837 73.4733 367.73 73.96 367.73 74.48V80H365.53V69.8ZM380.793 80.32C379.62 80.32 378.66 80.0667 377.913 79.56C377.166 79.04 376.64 78.38 376.333 77.58L378.293 76.72C378.533 77.2533 378.866 77.66 379.293 77.94C379.733 78.22 380.233 78.36 380.793 78.36C381.34 78.36 381.8 78.2667 382.173 78.08C382.546 77.88 382.733 77.5867 382.733 77.2C382.733 76.8267 382.573 76.5333 382.253 76.32C381.933 76.1067 381.44 75.92 380.773 75.76L379.553 75.46C378.74 75.26 378.066 74.9067 377.533 74.4C377 73.8933 376.733 73.2533 376.733 72.48C376.733 71.88 376.906 71.3533 377.253 70.9C377.613 70.4467 378.093 70.1 378.693 69.86C379.293 69.6067 379.946 69.48 380.653 69.48C381.6 69.48 382.433 69.6733 383.153 70.06C383.873 70.4333 384.393 70.98 384.713 71.7L382.793 72.54C382.406 71.7533 381.7 71.36 380.673 71.36C380.18 71.36 379.766 71.46 379.433 71.66C379.1 71.86 378.933 72.12 378.933 72.44C378.933 72.7467 379.06 73 379.313 73.2C379.566 73.3867 379.94 73.5467 380.433 73.68L381.933 74.06C382.933 74.3133 383.686 74.7 384.193 75.22C384.713 75.7267 384.973 76.3533 384.973 77.1C384.973 77.74 384.786 78.3067 384.413 78.8C384.053 79.28 383.553 79.6533 382.913 79.92C382.273 80.1867 381.566 80.32 380.793 80.32ZM388.018 71.74H386.158V69.8H388.018V69C388.018 67.9333 388.351 67.0867 389.018 66.46C389.684 65.8333 390.538 65.52 391.578 65.52C392.178 65.52 392.698 65.5933 393.138 65.74V67.9C392.898 67.8067 392.671 67.7333 392.458 67.68C392.258 67.6133 392.024 67.58 391.758 67.58C391.318 67.58 390.951 67.72 390.658 68C390.364 68.28 390.218 68.6667 390.218 69.16V69.8H392.778V71.74H390.218V80H388.018V71.74ZM399.021 80.32C397.994 80.32 397.074 80.0867 396.261 79.62C395.448 79.14 394.814 78.4867 394.361 77.66C393.908 76.8333 393.681 75.9133 393.681 74.9C393.681 73.8867 393.908 72.9667 394.361 72.14C394.814 71.3133 395.448 70.6667 396.261 70.2C397.074 69.72 397.994 69.48 399.021 69.48C400.048 69.48 400.968 69.72 401.781 70.2C402.594 70.68 403.228 71.3333 403.681 72.16C404.134 72.9867 404.361 73.9 404.361 74.9C404.361 75.9133 404.134 76.8333 403.681 77.66C403.228 78.4867 402.594 79.14 401.781 79.62C400.968 80.0867 400.048 80.32 399.021 80.32ZM399.021 78.3C399.581 78.3 400.101 78.1667 400.581 77.9C401.061 77.62 401.441 77.2267 401.721 76.72C402.014 76.2 402.161 75.5933 402.161 74.9C402.161 74.2067 402.014 73.6067 401.721 73.1C401.441 72.5933 401.061 72.2067 400.581 71.94C400.101 71.66 399.581 71.52 399.021 71.52C398.461 71.52 397.941 71.66 397.461 71.94C396.981 72.2067 396.594 72.5933 396.301 73.1C396.021 73.6067 395.881 74.2067 395.881 74.9C395.881 75.5933 396.021 76.2 396.301 76.72C396.594 77.2267 396.981 77.62 397.461 77.9C397.941 78.1667 398.461 78.3 399.021 78.3ZM406.194 69.8H408.294V71.3H408.394C408.621 70.78 409.014 70.3533 409.574 70.02C410.134 69.6733 410.727 69.5 411.354 69.5C411.847 69.5 412.261 69.5667 412.594 69.7V71.98C412.007 71.7667 411.481 71.66 411.014 71.66C410.507 71.66 410.054 71.7933 409.654 72.06C409.267 72.3267 408.961 72.6867 408.734 73.14C408.507 73.58 408.394 74.0667 408.394 74.6V80H406.194V69.8ZM414.28 69.8H416.38V71.14H416.48C416.787 70.6467 417.22 70.2467 417.78 69.94C418.34 69.6333 418.94 69.48 419.58 69.48C420.313 69.48 420.953 69.6533 421.5 70C422.047 70.3333 422.44 70.78 422.68 71.34C423.027 70.78 423.487 70.3333 424.06 70C424.647 69.6533 425.333 69.48 426.12 69.48C427.293 69.48 428.18 69.84 428.78 70.56C429.393 71.2667 429.7 72.2333 429.7 73.46V80H427.5V73.84C427.5 72.2933 426.84 71.52 425.52 71.52C424.813 71.52 424.233 71.8067 423.78 72.38C423.327 72.9533 423.1 73.66 423.1 74.5V80H420.9V73.84C420.9 72.2933 420.22 71.52 418.86 71.52C418.167 71.52 417.593 71.8067 417.14 72.38C416.7 72.9533 416.48 73.66 416.48 74.5V80H414.28V69.8ZM436.87 80.32C435.87 80.32 434.97 80.0867 434.17 79.62C433.383 79.1533 432.763 78.5133 432.31 77.7C431.87 76.8733 431.65 75.9467 431.65 74.92C431.65 73.9467 431.863 73.0467 432.29 72.22C432.73 71.38 433.336 70.7133 434.11 70.22C434.883 69.7267 435.763 69.48 436.75 69.48C437.776 69.48 438.663 69.7067 439.41 70.16C440.17 70.6133 440.743 71.2333 441.13 72.02C441.53 72.8067 441.73 73.6933 441.73 74.68C441.73 74.8667 441.71 75.1 441.67 75.38H433.85C433.93 76.3267 434.263 77.06 434.85 77.58C435.45 78.0867 436.143 78.34 436.93 78.34C437.556 78.34 438.096 78.2 438.55 77.92C439.016 77.6267 439.39 77.2333 439.67 76.74L441.53 77.62C441.05 78.46 440.423 79.12 439.65 79.6C438.876 80.08 437.95 80.32 436.87 80.32ZM439.49 73.7C439.463 73.34 439.35 72.9867 439.15 72.64C438.95 72.28 438.643 71.98 438.23 71.74C437.83 71.5 437.336 71.38 436.75 71.38C436.043 71.38 435.443 71.5933 434.95 72.02C434.47 72.4333 434.136 72.9933 433.95 73.7H439.49ZM443.733 69.8H445.833V71.3H445.933C446.16 70.78 446.553 70.3533 447.113 70.02C447.673 69.6733 448.266 69.5 448.893 69.5C449.386 69.5 449.8 69.5667 450.133 69.7V71.98C449.546 71.7667 449.02 71.66 448.553 71.66C448.046 71.66 447.593 71.7933 447.193 72.06C446.806 72.3267 446.5 72.6867 446.273 73.14C446.046 73.58 445.933 74.0667 445.933 74.6V80H443.733V69.8Z" fill="black"/>
<rect x="330.5" y="94.5" width="125" height="24" stroke="#399FFF"/>
<path d="M364.88 100.26H366.8L370.835 111H368.975L368.015 108.255H363.68L362.705 111H360.845L364.88 100.26ZM367.445 106.695L366.305 103.5L365.885 102.255H365.795L365.375 103.5L364.235 106.695H367.445ZM374.632 111.12C374.292 111.12 373.972 111.065 373.672 110.955C373.372 110.845 373.127 110.7 372.937 110.52C372.507 110.09 372.292 109.505 372.292 108.765V104.805H370.957V103.35H372.292V101.19H373.942V103.35H377.167V101.19H378.817V103.35H380.677V104.805H378.817V108.405C378.817 108.815 378.897 109.105 379.057 109.275C379.207 109.475 379.467 109.575 379.837 109.575C380.007 109.575 380.157 109.555 380.287 109.515C380.417 109.465 380.557 109.39 380.707 109.29V110.895C380.367 111.045 379.967 111.12 379.507 111.12C379.167 111.12 378.847 111.065 378.547 110.955C378.247 110.845 378.002 110.7 377.812 110.52C377.382 110.09 377.167 109.505 377.167 108.765V104.805H373.942V108.405C373.942 108.815 374.022 109.105 374.182 109.275C374.332 109.475 374.587 109.575 374.947 109.575C375.207 109.575 375.472 109.49 375.742 109.32V110.925C375.582 110.995 375.417 111.045 375.247 111.075C375.087 111.105 374.882 111.12 374.632 111.12ZM385.451 111.24C384.701 111.24 384.026 111.065 383.426 110.715C382.836 110.365 382.371 109.885 382.031 109.275C381.701 108.655 381.536 107.96 381.536 107.19C381.536 106.46 381.696 105.785 382.016 105.165C382.346 104.535 382.801 104.035 383.381 103.665C383.961 103.295 384.621 103.11 385.361 103.11C386.131 103.11 386.796 103.28 387.356 103.62C387.926 103.96 388.356 104.425 388.646 105.015C388.946 105.605 389.096 106.27 389.096 107.01C389.096 107.15 389.081 107.325 389.051 107.535H383.186C383.246 108.245 383.496 108.795 383.936 109.185C384.386 109.565 384.906 109.755 385.496 109.755C385.966 109.755 386.371 109.65 386.711 109.44C387.061 109.22 387.341 108.925 387.551 108.555L388.946 109.215C388.586 109.845 388.116 110.34 387.536 110.7C386.956 111.06 386.261 111.24 385.451 111.24ZM387.416 106.275C387.396 106.005 387.311 105.74 387.161 105.48C387.011 105.21 386.781 104.985 386.471 104.805C386.171 104.625 385.801 104.535 385.361 104.535C384.831 104.535 384.381 104.695 384.011 105.015C383.651 105.325 383.401 105.745 383.261 106.275H387.416ZM390.598 103.35H392.173V104.355H392.248C392.468 103.995 392.793 103.7 393.223 103.47C393.663 103.23 394.128 103.11 394.618 103.11C395.548 103.11 396.253 103.385 396.733 103.935C397.223 104.475 397.468 105.215 397.468 106.155V111H395.818V106.38C395.818 105.78 395.668 105.34 395.368 105.06C395.078 104.78 394.673 104.64 394.153 104.64C393.783 104.64 393.453 104.745 393.163 104.955C392.873 105.155 392.648 105.425 392.488 105.765C392.328 106.105 392.248 106.47 392.248 106.86V111H390.598V103.35ZM402.083 111.12C401.743 111.12 401.423 111.065 401.123 110.955C400.823 110.845 400.578 110.7 400.388 110.52C399.958 110.09 399.743 109.505 399.743 108.765V104.805H398.408V103.35H399.743V101.19H401.393V103.35H403.253V104.805H401.393V108.405C401.393 108.815 401.473 109.105 401.633 109.275C401.783 109.475 402.043 109.575 402.413 109.575C402.583 109.575 402.733 109.555 402.863 109.515C402.993 109.465 403.133 109.39 403.283 109.29V110.895C402.953 111.045 402.553 111.12 402.083 111.12ZM405.84 102.24C405.53 102.24 405.265 102.135 405.045 101.925C404.835 101.705 404.73 101.44 404.73 101.13C404.73 100.82 404.835 100.56 405.045 100.35C405.265 100.13 405.53 100.02 405.84 100.02C406.15 100.02 406.41 100.13 406.62 100.35C406.84 100.56 406.95 100.82 406.95 101.13C406.95 101.44 406.84 101.705 406.62 101.925C406.41 102.135 406.15 102.24 405.84 102.24ZM405.015 103.35H406.665V111H405.015V103.35ZM412.23 111.24C411.46 111.24 410.77 111.065 410.16 110.715C409.55 110.355 409.075 109.865 408.735 109.245C408.395 108.625 408.225 107.935 408.225 107.175C408.225 106.415 408.395 105.725 408.735 105.105C409.075 104.485 409.55 104 410.16 103.65C410.77 103.29 411.46 103.11 412.23 103.11C413 103.11 413.69 103.29 414.3 103.65C414.91 104.01 415.385 104.5 415.725 105.12C416.065 105.74 416.235 106.425 416.235 107.175C416.235 107.935 416.065 108.625 415.725 109.245C415.385 109.865 414.91 110.355 414.3 110.715C413.69 111.065 413 111.24 412.23 111.24ZM412.23 109.725C412.65 109.725 413.04 109.625 413.4 109.425C413.76 109.215 414.045 108.92 414.255 108.54C414.475 108.15 414.585 107.695 414.585 107.175C414.585 106.655 414.475 106.205 414.255 105.825C414.045 105.445 413.76 105.155 413.4 104.955C413.04 104.745 412.65 104.64 412.23 104.64C411.81 104.64 411.42 104.745 411.06 104.955C410.7 105.155 410.41 105.445 410.19 105.825C409.98 106.205 409.875 106.655 409.875 107.175C409.875 107.695 409.98 108.15 410.19 108.54C410.41 108.92 410.7 109.215 411.06 109.425C411.42 109.625 411.81 109.725 412.23 109.725ZM417.61 103.35H419.185V104.355H419.26C419.48 103.995 419.805 103.7 420.235 103.47C420.675 103.23 421.14 103.11 421.63 103.11C422.56 103.11 423.265 103.385 423.745 103.935C424.235 104.475 424.48 105.215 424.48 106.155V111H422.83V106.38C422.83 105.78 422.68 105.34 422.38 105.06C422.09 104.78 421.685 104.64 421.165 104.64C420.795 104.64 420.465 104.745 420.175 104.955C419.885 105.155 419.66 105.425 419.5 105.765C419.34 106.105 419.26 106.47 419.26 106.86V111H417.61V103.35Z" fill="black"/>
<rect x="330.5" y="131.5" width="125" height="24" stroke="#399FFF"/>
<path d="M349.054 137.26H355.579V138.865H350.734V141.955H355.099V143.545H350.734V148H349.054V137.26ZM360.131 148.24C359.381 148.24 358.706 148.065 358.106 147.715C357.516 147.365 357.051 146.885 356.711 146.275C356.381 145.655 356.216 144.96 356.216 144.19C356.216 143.46 356.376 142.785 356.696 142.165C357.026 141.535 357.481 141.035 358.061 140.665C358.641 140.295 359.301 140.11 360.041 140.11C360.811 140.11 361.476 140.28 362.036 140.62C362.606 140.96 363.036 141.425 363.326 142.015C363.626 142.605 363.776 143.27 363.776 144.01C363.776 144.15 363.761 144.325 363.731 144.535H357.866C357.926 145.245 358.176 145.795 358.616 146.185C359.066 146.565 359.586 146.755 360.176 146.755C360.646 146.755 361.051 146.65 361.391 146.44C361.741 146.22 362.021 145.925 362.231 145.555L363.626 146.215C363.266 146.845 362.796 147.34 362.216 147.7C361.636 148.06 360.941 148.24 360.131 148.24ZM362.096 143.275C362.076 143.005 361.991 142.74 361.841 142.48C361.691 142.21 361.461 141.985 361.151 141.805C360.851 141.625 360.481 141.535 360.041 141.535C359.511 141.535 359.061 141.695 358.691 142.015C358.331 142.325 358.081 142.745 357.941 143.275H362.096ZM368.847 148.24C368.097 148.24 367.422 148.065 366.822 147.715C366.232 147.365 365.767 146.885 365.427 146.275C365.097 145.655 364.932 144.96 364.932 144.19C364.932 143.46 365.092 142.785 365.412 142.165C365.742 141.535 366.197 141.035 366.777 140.665C367.357 140.295 368.017 140.11 368.757 140.11C369.527 140.11 370.192 140.28 370.752 140.62C371.322 140.96 371.752 141.425 372.042 142.015C372.342 142.605 372.492 143.27 372.492 144.01C372.492 144.15 372.477 144.325 372.447 144.535H366.582C366.642 145.245 366.892 145.795 367.332 146.185C367.782 146.565 368.302 146.755 368.892 146.755C369.362 146.755 369.767 146.65 370.107 146.44C370.457 146.22 370.737 145.925 370.947 145.555L372.342 146.215C371.982 146.845 371.512 147.34 370.932 147.7C370.352 148.06 369.657 148.24 368.847 148.24ZM370.812 143.275C370.792 143.005 370.707 142.74 370.557 142.48C370.407 142.21 370.177 141.985 369.867 141.805C369.567 141.625 369.197 141.535 368.757 141.535C368.227 141.535 367.777 141.695 367.407 142.015C367.047 142.325 366.797 142.745 366.657 143.275H370.812ZM377.337 148.24C376.647 148.24 376.022 148.065 375.462 147.715C374.902 147.365 374.457 146.885 374.127 146.275C373.807 145.655 373.647 144.955 373.647 144.175C373.647 143.395 373.807 142.7 374.127 142.09C374.457 141.47 374.902 140.985 375.462 140.635C376.022 140.285 376.647 140.11 377.337 140.11C377.877 140.11 378.362 140.23 378.792 140.47C379.222 140.71 379.547 141.005 379.767 141.355H379.842L379.767 140.275V137.26H381.417V148H379.842V147.01H379.767C379.547 147.35 379.222 147.64 378.792 147.88C378.362 148.12 377.877 148.24 377.337 148.24ZM377.577 146.725C377.977 146.725 378.347 146.62 378.687 146.41C379.037 146.2 379.317 145.9 379.527 145.51C379.737 145.12 379.842 144.675 379.842 144.175C379.842 143.675 379.737 143.235 379.527 142.855C379.317 142.465 379.037 142.165 378.687 141.955C378.347 141.745 377.977 141.64 377.577 141.64C377.177 141.64 376.802 141.745 376.452 141.955C376.102 142.165 375.822 142.465 375.612 142.855C375.402 143.235 375.297 143.675 375.297 144.175C375.297 144.675 375.402 145.12 375.612 145.51C375.822 145.9 376.102 146.2 376.452 146.41C376.802 146.62 377.177 146.725 377.577 146.725ZM384.268 141.805H382.873V140.35H384.268V139.75C384.268 138.95 384.518 138.315 385.018 137.845C385.518 137.375 386.158 137.14 386.938 137.14C387.388 137.14 387.778 137.195 388.108 137.305V138.925C387.928 138.855 387.758 138.8 387.598 138.76C387.448 138.71 387.273 138.685 387.073 138.685C386.743 138.685 386.468 138.79 386.248 139C386.028 139.21 385.918 139.5 385.918 139.87V140.35H387.838V141.805H385.918V148H384.268V141.805ZM392.521 148.24C391.751 148.24 391.061 148.065 390.451 147.715C389.841 147.355 389.366 146.865 389.026 146.245C388.686 145.625 388.516 144.935 388.516 144.175C388.516 143.415 388.686 142.725 389.026 142.105C389.366 141.485 389.841 141 390.451 140.65C391.061 140.29 391.751 140.11 392.521 140.11C393.291 140.11 393.981 140.29 394.591 140.65C395.201 141.01 395.676 141.5 396.016 142.12C396.356 142.74 396.526 143.425 396.526 144.175C396.526 144.935 396.356 145.625 396.016 146.245C395.676 146.865 395.201 147.355 394.591 147.715C393.981 148.065 393.291 148.24 392.521 148.24ZM392.521 146.725C392.941 146.725 393.331 146.625 393.691 146.425C394.051 146.215 394.336 145.92 394.546 145.54C394.766 145.15 394.876 144.695 394.876 144.175C394.876 143.655 394.766 143.205 394.546 142.825C394.336 142.445 394.051 142.155 393.691 141.955C393.331 141.745 392.941 141.64 392.521 141.64C392.101 141.64 391.711 141.745 391.351 141.955C390.991 142.155 390.701 142.445 390.481 142.825C390.271 143.205 390.166 143.655 390.166 144.175C390.166 144.695 390.271 145.15 390.481 145.54C390.701 145.92 390.991 146.215 391.351 146.425C391.711 146.625 392.101 146.725 392.521 146.725ZM397.9 140.35H399.475V141.475H399.55C399.72 141.085 400.015 140.765 400.435 140.515C400.855 140.255 401.3 140.125 401.77 140.125C402.14 140.125 402.45 140.175 402.7 140.275V141.985C402.26 141.825 401.865 141.745 401.515 141.745C401.135 141.745 400.795 141.845 400.495 142.045C400.205 142.245 399.975 142.515 399.805 142.855C399.635 143.185 399.55 143.55 399.55 143.95V148H397.9V140.35ZM403.256 140.35H405.041L406.586 145.825H406.646L408.371 140.35H410.066L411.776 145.825H411.836L413.381 140.35H415.136L412.691 148H410.951L409.196 142.51H409.151L407.411 148H405.701L403.256 140.35ZM418.45 148.24C417.9 148.24 417.41 148.135 416.98 147.925C416.55 147.705 416.215 147.4 415.975 147.01C415.735 146.61 415.615 146.16 415.615 145.66C415.615 144.87 415.91 144.245 416.5 143.785C417.1 143.325 417.855 143.095 418.765 143.095C419.215 143.095 419.62 143.14 419.98 143.23C420.34 143.31 420.625 143.4 420.835 143.5V143.11C420.835 142.64 420.66 142.26 420.31 141.97C419.96 141.67 419.51 141.52 418.96 141.52C418.57 141.52 418.2 141.605 417.85 141.775C417.51 141.945 417.235 142.18 417.025 142.48L415.87 141.595C416.21 141.125 416.65 140.76 417.19 140.5C417.73 140.24 418.33 140.11 418.99 140.11C420.1 140.11 420.955 140.385 421.555 140.935C422.155 141.475 422.455 142.24 422.455 143.23V148H420.835V147.085H420.76C420.54 147.415 420.23 147.69 419.83 147.91C419.43 148.13 418.97 148.24 418.45 148.24ZM418.735 146.875C419.135 146.875 419.495 146.78 419.815 146.59C420.135 146.4 420.385 146.145 420.565 145.825C420.745 145.505 420.835 145.16 420.835 144.79C420.605 144.66 420.335 144.555 420.025 144.475C419.725 144.395 419.41 144.355 419.08 144.355C418.46 144.355 418.005 144.48 417.715 144.73C417.425 144.97 417.28 145.285 417.28 145.675C417.28 146.025 417.415 146.315 417.685 146.545C417.955 146.765 418.305 146.875 418.735 146.875ZM424.253 140.35H425.828V141.475H425.903C426.073 141.085 426.368 140.765 426.788 140.515C427.208 140.255 427.653 140.125 428.123 140.125C428.493 140.125 428.803 140.175 429.053 140.275V141.985C428.613 141.825 428.218 141.745 427.868 141.745C427.488 141.745 427.148 141.845 426.848 142.045C426.558 142.245 426.328 142.515 426.158 142.855C425.988 143.185 425.903 143.55 425.903 143.95V148H424.253V140.35ZM433.133 148.24C432.443 148.24 431.818 148.065 431.258 147.715C430.698 147.365 430.253 146.885 429.923 146.275C429.603 145.655 429.443 144.955 429.443 144.175C429.443 143.395 429.603 142.7 429.923 142.09C430.253 141.47 430.698 140.985 431.258 140.635C431.818 140.285 432.443 140.11 433.133 140.11C433.673 140.11 434.158 140.23 434.588 140.47C435.018 140.71 435.343 141.005 435.563 141.355H435.638L435.563 140.275V137.26H437.213V148H435.638V147.01H435.563C435.343 147.35 435.018 147.64 434.588 147.88C434.158 148.12 433.673 148.24 433.133 148.24ZM433.373 146.725C433.773 146.725 434.143 146.62 434.483 146.41C434.833 146.2 435.113 145.9 435.323 145.51C435.533 145.12 435.638 144.675 435.638 144.175C435.638 143.675 435.533 143.235 435.323 142.855C435.113 142.465 434.833 142.165 434.483 141.955C434.143 141.745 433.773 141.64 433.373 141.64C432.973 141.64 432.598 141.745 432.248 141.955C431.898 142.165 431.618 142.465 431.408 142.855C431.198 143.235 431.093 143.675 431.093 144.175C431.093 144.675 431.198 145.12 431.408 145.51C431.618 145.9 431.898 146.2 432.248 146.41C432.598 146.62 432.973 146.725 433.373 146.725Z" fill="black"/>
<path d="M121 237L126.774 227H115.226L121 237ZM121 174H120V228H121H122V174H121Z" fill="black"/>
<path d="M393 241L398.774 231H387.226L393 241ZM393 178H392V232H393H394V178H393Z" fill="black"/>
<path d="M307.438 102.43L297.223 97.3911L299.037 109.494L307.438 102.43ZM209.907 313.142L210.075 314.189C225.842 312.261 236.232 298.758 243.736 279.829C251.246 260.884 255.982 236.212 260.293 211.42C264.614 186.573 268.507 161.611 274.321 141.889C277.226 132.034 280.595 123.549 284.7 117.071C288.803 110.597 293.607 106.182 299.374 104.356L299.058 103.342L298.742 102.327C292.477 104.31 287.381 109.073 283.133 115.775C278.888 122.473 275.455 131.162 272.524 141.106C266.665 160.981 262.745 186.115 258.439 210.879C254.123 235.698 249.418 260.153 242 278.866C234.575 297.597 224.549 310.284 209.739 312.095L209.907 313.142Z" fill="black"/>
</g>
<defs>
<clipPath id="clip0_1_2">
<rect width="514" height="416" fill="white"/>
</clipPath>
</defs>
</svg>
