<svg width="24" height="24" viewBox="0 0 24 24" fill="none" xmlns="http://www.w3.org/2000/svg">
<g id="icon-filled">
<path id="Vector" d="M12.6004 4.23699C15.3238 4.23699 15.6468 4.24719 16.7229 4.29649C19.4871 4.42229 20.7782 5.73384 20.904 8.47764C20.9533 9.55289 20.9627 9.87589 20.9627 12.5993C20.9627 15.3235 20.9525 15.6457 20.904 16.7209C20.7774 19.4622 19.4896 20.7763 16.7229 20.9021C15.6468 20.9514 15.3255 20.9616 12.6004 20.9616C9.87699 20.9616 9.55399 20.9514 8.47874 20.9021C5.70774 20.7754 4.42339 19.4579 4.29759 16.7201C4.24829 15.6448 4.23809 15.3227 4.23809 12.5984C4.23809 9.87504 4.24914 9.55289 4.29759 8.47679C4.42424 5.73384 5.71199 4.42144 8.47874 4.29564C9.55484 4.24719 9.87699 4.23699 12.6004 4.23699ZM12.6004 2.39844C9.83024 2.39844 9.48344 2.41034 8.39544 2.45964C4.69114 2.62964 2.63244 4.68494 2.46244 8.39264C2.41229 9.48149 2.40039 9.82829 2.40039 12.5984C2.40039 15.3686 2.41229 15.7162 2.46159 16.8042C2.63159 20.5085 4.68689 22.5672 8.39459 22.7372C9.48344 22.7865 9.83024 22.7984 12.6004 22.7984C15.3705 22.7984 15.7182 22.7865 16.8062 22.7372C20.5071 22.5672 22.5709 20.5119 22.7383 16.8042C22.7885 15.7162 22.8004 15.3686 22.8004 12.5984C22.8004 9.82829 22.7885 9.48149 22.7392 8.39349C22.5726 4.69259 20.5147 2.63049 16.807 2.46049C15.7182 2.41034 15.3705 2.39844 12.6004 2.39844ZM12.6004 7.36074C9.70784 7.36074 7.36269 9.70589 7.36269 12.5984C7.36269 15.491 9.70784 17.837 12.6004 17.837C15.4929 17.837 17.8381 15.4918 17.8381 12.5984C17.8381 9.70589 15.4929 7.36074 12.6004 7.36074ZM12.6004 15.9984C10.7227 15.9984 9.20039 14.4769 9.20039 12.5984C9.20039 10.7208 10.7227 9.19844 12.6004 9.19844C14.478 9.19844 16.0004 10.7208 16.0004 12.5984C16.0004 14.4769 14.478 15.9984 12.6004 15.9984ZM18.0455 5.93019C17.3689 5.93019 16.8206 6.47844 16.8206 7.15419C16.8206 7.82994 17.3689 8.37819 18.0455 8.37819C18.7212 8.37819 19.2686 7.82994 19.2686 7.15419C19.2686 6.47844 18.7212 5.93019 18.0455 5.93019Z" fill="white"/>
</g>
</svg>
