<svg width="24" height="24" viewBox="0 0 24 24" fill="none" xmlns="http://www.w3.org/2000/svg">
<g id="icon-filled" clip-path="url(#clip0_6914_89956)">
<path id="Vector" d="M23.4761 6.23279C23.3381 5.72444 23.0692 5.26103 22.6963 4.88858C22.3233 4.51614 21.8593 4.24764 21.3502 4.10976C19.4865 3.60156 11.985 3.60156 11.985 3.60156C11.985 3.60156 4.48312 3.61654 2.619 4.12474C2.10997 4.26262 1.64594 4.53112 1.27299 4.90356C0.900053 5.27601 0.631192 5.73942 0.493125 6.24777C0 8.1094 0 12.0016 0 12.0016C0 12.0016 0 15.8937 0.5085 17.7703C0.646567 18.2787 0.915428 18.7421 1.28837 19.1145C1.66131 19.487 2.12535 19.7555 2.63437 19.8934C4.49812 20.4016 12 20.4016 12 20.4016C12 20.4016 19.5019 20.4016 21.366 19.8937C21.875 19.7559 22.3391 19.4874 22.712 19.1149C23.0849 18.7425 23.3538 18.2791 23.4919 17.7707C24 15.9091 24 12.0016 24 12.0016C24 12.0016 23.985 8.1094 23.4761 6.23279Z" fill="white"/>
<path id="Vector_2" d="M9.59997 15.5984L15.5996 11.9984L9.59961 8.39844L9.59997 15.5984Z" fill="black"/>
</g>
<defs>
<clipPath id="clip0_6914_89956">
<rect width="24" height="24" fill="white"/>
</clipPath>
</defs>
</svg>
