<svg xmlns="http://www.w3.org/2000/svg" version="1.1" xmlns:xlink="http://www.w3.org/1999/xlink" width="200" height="200"><svg xmlns="http://www.w3.org/2000/svg" version="1.1" xmlns:xlink="http://www.w3.org/1999/xlink" width="200" height="200"><svg xmlns="http://www.w3.org/2000/svg" version="1.1" xmlns:xlink="http://www.w3.org/1999/xlink" viewBox="0 0 200 200"><rect width="200" height="200" fill="url('#gradient')"></rect><defs><linearGradient id="gradient" gradientTransform="rotate(44 0.5 0.5)"><stop offset="0%" stop-color="#000000"></stop><stop offset="100%" stop-color="#000000"></stop></linearGradient></defs><g><g fill="#ffffff" transform="matrix(6.072711645896003,0,0,6.072711645896003,24.484308140760433,143.18123587324325)" stroke="#c8512e" stroke-width="0"><path d="M9.89-8.57L9.89-6.03L4.50-6.03L4.50-2.64L10.87-2.64L10.87 0L1.07 0L1.07-14.22L10.89-14.22L10.89-11.57L4.50-11.57L4.50-8.57L9.89-8.57ZM20.36-4.81L23.77-4.81Q23.70-3.33 22.97-2.19Q22.24-1.05 20.91-0.43Q19.59 0.20 17.89 0.20L17.89 0.20Q15.09 0.20 13.48-1.63Q11.87-3.46 11.87-6.79L11.87-6.79L11.87-7.49Q11.87-9.58 12.59-11.15Q13.32-12.71 14.69-13.57Q16.05-14.42 17.85-14.42L17.85-14.42Q20.44-14.42 22.01-13.06Q23.58-11.70 23.80-9.31L23.80-9.31L20.38-9.31Q20.34-10.61 19.73-11.17Q19.11-11.74 17.85-11.74L17.85-11.74Q16.57-11.74 15.98-10.78Q15.38-9.82 15.35-7.72L15.35-7.72L15.35-6.72Q15.35-4.44 15.92-3.47Q16.49-2.49 17.89-2.49L17.89-2.49Q19.07-2.49 19.70-3.05Q20.32-3.60 20.36-4.81L20.36-4.81Z"></path></g></g></svg></svg><style>@media (prefers-color-scheme: light) { :root { filter: none; } }
@media (prefers-color-scheme: dark) { :root { filter: none; } }
</style></svg>